<svg xmlns="http://www.w3.org/2000/svg" viewBox="0 0 300 288.9"><path d="M152.8,214.4a30.2,30.2,0,0,1,7.9-19.8C163.1,204.6,152.8,214.4,152.8,214.4Z" transform="translate(0 -11.1)" fill="#ececec"/><path d="M164.3,208.8a30.2,30.2,0,0,1,21.3-.6C177.5,214.4,164.3,208.8,164.3,208.8Z" transform="translate(0 -11.1)" fill="#ececec"/><path d="M165.6,202.4a23.9,23.9,0,0,1,2.9-16.6C172,193.1,165.6,202.4,165.6,202.4Z" transform="translate(0 -11.1)" fill="#ececec"/><path d="M121,179.2c16.9,4.5,25.9,19.2,25.9,19.2C132.5,198.4,121,179.2,121,179.2Z" transform="translate(0 -11.1)" fill="#ececec"/><path d="M148,186.1c-.9-18.1,16.9-38.7,16.9-38.7C162.2,170,148,186.1,148,186.1" transform="translate(0 -11.1)" fill="#ececec"/><path d="M147.9,134.4a49.2,49.2,0,0,1-6.4,26C139,148.7,147.9,134.4,147.9,134.4Z" transform="translate(0 -11.1)" fill="#ececec"/><path d="M141,171.3c-13.3-1.4-20.5-14.7-20.5-14.7C136.6,161.1,141,171.3,141,171.3Z" transform="translate(0 -11.1)" fill="#ececec"/><path d="M112.4,226.9a29.6,29.6,0,0,1,20.9-4C126.2,230.2,112.4,226.9,112.4,226.9Z" transform="translate(0 -11.1)" fill="#ececec"/><path d="M146.8,232.8a19.4,19.4,0,0,1-8.9,10.1C138.4,236.8,146.8,232.8,146.8,232.8Z" transform="translate(0 -11.1)" fill="#ececec"/><path d="M145.1,230.9a23.8,23.8,0,0,1-15.9,2.8C134.3,228.4,145.1,230.9,145.1,230.9Z" transform="translate(0 -11.1)" fill="#ececec"/><path d="M151.9,255.4v-9c0-1.8,0-4-.1-6.3-.1-4.8-.5-10.4-1-16.6s-1.3-13.1-2.3-20.2a367.7,367.7,0,0,0-7.3-36.2c-1.1-4.6-2.1-8.3-2.8-10.9s-.6-2.2-.8-2.9a3.1,3.1,0,0,1-.2-.8v-.2s.1,0,.1.2l.3.8.9,2.9c.8,2.5,1.8,6.2,3,10.8a334.5,334.5,0,0,1,7.5,36.2c1,7.1,1.8,14,2.3,20.2s.7,11.9.8,16.6c.1,2.4,0,4.5,0,6.4v4.9c-.1,1.2-.1,2.3-.1,3a2.5,2.5,0,0,0-.1.8Z" transform="translate(0 -11.1)" fill="#e1e1e1"/><path d="M127.5,216.9c.1-.2,5.5,3.4,12,7.8s11.7,8.3,11.6,8.4-5.4-3.4-12-7.9S127.4,217,127.5,216.9Z" transform="translate(0 -11.1)" fill="#e1e1e1"/><path d="M151.1,218.8l.9-.9,2.4-2.3,8-7.5,7.9-7.5,2.5-2.2c.5-.6.9-.9.9-.8l-.8.9-2.3,2.4c-1.9,2-4.7,4.7-7.8,7.7l-8.1,7.3-2.6,2.2Z" transform="translate(0 -11.1)" fill="#e1e1e1"/><path d="M110.4,208.3s13.8-.3,19.6,10.5A24.9,24.9,0,0,1,110.4,208.3Z" transform="translate(0 -11.1)" fill="#ececec"/><path d="M129.2,202.7s11.2,8,9.4,20.2A24.7,24.7,0,0,1,129.2,202.7Z" transform="translate(0 -11.1)" fill="#ececec"/><path d="M188.1,183.1s-4.4,15.4-18.4,18.1A28.6,28.6,0,0,1,188.1,183.1Z" transform="translate(0 -11.1)" fill="#ececec"/><path d="M123.1,125.9s17.5,11.5,15.6,30.1A37.9,37.9,0,0,1,123.1,125.9Z" transform="translate(0 -11.1)" fill="#ececec"/><path d="M181.4,227.6l-1.1.9-3.2,2.4a90.3,90.3,0,0,0-9.5,8.9,82.1,82.1,0,0,0-7.8,10.4l-2.1,3.4c-.4.8-.7,1.3-.7,1.2s.1-.4.5-1.3l1.9-3.5a73.7,73.7,0,0,1,7.8-10.6,65.8,65.8,0,0,1,9.7-8.8l3.2-2.3Z" transform="translate(0 -11.1)" fill="#e1e1e1"/><path d="M166.2,239a29.6,29.6,0,0,1,4-20.9C172.1,231.2,166.2,239,166.2,239Z" transform="translate(0 -11.1)" fill="#ececec"/><path d="M178,232.6a21.8,21.8,0,0,1,15.2-2.4C184.8,234.7,178,232.6,178,232.6Z" transform="translate(0 -11.1)" fill="#ececec"/><polygon points="126.3 245.7 132.9 288.9 171.1 288.9 180 246.3 126.3 245.7" fill="#ececec"/><path d="M174.6,284.5c0,.1-9.8.2-21.8.2s-21.9-.1-21.9-.2,9.8-.2,21.9-.2S174.6,284.4,174.6,284.5Z" transform="translate(0 -11.1)" fill="#fafafa"/><path d="M174.8,282.4c0,.1-9.9.2-22,.2s-22-.1-22-.2,9.8-.3,22-.3S174.8,282.2,174.8,282.4Z" transform="translate(0 -11.1)" fill="#fafafa"/><path d="M174.7,280c0,.1-9.9.2-22,.2s-22-.1-22-.2,9.8-.3,22-.3S174.7,279.8,174.7,280Z" transform="translate(0 -11.1)" fill="#fafafa"/><path d="M137.3,297.5a29.8,29.8,0,0,1-1.2-5.4,39.3,39.3,0,0,1-.7-5.5,52.1,52.1,0,0,1,1.2,5.4A39.3,39.3,0,0,1,137.3,297.5Z" transform="translate(0 -11.1)" fill="#fafafa"/><path d="M139.9,297.1a45.6,45.6,0,0,1-.5-5.3c-.2-3-.4-5.3-.2-5.4a28.5,28.5,0,0,1,.7,5.3A26.9,26.9,0,0,1,139.9,297.1Z" transform="translate(0 -11.1)" fill="#fafafa"/><path d="M144.6,297.1a33.3,33.3,0,0,1-1-5.5,35.7,35.7,0,0,1-.3-5.5c.2,0,.4,2.5.8,5.5S144.8,297.1,144.6,297.1Z" transform="translate(0 -11.1)" fill="#fafafa"/><path d="M148,297.3c-.2,0-.5-2.5-.6-5.5a28,28,0,0,1,.2-5.6,52.4,52.4,0,0,1,.3,5.6C148,294.8,148.1,297.3,148,297.3Z" transform="translate(0 -11.1)" fill="#fafafa"/><path d="M153.8,297.1a36,36,0,0,1-.4-5.3,29.2,29.2,0,0,1,.1-5.2,33.8,33.8,0,0,1,.4,5.2C154,294.7,154,297.1,153.8,297.1Z" transform="translate(0 -11.1)" fill="#fafafa"/><path d="M158.1,297.3a31.5,31.5,0,0,1-.1-5.4,40.3,40.3,0,0,1,.2-5.5c.2,0,.2,2.5.2,5.5S158.3,297.3,158.1,297.3Z" transform="translate(0 -11.1)" fill="#fafafa"/><path d="M162.2,296.7c-.2,0,0-2.5.3-5.6s.6-5.7.8-5.7a49.8,49.8,0,0,1-.4,5.7A47.4,47.4,0,0,1,162.2,296.7Z" transform="translate(0 -11.1)" fill="#fafafa"/><path d="M167.4,296.2c-.2-.1,0-2.2.6-4.9a20.6,20.6,0,0,1,1.4-4.6c.2,0-.4,2.1-1,4.7A48.5,48.5,0,0,1,167.4,296.2Z" transform="translate(0 -11.1)" fill="#fafafa"/><path d="M121.9,248.2v8.1a3.2,3.2,0,0,0,3.2,3.2h55.3a3.2,3.2,0,0,0,3.2-3.2v-8.1Z" transform="translate(0 -11.1)" fill="#ececec"/><polygon points="126.7 248.4 127.2 250.9 178.2 254.6 179.5 248.4 126.7 248.4" fill="#e1e1e1"/><rect x="200.8" y="11.1" width="80.9" height="84.37" fill="#e1e1e1"/><rect x="195.3" y="11.1" width="80.9" height="84.37" fill="#ececec"/><rect x="206.2" y="22.4" width="59.2" height="61.68" fill="#fafafa"/><path d="M206.2,95.6a9,9,0,0,1-1.5,1.7l-3.7,3.8-3.9,3.7-1.7,1.5a9,9,0,0,1,1.5-1.7l3.8-3.8c1.4-1.5,2.8-2.8,3.8-3.7A15.2,15.2,0,0,1,206.2,95.6Z" transform="translate(0 -11.1)" fill="#e1e1e1"/><path d="M265.4,95.5a7.4,7.4,0,0,1,1.6,1.4l3.9,3.8,3.7,3.9c.9,1,1.5,1.6,1.4,1.7l-1.7-1.5-3.8-3.8-3.7-3.8A16.6,16.6,0,0,1,265.4,95.5Z" transform="translate(0 -11.1)" fill="#e1e1e1"/><path d="M265.2,33.7a9,9,0,0,1,1.5-1.7l3.8-3.8c1.4-1.5,2.8-2.8,3.8-3.7a9.2,9.2,0,0,1,1.7-1.4,10.1,10.1,0,0,1-1.5,1.6c-.9,1-2.2,2.4-3.7,3.8l-3.9,3.8Z" transform="translate(0 -11.1)" fill="#e1e1e1"/><path d="M206,33.8a12.1,12.1,0,0,1-1.6-1.4c-1-1-2.4-2.3-3.8-3.8l-3.8-3.9a10.8,10.8,0,0,1-1.4-1.7l1.7,1.5,3.8,3.8,3.7,3.9A12.1,12.1,0,0,1,206,33.8Z" transform="translate(0 -11.1)" fill="#e1e1e1"/><path d="M265.2,95.2V90.7c0-2.9-.1-7.1-.1-12.5,0-10.8,0-26.2-.1-44.7l.2.2h-59l.2-.2V95.2l-.2-.2H206V33.3h59.4v.2c0,18.5-.1,34-.1,44.8V90.8c-.1,1.4-.1,2.5-.1,3.3v1.1Z" transform="translate(0 -11.1)" fill="#e1e1e1"/><path d="M221.8,59.3s-1.3,15.3,15.3,15.3C237.1,66.4,230.4,60,221.8,59.3Z" transform="translate(0 -11.1)" fill="#ececec"/><path d="M252.1,59.3S236.8,58,236.8,74.6C245,74.6,251.4,67.9,252.1,59.3Z" transform="translate(0 -11.1)" fill="#ececec"/><path d="M236.4,50.9s-12.5,11.2.6,23.7C243.2,68.1,242.6,57.9,236.4,50.9Z" transform="translate(0 -11.1)" fill="#e1e1e1"/><polygon points="121.5 0 121.5 73.7 15.7 73.7 11.9 0.5 121.5 0" fill="#e1e1e1"/><rect x="28.3" y="-4.8" width="73" height="105.8" transform="translate(16.7 101.8) rotate(-90)" fill="#fff"/><path d="M118.2,85.1H11.4v-74H118.2Zm-105.8-1H117.2v-72H12.4Z" transform="translate(0 -11.1)" fill="#e1e1e1"/><rect x="23.4" y="9.6" width="82.9" height="54.85" fill="#fff"/><path d="M106.3,20.7H83L23.4,21l.2-.3V75.6h0l-.2-.3h82.9l-.3.2c.1-16.7.1-30.4.2-39.9v-14a4.5,4.5,0,0,1,.1-1v3.8c0,2.6,0,6.3.1,11,0,9.6,0,23.3.1,40.1v.2H23.1v-.2h0V20.5h83.2Z" transform="translate(0 -11.1)" fill="#e1e1e1"/><path d="M11.9,11.4a7.8,7.8,0,0,1,1.8,1.2l4.2,3.2,4,3.4,1.5,1.5a69.8,69.8,0,0,1-5.8-4.5C14.4,13.7,11.8,11.6,11.9,11.4Z" transform="translate(0 -11.1)" fill="#e1e1e1"/><path d="M117.7,11.6c.1.2-2.4,2.3-5.6,4.8a59.1,59.1,0,0,1-5.8,4.3,56.9,56.9,0,0,1,5.5-4.7A65,65,0,0,1,117.7,11.6Z" transform="translate(0 -11.1)" fill="#e1e1e1"/><path d="M117.6,84.6l-11.8-9.5" transform="translate(0 -11.1)" fill="#fff"/><path d="M105.8,75.1a52.2,52.2,0,0,1,6.1,4.6,48.5,48.5,0,0,1,5.7,4.9c-.1.2-2.8-1.9-6-4.5A64.4,64.4,0,0,1,105.8,75.1Z" transform="translate(0 -11.1)" fill="#e1e1e1"/><path d="M11.9,84.6a56.9,56.9,0,0,1,5.5-4.7c3.2-2.4,5.8-4.4,5.9-4.2a56.9,56.9,0,0,1-5.5,4.7A60.8,60.8,0,0,1,11.9,84.6Z" transform="translate(0 -11.1)" fill="#e1e1e1"/><rect x="57.1" y="20.9" width="18.4" height="52.15" transform="translate(19.3 102.1) rotate(-90)" fill="#e1e1e1"/><path d="M300,299.8c0,.1-67.2.2-150,.2s-150-.1-150-.2,67.1-.1,150-.1S300,299.7,300,299.8Z" transform="translate(0 -11.1)" fill="#1a2e35"/><path d="M89.5,94.7a22.3,22.3,0,0,1,9.2,18.4c-.1,3.5-.8,7.5,1.5,10s6.8,2.2,9,4.8.9,7.8,2,11.7a8,8,0,0,0,8.8,5.6,32.5,32.5,0,0,1-15.2,7.5l-4.6-5.4c1.8,1.9,1.5,5,0,7.1a12.9,12.9,0,0,1-6.3,4.1,39.7,39.7,0,0,1-35-3.8" transform="translate(0 -11.1)" fill="#1a2e35"/><path d="M26,128.5c.7-2.7,2.1-5.2,2.5-7.9,1-6-2.2-12.4.4-17.8,1.8-3.9,6-6,10-7.4s8.4-2.8,11.3-5.9,3.2-5.4,5.3-7.7,7.6-4.6,12.1-5.1,9.3-.4,13.5,1.5,7.8,5.4,8.8,9.9c.4,2.2.3,4.5,1.1,6.6s2.8,4,4,6.1A11.5,11.5,0,0,1,92.8,115L63.5,157.2c-6.5,2.8-22.6.6-27.9-4S24.2,135.4,26,128.5Z" transform="translate(0 -11.1)" fill="#1a2e35"/><path d="M91.7,109.9c-1.7-9.1-9.3-19.6-18.3-17.5L45.6,103.3a5.5,5.5,0,0,0-4.1,6.1l11.9,68.8h-.2S68.1,204,86.3,195.6c3.6-1.6-1.1-13-.9-17.3l-1-11c-.7-5.6-1-7.9-.9-7.8S95,156,95.4,140.3C95.7,132.5,93.7,120.1,91.7,109.9Z" transform="translate(0 -11.1)" fill="#ffc19d"/><path d="M70.4,125.8a2,2,0,0,1-1.6,2.2,2,2,0,0,1-2.3-1.5,2,2,0,0,1,1.6-2.2A2,2,0,0,1,70.4,125.8Z" transform="translate(0 -11.1)" fill="#1a2e35"/><path d="M90.3,123.9a2,2,0,0,1-1.6,2.2,2,2,0,0,1-2.3-1.5,2,2,0,0,1,1.6-2.2A2,2,0,0,1,90.3,123.9Z" transform="translate(0 -11.1)" fill="#1a2e35"/><path d="M90.7,116.9c-.2.4-2.1-.7-4.4-.2s-3.7,2.1-4,1.8,0-.7.6-1.5a5.3,5.3,0,0,1,3.1-1.8,5.1,5.1,0,0,1,3.6.6C90.4,116.2,90.8,116.8,90.7,116.9Z" transform="translate(0 -11.1)" fill="#1a2e35"/><path d="M69.4,120.5c-.2.3-2.1-.9-4.6-.6s-4.1,1.7-4.4,1.4.1-.8.8-1.5a6,6,0,0,1,7.2-.6C69.2,119.8,69.6,120.3,69.4,120.5Z" transform="translate(0 -11.1)" fill="#1a2e35"/><path d="M78.8,134.6a14,14,0,0,1,3.3-1.1c.6-.1,1.1-.3,1.1-.7s-.2-.9-.6-1.5a37.2,37.2,0,0,0-2.1-3.9c-3-5.6-5.2-10.2-5-10.4s2.9,4.4,5.8,9.9c.8,1.4,1.4,2.7,2.1,4A3.5,3.5,0,0,1,84,133a1.8,1.8,0,0,1-.8.9l-.9.2Z" transform="translate(0 -11.1)" fill="#1a2e35"/><path d="M83.5,159.5a39.1,39.1,0,0,1-21.3-2.9s6.5,10.1,21.7,6.7Z" transform="translate(0 -11.1)" fill="#ff9c6a"/><path d="M78.5,139.8a3.9,3.9,0,0,0-3.6-1,3.3,3.3,0,0,0-2.2,1.6,2.3,2.3,0,0,0,.1,2.6,2.7,2.7,0,0,0,2.9.3,7.9,7.9,0,0,0,2.5-1.9l.5-.7c.1-.3.1-.7-.1-.8" transform="translate(0 -11.1)" fill="#ff735d"/><path d="M72.7,136.8c.4,0,.7,2.3,2.8,3.7s4.6.8,4.7,1.1-.5.5-1.5.7a6.5,6.5,0,0,1-3.9-.8,5.5,5.5,0,0,1-2.2-3.1A2.2,2.2,0,0,1,72.7,136.8Z" transform="translate(0 -11.1)" fill="#1a2e35"/><path d="M69,114.7c-.1.7-2.3.7-4.7,1.3s-4.4,1.5-4.8,1,.1-.8.9-1.4a6.8,6.8,0,0,1,3.4-1.7,8.2,8.2,0,0,1,3.8-.1C68.6,114.1,69.1,114.5,69,114.7Z" transform="translate(0 -11.1)" fill="#1a2e35"/><path d="M88.1,108.5c-.4.5-2.1.2-4.2.5s-3.6.8-4.1.3,0-.7.7-1.3a7.9,7.9,0,0,1,3.2-1.2,6.5,6.5,0,0,1,3.4.6C87.9,107.8,88.2,108.2,88.1,108.5Z" transform="translate(0 -11.1)" fill="#1a2e35"/><path d="M39.5,105.9c1.3-2.3,3.8-3.6,6.2-4.6A140.6,140.6,0,0,1,78,91.3c1.5,2.2.3,5.4-1.7,7.2s-4.7,2.6-7.1,3.6-5,2.7-5.9,5.2.1,5.8-.7,8.5c-1.4,4.7-7.8,6.5-9.2,11.2s1.1,7.2,1.8,10.9A13.2,13.2,0,0,1,43,153.6c-1.5-13.2-2.9-26.4-4.3-39.6C38.4,111.2,38.1,108.3,39.5,105.9Z" transform="translate(0 -11.1)" fill="#1a2e35"/><path d="M14.5,140.7c2-2,4.5-3.7,5.2-6.5s-2.3-8.4-.5-12,7.1-3.5,8.7-6.9-.5-4.9-.1-7.2,3.6-4.4,5.9-4.3l19.4,25.3c2.1,8.8,4.1,13.4,2.4,18.6-.9,2.9-2.1,5.7-2.3,8.7s.7,6.3,3.2,8c-10.8,1.4-21.2-3.8-30.9-8.8l-10.2-5.3a6.5,6.5,0,0,1-2.8-2.1C10.9,145.9,12.5,142.7,14.5,140.7Z" transform="translate(0 -11.1)" fill="#1a2e35"/><path d="M25.1,153h1.2a7.5,7.5,0,0,0,3.4-.4,9.8,9.8,0,0,0,4.5-2.7,10.3,10.3,0,0,0,2.8-6.5,9.7,9.7,0,0,0-.6-4.1,17.5,17.5,0,0,0-2.2-4,17.4,17.4,0,0,1-2.3-4,5.9,5.9,0,0,1,.4-4.7c.9-1.3,2.7-1.7,4.4-2.5a5.5,5.5,0,0,0,2.2-1.8,4.9,4.9,0,0,0,.6-2.9c-.1-2-1.1-3.8-1.5-5.6a5.1,5.1,0,0,1-.2-2.7,3.9,3.9,0,0,1,1.5-2.3c1.5-1.2,3.5-1.5,5.4-1.8a11,11,0,0,0,5.5-1.9,10.7,10.7,0,0,0,3.6-4.3,20,20,0,0,0,1.1-5.3,25.1,25.1,0,0,1,.8-4.9,11.5,11.5,0,0,1,2.4-4A12.8,12.8,0,0,1,65.4,83a12.6,12.6,0,0,1,6.8,1,17,17,0,0,1,4.3,3,18.6,18.6,0,0,1,2.8,3.6l-.2-.3a2,2,0,0,0-.4-.8,15.1,15.1,0,0,0-2-2.7,16.1,16.1,0,0,0-4.4-3.1,13,13,0,0,0-7-1.2,13.3,13.3,0,0,0-7.6,3.9,10.1,10.1,0,0,0-2.5,4.1,28.6,28.6,0,0,0-.9,5.1,14.5,14.5,0,0,1-1.1,5,9.7,9.7,0,0,1-3.4,4.1,10.5,10.5,0,0,1-5.2,1.8,12.1,12.1,0,0,0-5.7,1.9,4.1,4.1,0,0,0-1.7,2.6,6.5,6.5,0,0,0,.2,3.1c.5,1.9,1.4,3.6,1.5,5.4a5.1,5.1,0,0,1-.5,2.5,3.9,3.9,0,0,1-2,1.6l-2.5,1.1a5,5,0,0,0-2.1,1.7,5.8,5.8,0,0,0-.4,5.1,13.2,13.2,0,0,0,2.4,4.2,18.6,18.6,0,0,1,2.2,3.8,13.9,13.9,0,0,1,.6,4,10,10,0,0,1-7,9A11,11,0,0,1,25.1,153Z" transform="translate(0 -11.1)" fill="#375a64"/><path d="M9.7,135.1a1.7,1.7,0,0,0-.3.9,4,4,0,0,0,2.1,4,3.6,3.6,0,0,0,2.3.5,5.4,5.4,0,0,0,4.6-3.2,6.5,6.5,0,0,0,.6-3.4,8.6,8.6,0,0,0-.9-3.5c-1-2.3-2.7-4.5-2.8-7.2a5,5,0,0,1,1-3.8,5.3,5.3,0,0,1,3.9-1.5,13.1,13.1,0,0,0,4.7-.7,4.2,4.2,0,0,0,1.8-1.7,7.3,7.3,0,0,0,.7-2.4,18.5,18.5,0,0,0-.7-4.8,9.8,9.8,0,0,1,.1-4.5,11,11,0,0,1,4.7-6.9c2.2-1.5,4.9-1.8,7.4-2.1a21.1,21.1,0,0,0,6.8-1.4,15.2,15.2,0,0,0,4.7-3.3,15.7,15.7,0,0,0,2.4-3.5A10.6,10.6,0,0,0,54,83.1a28,28,0,0,1-1.4,3.4A14.3,14.3,0,0,1,45.5,93a22.1,22.1,0,0,1-6.7,1.3c-2.4.3-5.2.5-7.7,2.2a11.4,11.4,0,0,0-4.9,7.2,10.6,10.6,0,0,0-.1,4.7,14.6,14.6,0,0,1,.6,4.6,3.8,3.8,0,0,1-2.1,3.6,11,11,0,0,1-4.4.7,5.9,5.9,0,0,0-4.3,1.7,5.5,5.5,0,0,0-1.2,4.2,10.9,10.9,0,0,0,1.2,4l1.7,3.4a8.2,8.2,0,0,1,.9,3.4,6.5,6.5,0,0,1-.5,3.1,5.1,5.1,0,0,1-4.2,3.1,4,4,0,0,1-2.2-.5,4.1,4.1,0,0,1-1.4-1.2,3.8,3.8,0,0,1-.6-2.5C9.6,135.4,9.8,135.1,9.7,135.1Z" transform="translate(0 -11.1)" fill="#1a2e35"/><path d="M124.1,135.7a4,4,0,0,1,.1,2.9,3.7,3.7,0,0,1-2.1,2.4,4,4,0,0,1-4-.9,3.9,3.9,0,0,1-1.1-2.2,6.7,6.7,0,0,1,.3-2.8c.5-1.9,1.6-3.9,1.3-6.3a9,9,0,0,0-3.7-6.1,10.6,10.6,0,0,0-3.4-1.6,17.1,17.1,0,0,0-3.9-.3,23.6,23.6,0,0,1-3.8-.2,5.6,5.6,0,0,1-3-1.7,6.9,6.9,0,0,1-1.2-3.2,18.2,18.2,0,0,1,.1-3.3,23.7,23.7,0,0,0,.7-6.4,9.5,9.5,0,0,0-2.2-5.1,10.4,10.4,0,0,0-3.7-2.8l-2.9-1.8a10.3,10.3,0,0,1-1.9-2.2v.2l.3.5a6,6,0,0,0,1.4,1.6,24.3,24.3,0,0,0,2.9,2,11,11,0,0,1,3.5,2.7,9.1,9.1,0,0,1,2.1,5,35.7,35.7,0,0,1-.7,6.2,13.5,13.5,0,0,0-.2,3.5,6.7,6.7,0,0,0,1.4,3.5,5.8,5.8,0,0,0,3.3,1.9,25.5,25.5,0,0,0,3.9.2,15,15,0,0,1,3.7.3,9.9,9.9,0,0,1,3.3,1.5,8.6,8.6,0,0,1,3.4,5.7c.3,2.2-.7,4.1-1.2,6.1a7.4,7.4,0,0,0-.3,2.9,4.3,4.3,0,0,0,5.7,3.4,4,4,0,0,0,2.3-2.7,5.3,5.3,0,0,0,0-2.2A2.2,2.2,0,0,0,124.1,135.7Z" transform="translate(0 -11.1)" fill="#1a2e35"/><path d="M85.9,172.7s21,11.2,23.9,19.5,1.6,63.6,1.6,63.6l7.5,44.1h-9.7Z" transform="translate(0 -11.1)" fill="#375a64"/><path d="M32.2,171.3c-5.8,1.7-9.3,8.3-11.4,14.1-1.4,3.8-1.9,12.6-.7,19.4,2.7,16.5,16.6,66.7,16.6,66.7L26.6,299.9h85.6s-1.1-69.4-1.8-83.2-25.7-46.2-25.7-46.2l1.9,19.2L51.4,166.6S41.7,168.6,32.2,171.3Z" transform="translate(0 -11.1)" fill="#375a64"/><path d="M111.7,237.8v.7a8.7,8.7,0,0,0-.1,1.8q-.1,2.4-.3,6.6c-.3,5.6-.5,13.4-.4,22s.4,16.3.8,21.9c.1,2.8.3,5,.4,6.6s.1,1.4.1,1.8v0c0-.4-.1-1-.2-1.8s-.3-3.8-.5-6.6c-.3-5.6-.7-13.4-.8-21.9s.1-16.4.4-22c.2-2.8.3-5.1.4-6.6s.1-1.4.2-1.8v-.7Z" transform="translate(0 -11.1)" fill="#1a2e35"/><path d="M29.8,222.1S55,272.3,74.2,272.9s23.6-9.4,28.2-16.4a66.4,66.4,0,0,0,7.1-15.6L82.4,257.8Z" transform="translate(0 -11.1)" opacity="0.3"/><path d="M21.6,207.5c10.6,24.2,43,56.5,52.6,59.7,11.8,3.9,17-1.7,20.8-6.3s21.8-30.4,21.8-30.4L94.1,210,81.3,226.9s-28-43.5-29.8-45.3" transform="translate(0 -11.1)" fill="#375a64"/><path d="M51.5,181.6l.7.8,1.6,2.3,6.1,9.1,21.6,33h-.3L94,209.9h.3l22.6,20.5h0l-10.2,14.5c-2.5,3.5-4.9,7-7.4,10.3-1.2,1.7-2.4,3.4-3.7,5a35.4,35.4,0,0,1-4.1,4.5,16,16,0,0,1-5.2,3,14.7,14.7,0,0,1-5.9.7H78.3l-.7-.2-1.5-.3-1.3-.4a18.6,18.6,0,0,1-5.1-2.5,80.4,80.4,0,0,1-8.4-6.8c-2.7-2.3-5.1-4.7-7.5-7-4.6-4.6-8.7-9.2-12.3-13.5A167.5,167.5,0,0,1,26,216.2c-1.6-2.7-2.6-4.9-3.4-6.4l-.7-1.7-.3-.6.3.6.8,1.7c.8,1.5,1.8,3.6,3.4,6.3a160.5,160.5,0,0,0,15.6,21.5c3.6,4.2,7.7,8.8,12.3,13.4,2.4,2.3,4.8,4.7,7.5,7a94.9,94.9,0,0,0,8.4,6.7,19.5,19.5,0,0,0,5,2.5l1.3.4,1.4.3.7.2h2.2a16,16,0,0,0,5.7-.7,16.7,16.7,0,0,0,5.1-3,34.4,34.4,0,0,0,4.1-4.4l3.7-5,7.3-10.2,10.3-14.6v.2L94,210.2h.3L81.4,227h-.2L59.8,193.9c-2.6-4-4.7-7-6.1-9.1l-1.6-2.4Z" transform="translate(0 -11.1)" fill="#1a2e35"/><path d="M32.2,171.3l.8-.2.9-.2,1.3-.2h3.2a18,18,0,0,1,3.9.8,25.6,25.6,0,0,1,3.7,1.7,19.5,19.5,0,0,1,2.6,1.9l.9.9a1.3,1.3,0,0,1,.6.7,1.4,1.4,0,0,1,.5.6,11.9,11.9,0,0,0-2.2-2,16,16,0,0,0-2.6-1.9,20.4,20.4,0,0,0-3.6-1.6,18.4,18.4,0,0,0-3.8-.8,17.9,17.9,0,0,0-3.2-.1C33.4,171.1,32.3,171.4,32.2,171.3Z" transform="translate(0 -11.1)" fill="#1a2e35"/><path d="M81.2,246.4c-.1,0-.1-4.4-.1-9.7s.1-9.8.2-9.8.2,4.4.2,9.8S81.3,246.4,81.2,246.4Z" transform="translate(0 -11.1)" fill="#1a2e35"/><path d="M113.1,165.5c-.8-.2-5,4.6-6.1,6.3s-2.2,6.3-3,9.3a7.9,7.9,0,0,0,.1,4.3l4.1,11.5,16.6,5.6s4.6-3.6,5.6-8,4.3-17.6,4.3-17.6l-4.2-1-2.5,2.7-1.3-4.7s-1.8-1.4-3.1.1-1-2.9-4.5-1.1c0,0-.3-3.1-1.9-3.6a4.1,4.1,0,0,0-3,.3S115.8,166.4,113.1,165.5Z" transform="translate(0 -11.1)" fill="#ffc19d"/><path d="M136.2,174a3.4,3.4,0,0,1,4.6.5s1.6-1.5,3.2-1.2a5.6,5.6,0,0,1,2.8,1.7s2-2,3.2-1.7,2.5,2.1,2.5,2.1a18.5,18.5,0,0,1,3.3.8c.8.4,1.7,3.6,1.7,3.8s1.5,6.8,0,8.7-7.2,12.7-7.2,12.7l-19-1.6-.9-5.3,3.5-18.9Z" transform="translate(0 -11.1)" fill="#d96258"/><path d="M140.9,174.9a7,7,0,0,1,.4,1.1c.2.7.5,1.7.8,3a37.1,37.1,0,0,1,1.1,4.5,19.3,19.3,0,0,1,.4,2.7,3.3,3.3,0,0,1,0,1.4,2.7,2.7,0,0,1-.7,1.4,2.4,2.4,0,0,1-2.9.3,4.1,4.1,0,0,1-1.9-2c-.4-.8-.6-1.6-.9-2.3s-.4-1.5-.5-2.1-.6-2.3-.8-3-.2-1.1-.2-1.1a7,7,0,0,1,.4,1.1c.2.7.4,1.7.8,2.9l.6,2.1a10.2,10.2,0,0,0,.9,2.2,3.5,3.5,0,0,0,1.7,1.9,2.3,2.3,0,0,0,2.5-.2,3.1,3.1,0,0,0,.7-2.6c-.1-.9-.3-1.8-.4-2.7s-.7-3.2-1-4.5-.5-2.2-.7-2.9Z" transform="translate(0 -11.1)" fill="#a8433a"/><path d="M142.7,188.9c.1,0,.2.2.5.6a2.4,2.4,0,0,0,1.7,1,1.6,1.6,0,0,0,1.3-.3,4.2,4.2,0,0,0,.6-1.5,9.7,9.7,0,0,0,.1-1.8v-2c0-2.7-.1-5.2-.1-6.9v-2.2a1.7,1.7,0,0,1,.1-.7,4.2,4.2,0,0,0,.1.7,16.2,16.2,0,0,0,.1,2.1c0,1.8.1,4.3.1,7v2a11.5,11.5,0,0,1-.1,1.9,3,3,0,0,1-.8,1.6,1.9,1.9,0,0,1-1.4.4,2.8,2.8,0,0,1-1.8-1.2A2.8,2.8,0,0,1,142.7,188.9Z" transform="translate(0 -11.1)" fill="#a8433a"/><path d="M151.7,181.2a6.7,6.7,0,0,1,.1,2,18.5,18.5,0,0,1-.1,2.3,5.6,5.6,0,0,1-.8,2.7,2.2,2.2,0,0,1-1.1,1,1.7,1.7,0,0,1-1.4,0,2.4,2.4,0,0,1-1.4-1.8,10.4,10.4,0,0,1-.1-1.6,1.8,1.8,0,0,0,.1-.5,1.2,1.2,0,0,1,.1.5,8.6,8.6,0,0,0,.1,1.5,2.6,2.6,0,0,0,1.3,1.6,1.9,1.9,0,0,0,2.2-.9,7.8,7.8,0,0,0,.7-2.5,9.8,9.8,0,0,0,.2-2.3A17.8,17.8,0,0,1,151.7,181.2Z" transform="translate(0 -11.1)" fill="#a8433a"/><path d="M154.5,180.9l-.4.2a5.7,5.7,0,0,1-1.5.3,4.9,4.9,0,0,1-2.2-.5,4.6,4.6,0,0,1-2-1.7,4.4,4.4,0,0,1-.5-4.7,2.7,2.7,0,0,1,1-1.1l.5-.2c0,.1-.2.1-.4.3a2.1,2.1,0,0,0-.9,1.1,4.6,4.6,0,0,0,2.5,6,3.9,3.9,0,0,0,2,.5A7.6,7.6,0,0,0,154.5,180.9Z" transform="translate(0 -11.1)" fill="#a8433a"/><path d="M114.7,169.4l-1.7,1.4a20.7,20.7,0,0,0-3,4.1c-.9,1.8-1.7,3.5-2.2,4.7a7.5,7.5,0,0,1-.9,2l.2-.5a6.5,6.5,0,0,1,.5-1.5,35.2,35.2,0,0,1,2.1-4.8,14.3,14.3,0,0,1,3.2-4.1l1.2-1Z" transform="translate(0 -11.1)" fill="#ff9c6a"/><path d="M119.1,172.9l-1.6,2.6A26.8,26.8,0,0,1,116,178a8.4,8.4,0,0,1,1.3-2.7A7.5,7.5,0,0,1,119.1,172.9Z" transform="translate(0 -11.1)" fill="#ff9c6a"/><path d="M123.6,174l-.5,2.1c-.3,1.2-.7,2.1-.8,2a7.3,7.3,0,0,1,.4-2.1C123.1,174.9,123.5,173.9,123.6,174Z" transform="translate(0 -11.1)" fill="#ff9c6a"/><path d="M130,181.1c0,.1-.5-.1-1-.7a8.2,8.2,0,0,1-1.4-2.5,15.6,15.6,0,0,1-.8-2.8c-.1-.8-.2-1.2-.1-1.2s.4,1.8,1.2,3.9a14.2,14.2,0,0,0,1.3,2.5C129.7,180.9,130.1,181.1,130,181.1Z" transform="translate(0 -11.1)" fill="#ff9c6a"/><polygon points="124.8 191.4 113.5 216.1 95.7 200.5 107.1 182.7 124.8 191.4" fill="#ffc19d"/><path d="M151.7,205.9a39.7,39.7,0,0,1-1.4-8.7l-19,2.6c.6.9,3.4,22.3,3.4,22.3l18.7-11.8A34.2,34.2,0,0,1,151.7,205.9Z" transform="translate(0 -11.1)" fill="#d96258"/><path d="M128.1,178.4a4.1,4.1,0,0,1-1.5-2.9,8.4,8.4,0,0,1,.6-2.7,5.4,5.4,0,0,1,4.8-1.3c2.8.6,5.5,3.9,5.5,3.9s-.3,2.2-2.3,1.8a48.5,48.5,0,0,1-4.7-1.3Z" transform="translate(0 -11.1)" fill="#d96258"/><path d="M128.1,178.4l.7-.7,1.6-1.9h.2l3.5,1,1,.2h1a2.1,2.1,0,0,0,1.3-1.7v.2a12,12,0,0,0-2.3-2.2,7.2,7.2,0,0,0-4.2-1.8,5.5,5.5,0,0,0-3.6,1.4h0a8.2,8.2,0,0,0-.6,2.5,3.4,3.4,0,0,0,.4,1.8c.6.9,1.1,1.3,1,1.3l-.3-.2-.8-1a2.9,2.9,0,0,1-.5-1.9,6.5,6.5,0,0,1,.6-2.6h0a5.9,5.9,0,0,1,3.8-1.5,7.4,7.4,0,0,1,4.4,1.8,26.1,26.1,0,0,1,2.4,2.2h0a3.1,3.1,0,0,1-.5,1.2,1.8,1.8,0,0,1-1,.7H135l-1-.3-3.5-1h.1l-1.8,1.9Z" transform="translate(0 -11.1)" fill="#a8433a"/><path d="M153.6,188.5l-2,.3a18.8,18.8,0,0,0-4.6,1.7,17.3,17.3,0,0,0-4,2.9l-1.4,1.5c-.1,0,0-.2.2-.5l1-1.2a17.3,17.3,0,0,1,4-3,16.3,16.3,0,0,1,4.7-1.6l1.5-.2Z" transform="translate(0 -11.1)" fill="#a8433a"/><path d="M248.8,66.2a8,8,0,0,1,6.8-1.8,5.1,5.1,0,0,0,3,.1c.6-.3,1-1,1.5-1.5a4,4,0,0,1,5.8.3c.4.4.6.9,1.1,1.2s4.2-2.3,6.1-1.1a4.6,4.6,0,0,0-2.3,1.5,2.3,2.3,0,0,0,0,2.6c1.7,1.7,5-1.6,6.9-.1s1,2.6,2.2,3a3.8,3.8,0,0,0,1.5,0,3.4,3.4,0,0,1,3.3,3.2c.1,1.4-.8,3.1.2,4.1a2.8,2.8,0,0,0,2.5.6,8.1,8.1,0,0,1-1.2,3.7,5.3,5.3,0,0,1,1.2,7.2,9.9,9.9,0,0,1,2.8,3.3,4,4,0,0,1-.3,4.1c-.2.2-.5.4-.6.7a1.4,1.4,0,0,0-.1,1.1,18.3,18.3,0,0,1,.5,4c-.2,1.4-1.3,2.8-2.6,2.6s-.7-.2-1,0a.9.9,0,0,0-.4.6,14,14,0,0,0,0,2.9,3.4,3.4,0,0,1-.7,2.8,1.6,1.6,0,0,1-2.5.1c.3,1.6.5,3.1.8,4.7s.3,2-.4,2.6-2.5,0-3.1-1.1-.6-2.3-1.2-3.4a4.2,4.2,0,0,1-.7-1.3c-.2-.4-.2-.8-.5-1.1s-1.5.2-1.5,1,.6,1.4,1,2.1a2.1,2.1,0,0,1,.4,2.2,6,6,0,0,0-.8.8c-.8,1.2.8,2.4.9,3.7s-.7,1.8-1.4,2.5-2.6,1.3-3.1.2,0-.8-.1-1.2a5.4,5.4,0,0,0-.9-1.2,6.5,6.5,0,0,1-1.6-3.2c.9,1.3,1.8,3.1,1,4.4a4.7,4.7,0,0,1-1.4,1.4c-1,.9-1.7,2.1-2.7,3a3.1,3.1,0,0,1-3.6.7,3,3,0,0,1-1.5,3.3,2.9,2.9,0,0,1-3.6-.8c-.3-.2-.5-.6-.8-.7s-.8-.1-1.2-.1a6.7,6.7,0,0,1-6-3l1.3-.3c-2.3-.5-4.7-1-6.5-2.5s-2.9-4.1-1.7-6.2,1.4-1.7,1.1-2.7-.9-1-1.6-1.3l-8-3.5a7.6,7.6,0,0,1-3.4-2.4c-.8-1.2-.8-3.1.5-3.7a8.8,8.8,0,0,0-2.6-3.4c-1.4-.9-2.9-1.4-4.3-2.2s-2.5-2.4-2.3-4,2.6-2.6,3.6-1.4c-.1-2.4-4.3-2.9-4.5-5.3s2.4-2.8,3.8-4.1c-.2-.7-.9-1.2-1.1-1.9s1.1-2.7,2.5-3.3,3.1-1,3.6-2.5-.7-3.3.2-4.5a1.7,1.7,0,0,1,2.3-.4c1.3-2.7,6.3-.2,8-2.7a.7.7,0,0,0,.3-.6,1.4,1.4,0,0,0-.2-.6,13,13,0,0,0-2.2-1.9,2.5,2.5,0,0,1-.9-2.6c.4-.9,2.2-.7,2.1.3a2.1,2.1,0,0,1,3.1,1,2.4,2.4,0,0,1,2.9,0,6.7,6.7,0,0,1,1.9,2.5" transform="translate(0 -11.1)" fill="#1a2e35"/><path d="M259.5,97.8c-.6-4-3.4-7.4-6.5-10a9.9,9.9,0,0,0-4.4-2.6,4.7,4.7,0,0,0-4.6,1.6v2.9c-.6,4.5,2.7,8.5,4.1,12.8.6,1.8,1.1,4.1,2.9,5a4.4,4.4,0,0,0,3,.1C258,106.5,260.2,101.8,259.5,97.8Z" transform="translate(0 -11.1)" fill="#ff735d"/><path d="M258.8,118.7a8.9,8.9,0,0,0-.4-11.6c1.8-2.1,1.3-5.3-.3-7.4s-4.1-3.5-6.5-4.7c-1-6.2-7.7-10.7-13.9-9.5-3-4.8-9.7-5.8-15.2-4.4a13.4,13.4,0,0,1-4,.7c-1,0-2-.4-3-.5-5.5-1-11.1,2.7-13.4,7.7a8.6,8.6,0,0,1-1.3,2.3,18.6,18.6,0,0,1-2.8,2.1,8.8,8.8,0,0,0-3.6,6.4c-.2,2.1.4,4.4-.6,6.3s-1.3,1.7-1.7,2.7c-1.2,2.9,2,6,1.3,9.1l-.7,1.8a5.5,5.5,0,0,0,.2,3.8c.4.9,1.1,1.7,1.1,2.7a7.9,7.9,0,0,1-.6,2.2c-.4,1.8,3.2,9,4.8,10.1l47,2.3a8.9,8.9,0,0,0,7.1-7.3,2.5,2.5,0,0,1,.5-1.7,2.9,2.9,0,0,1,1.3-.8c3.1-1.5,3.6-5.7,3.4-9.1a6.1,6.1,0,0,1,.1-1.4A5.2,5.2,0,0,1,258.8,118.7Z" transform="translate(0 -11.1)" fill="#1a2e35"/><path d="M245.4,118.3c.5-8.3-4.4-18.1-12.5-22.5-5.1-2.8-9.2-2.9-11.9-3.4a19.7,19.7,0,0,0-11.2,1.9c-2.6.5-12.4,8.8-13.3,18.3s-1.7,23.2-.7,31.1c2.1,15.8,14,18.1,14,18.1s-.3,4.5-.7,9.4l-4.7,1.9c-.2,0,3.7,16.7,3.7,16.7l27.1.6,8.8-17.8-5-1.2Z" transform="translate(0 -11.1)" fill="#d96258"/><path d="M219.4,142a3.8,3.8,0,0,0-1-2.1,3.4,3.4,0,0,0-4.1-.6,4.4,4.4,0,0,0-2,4.1h0a4,4,0,0,0,2.8,1.9h.5a4.2,4.2,0,0,0,2.6-.8A3.6,3.6,0,0,0,219.4,142Z" transform="translate(0 -11.1)" fill="#a8433a"/><path d="M200.3,124.3a2,2,0,0,0,1.9,2.1,1.9,1.9,0,0,0,2.1-1.7,2,2,0,0,0-1.9-2.1A1.9,1.9,0,0,0,200.3,124.3Z" transform="translate(0 -11.1)" fill="#1a2e35"/><path d="M199.9,118.7c.2.3,1.8-.8,4-.8s3.7,1.2,3.9,1-.1-.6-.8-1.1a4.6,4.6,0,0,0-3.1-1.1,4.9,4.9,0,0,0-3.2.9C200,118.1,199.8,118.6,199.9,118.7Z" transform="translate(0 -11.1)" fill="#1a2e35"/><path d="M212.1,136.2a17.1,17.1,0,0,0-3.5-.8c-.6,0-1.1-.2-1.2-.5a3.1,3.1,0,0,1,.4-1.7l1.8-4.1c2.4-6,4.2-10.9,4-11s-2.4,4.7-4.9,10.6c-.6,1.5-1.1,2.9-1.7,4.2a3.1,3.1,0,0,0-.3,2.2,1.2,1.2,0,0,0,.9.8l.9.2A14.3,14.3,0,0,0,212.1,136.2Z" transform="translate(0 -11.1)" fill="#1a2e35"/><path d="M209.8,161.8a40.2,40.2,0,0,0,21.3-5s-5.9,11.3-21.6,9.3Z" transform="translate(0 -11.1)" fill="#a8433a"/><path d="M218.4,137.9c-.3-.1-.4,2.3-2.5,3.9s-4.5,1.3-4.6,1.6.6.5,1.6.5a5.7,5.7,0,0,0,3.9-1.2,5.2,5.2,0,0,0,1.9-3.3C218.8,138.4,218.6,137.9,218.4,137.9Z" transform="translate(0 -11.1)" fill="#1a2e35"/><path d="M201,110.6c.3.5,2,.2,3.9.4s3.6.8,4,.3,0-.7-.6-1.3a7.4,7.4,0,0,0-3.2-1.2,5.9,5.9,0,0,0-3.2.6C201.1,109.8,200.8,110.3,201,110.6Z" transform="translate(0 -11.1)" fill="#1a2e35"/><path d="M224.4,125.7a2,2,0,0,1-4,0,2,2,0,0,1,2.1-1.9A1.8,1.8,0,0,1,224.4,125.7Z" transform="translate(0 -11.1)" fill="#1a2e35"/><path d="M229.5,120.4c-.2.2-1.7-1-3.8-1.1s-3.9.8-4.1.5.2-.6.9-1a5.2,5.2,0,0,1,3.3-.8,5.6,5.6,0,0,1,3,1.2C229.5,119.8,229.7,120.3,229.5,120.4Z" transform="translate(0 -11.1)" fill="#1a2e35"/><path d="M231.9,114.1c-.5.4-2.1-.2-4.1-.4s-3.7.1-4.1-.4.2-.8.9-1.2a6.7,6.7,0,0,1,3.4-.6,6.9,6.9,0,0,1,3.2,1.2C231.9,113.3,232.1,113.8,231.9,114.1Z" transform="translate(0 -11.1)" fill="#1a2e35"/><path d="M242.4,133.1c0-1.2,1.4-3.9,2.6-4,3.1-.4,8.6,0,8.5,7.8-.3,10.7-11,8.3-11,8S242.2,137.1,242.4,133.1Z" transform="translate(0 -11.1)" fill="#d96258"/><path d="M245.5,141l.5.3a1.7,1.7,0,0,0,1.4.1c1.2-.4,2.2-2.2,2.3-4.1a7.6,7.6,0,0,0-.5-2.7,2.1,2.1,0,0,0-1.4-1.5,1.1,1.1,0,0,0-1.1.5,1.8,1.8,0,0,0-.1.5c-.1.1-.3-.1-.2-.6a1.3,1.3,0,0,1,.5-.6,1.5,1.5,0,0,1,1-.3,2.7,2.7,0,0,1,1.9,1.7,6,6,0,0,1,.6,3c-.1,2.2-1.3,4.2-2.8,4.6a2.1,2.1,0,0,1-1.7-.3A1.7,1.7,0,0,1,245.5,141Z" transform="translate(0 -11.1)" fill="#a8433a"/><path d="M194.1,112.6c2.2-1.3,3.6-3.1,3.5-5.6,1.5.5,3-1.4,3.9-2.6s1.9-1.8,1.9-3.3-.1-.6.1-.9.7-.5,1.2-.6a7.2,7.2,0,0,0,4.9-4.8,16.4,16.4,0,0,0,7.3,1.4,5.7,5.7,0,0,0,4.9,2.6,5.8,5.8,0,0,0,4.9-2.8,5.1,5.1,0,0,0,3.4,2.7,16.4,16.4,0,0,0,4.4.4,6.3,6.3,0,0,0,3.9,7.1,1.3,1.3,0,0,1,1,.6,2.5,2.5,0,0,1-.2,1.2,4.8,4.8,0,0,0,3,6.2,3.6,3.6,0,0,0,.2,5.7c.4.2.9.5.8,1s-.2.3-.3.4a8.4,8.4,0,0,0-1.8,3.5c-.1,1.4.8,2.9,2.1,3a3.1,3.1,0,0,0-1.4,2.3c-.1.9.8,1.9,1.7,1.6s5.7-1.1,6-1.4c3.1-4-.5-8.7-.7-13.8a32.8,32.8,0,0,0-4.2-14.6,27.5,27.5,0,0,0-3.6-5.3,42.8,42.8,0,0,0-5.8-4.5c-2.7-1.7-5.4-3.5-8.5-4.3-5.7-1.6-11.8.4-17.3,2.7a24.6,24.6,0,0,0-5.9,3.3,22,22,0,0,0-5.1,6.2,29.1,29.1,0,0,0-4.2,10.9" transform="translate(0 -11.1)" fill="#1a2e35"/><path d="M192.1,108.8a3.8,3.8,0,0,1,.6-1.1c.2-.4.6-.8.9-1.3a5.2,5.2,0,0,0,.6-2,21.7,21.7,0,0,0,.1-2.6,8.8,8.8,0,0,1,.2-3.2,7.6,7.6,0,0,1,1.5-3.3,6.4,6.4,0,0,1,1.3-1.5l1.8-1.2a5.4,5.4,0,0,0,1.6-1.4,6.4,6.4,0,0,0,1.1-2,17.6,17.6,0,0,1,2.7-4,13.5,13.5,0,0,1,4.3-3.1,11.4,11.4,0,0,1,2.6-.9,8.8,8.8,0,0,1,2.8-.2h1.5l1.4.3a5.7,5.7,0,0,0,2.9.1,17.4,17.4,0,0,0,2.9-.7l3-.4a19.9,19.9,0,0,1,6.3.7,10.5,10.5,0,0,1,5.3,3.8l.4.5h-.2a12.4,12.4,0,0,1,9.2,2.2,11.9,11.9,0,0,1,4.9,7.5h-.1a22.2,22.2,0,0,1,3.7,2.1,11.5,11.5,0,0,1,3,2.8,7.2,7.2,0,0,1,1.3,3.8,4.8,4.8,0,0,1-1.2,3.5h0a8.7,8.7,0,0,1,2.3,5.5,8.4,8.4,0,0,1-1.3,5.3l-.7,1.1-.8.9a4.2,4.2,0,0,0-.4,1V122a17.3,17.3,0,0,1-.2,4,8.7,8.7,0,0,1-1.2,3.1,5.5,5.5,0,0,1-1.7,1.7l-1.3.6a1.2,1.2,0,0,0-.4.4l.3-.4,1.4-.7a5.3,5.3,0,0,0,1.6-1.7,8.2,8.2,0,0,0,1.1-3,17.3,17.3,0,0,0,.2-4v-1.2a2.2,2.2,0,0,1,.5-1.1,8.6,8.6,0,0,0,.7-1,3.9,3.9,0,0,0,.8-1,8.6,8.6,0,0,0,1.2-5.1,8.2,8.2,0,0,0-2.3-5.4h0a4.7,4.7,0,0,0,1.1-3.4,7.7,7.7,0,0,0-1.2-3.6,11.5,11.5,0,0,0-3-2.8,30.7,30.7,0,0,0-3.6-2h-.1a12.2,12.2,0,0,0-13.8-9.3h-.1l-.4-.5a9.3,9.3,0,0,0-5.1-3.6,10.8,10.8,0,0,0-3.1-.7,15.8,15.8,0,0,0-3.1-.1l-3,.4a13.7,13.7,0,0,1-2.9.7,3.8,3.8,0,0,1-1.5.1l-1.5-.2-1.4-.3h-1.4a8.2,8.2,0,0,0-2.7.2,11.4,11.4,0,0,0-2.6.9,14,14,0,0,0-4.2,3,17,17,0,0,0-2.7,3.9,8.4,8.4,0,0,1-1.1,2.1,7.5,7.5,0,0,1-1.7,1.4l-1.7,1.1-1.4,1.5a10.4,10.4,0,0,0-1.5,3.2,17.7,17.7,0,0,0-.2,3.2,11.3,11.3,0,0,1,0,2.6,6.5,6.5,0,0,1-.7,2.1l-1,1.2-.5.8Z" transform="translate(0 -11.1)" fill="#375a64"/><path d="M232.8,83l-.8-.5a7.9,7.9,0,0,0-2.3-.7,6.6,6.6,0,0,0-3.6.4,7.3,7.3,0,0,0-3.3,2.8l-.6,1.2a1.4,1.4,0,0,0,.1,1.1l.2.4h-.4a4.6,4.6,0,0,0-3.3.2,4.5,4.5,0,0,0-1.9,2,9.6,9.6,0,0,0-.5,1.7V92a.7.7,0,0,1-.1-.5,4.9,4.9,0,0,1,.4-1.8,5,5,0,0,1,2-2.1,4.6,4.6,0,0,1,3.5-.3l-.2.2a1.7,1.7,0,0,1-.1-1.4l.6-1.3a7.4,7.4,0,0,1,3.5-2.9,6.9,6.9,0,0,1,3.7-.3,5.6,5.6,0,0,1,2.3.8l.6.4Z" transform="translate(0 -11.1)" fill="#375a64"/><path d="M249.8,95.8c0,.1-.2.2-.4.4l-1.3.8a4.3,4.3,0,0,1-2.1.6,4,4,0,0,1-2.7-.9h.3c-.1.1-.2.3-.4.4l-.3.4a6.6,6.6,0,0,1-2.8,1.6,5.5,5.5,0,0,1-2.5.2,3.5,3.5,0,0,1-1.7-.4l-.5-.3a11.5,11.5,0,0,0,2.2.5,5.7,5.7,0,0,0,2.5-.3,7.3,7.3,0,0,0,2.5-1.5l.4-.4.3-.4v-.2l.2.2a3.7,3.7,0,0,0,2.4.8,3.9,3.9,0,0,0,2-.5A11.8,11.8,0,0,0,249.8,95.8Z" transform="translate(0 -11.1)" fill="#375a64"/><path d="M255.1,106v.2c-.1.1-.1.3-.3.5a3.2,3.2,0,0,1-1.7,1.1,5.9,5.9,0,0,1-3.1-.5l-1.7-.7a3.2,3.2,0,0,1-1.4-1.4V105h.3a10.8,10.8,0,0,1-3.3,1.8,5.2,5.2,0,0,1-3,.2,3.1,3.1,0,0,1-1.8-.9l-.4-.4h-.1c.1-.1.2.2.6.4a3.4,3.4,0,0,0,1.8.8,5.9,5.9,0,0,0,2.9-.2,16.5,16.5,0,0,0,3.1-1.8l.2-.2v.4c.2.6.8.9,1.3,1.2l1.6.8a5.2,5.2,0,0,0,2.9.4,2.5,2.5,0,0,0,1.7-.9Z" transform="translate(0 -11.1)" fill="#375a64"/><path d="M267.8,68.1h-.5a2.5,2.5,0,0,0-1.2.8,2.9,2.9,0,0,0-.9,2,10.2,10.2,0,0,0,.3,2.9V74h-.1a6.1,6.1,0,0,0-3.8,1,4.5,4.5,0,0,0-2.1,3.7,4.2,4.2,0,0,0,1.4,3.6l.4.3h-.5a5.3,5.3,0,0,0-5.6,4.9,5.6,5.6,0,0,0,.3,2.4l.3.8a.3.3,0,0,0-.1-.2,1.6,1.6,0,0,1-.3-.6,5.2,5.2,0,0,1-.4-2.4,5.7,5.7,0,0,1,5.8-5.2v.2a4.4,4.4,0,0,1-1.6-3.8,5.2,5.2,0,0,1,.7-2.3,8.7,8.7,0,0,1,1.6-1.7,6.6,6.6,0,0,1,4-1l-.2.2a10.6,10.6,0,0,1-.2-3,3.4,3.4,0,0,1,.9-2.1,2.9,2.9,0,0,1,1.4-.8h.5Z" transform="translate(0 -11.1)" fill="#375a64"/><path d="M286.2,91.9H286l-.5.2a6.2,6.2,0,0,1-2.2.4,7.2,7.2,0,0,1-3.4-.5,7.4,7.4,0,0,1-3.5-2.5h.2a6.6,6.6,0,0,1-4.9,3.2,5.1,5.1,0,0,1-5.2-3h.2a3.1,3.1,0,0,1-1.3,1.7,5.4,5.4,0,0,1-1.8,1,7.6,7.6,0,0,1-3.3.2l-2.1-.4-.7-.2h.8a8.6,8.6,0,0,0,2.1.3,6.9,6.9,0,0,0,3.1-.3,4.6,4.6,0,0,0,3-2.5v0a5,5,0,0,0,5,2.8,7,7,0,0,0,4.7-3v-.2h.1a8.8,8.8,0,0,0,3.4,2.5,8.3,8.3,0,0,0,3.3.5A10,10,0,0,0,286.2,91.9Z" transform="translate(0 -11.1)" fill="#375a64"/><path d="M274.5,107.2l-.2.2-.6.2a4.1,4.1,0,0,1-2.3-.4,5.6,5.6,0,0,1-2.7-2.4,6.2,6.2,0,0,1-.7-4.3h0l.3.2a7.7,7.7,0,0,1-7.6-1.1,6.1,6.1,0,0,1-1.6-1.7l-.5-.7a27.1,27.1,0,0,0,2.3,2.2,6.8,6.8,0,0,0,3.1,1.4,6.5,6.5,0,0,0,4.1-.4l.3-.2v.4h0a5.3,5.3,0,0,0,.6,4.1,6.5,6.5,0,0,0,2.4,2.3,6,6,0,0,0,2.3.5C274.3,107.5,274.4,107.2,274.5,107.2Z" transform="translate(0 -11.1)" fill="#375a64"/><path d="M244.4,67.7a6.4,6.4,0,0,0-.6,3.3,6.7,6.7,0,0,0,.9,3.4,7.8,7.8,0,0,0,3.2,3,7.3,7.3,0,0,0,2.4.7h.2v.2a10.8,10.8,0,0,0-.5,3.4,10.6,10.6,0,0,0,.6,2.8,3,3,0,0,0,.4,1,.7.7,0,0,0,.5.4h.5l-.5.2a1,1,0,0,1-.7-.5l-.4-.9a7.7,7.7,0,0,1-.6-2.8,9.1,9.1,0,0,1,.4-3.6l.2.2a8.4,8.4,0,0,1-2.6-.7,8.3,8.3,0,0,1-3.3-3.1,9,9,0,0,1-.9-3.6,7.3,7.3,0,0,1,.5-2.5l.2-.6Z" transform="translate(0 -11.1)" fill="#375a64"/><path d="M248.7,144.6l.4.4a2.4,2.4,0,0,1,.3,1.6,2.6,2.6,0,0,1-1.2,2.1,3,3,0,0,1-2.9.2,3.6,3.6,0,0,1-1.8-2.4,3.3,3.3,0,0,1,.6-2.3,3,3,0,0,1,1.2-1.1l.5-.2-.5.3a3.6,3.6,0,0,0-1,1.1,2.7,2.7,0,0,0-.4,2.2,2.9,2.9,0,0,0,1.5,2.1,2.8,2.8,0,0,0,2.7-.2,2.5,2.5,0,0,0,1.1-1.8,2.1,2.1,0,0,0-.3-1.5C248.8,144.7,248.6,144.6,248.7,144.6Z" transform="translate(0 -11.1)" fill="#1a2e35"/><path d="M178.5,182.5l25.8-10.2s9.1,14.1,19.9,14.1c12.4,0,16.9-15.2,16.9-15.2l26.5,10.3-11.9,61.9S272,278.9,272,287.3V300H179.2l8.3-36s-5.9-42.9-6.3-45.6C181.6,204.4,178.5,182.5,178.5,182.5Z" transform="translate(0 -11.1)" fill="#ff735d"/><path d="M267.6,181.5c2.2,1.7,9.3,2.9,12.6,11.8s.8,46.5,2,56,4.4,50.7,4.4,50.7H260.5l-17.4-49.9Z" transform="translate(0 -11.1)" fill="#ff735d"/><path d="M178.5,182.5s-5.5,1.6-9.7,15.1c-2.2,7.2-9.4,24.7-9.4,24.7l-4.9-12.8L130,225.1s11.9,27.3,13.4,30.3c2.3,4.7,8.5,13.5,16.6,13.4s13.6-5.8,16.4-11,10-18.1,10-18.1Z" transform="translate(0 -11.1)" fill="#ff735d"/><path d="M180.2,202.8h0c0,.2.1.3.1.5l.2,1.8c.2,1.6.5,3.8.9,6.5.6,5.6,1.5,13.3,2.6,21.7s1.8,16.1,2.5,21.7c.3,2.7.6,4.9.7,6.5l.2,1.8c0,.2.1.3.1.5h0a.1.1,0,0,1-.1-.1v-.5a16.4,16.4,0,0,1-.3-1.8c-.2-1.5-.5-3.8-.8-6.5-.7-5.6-1.7-13.2-2.7-21.7s-1.8-16.1-2.5-21.6c-.3-2.8-.5-5-.7-6.6s-.1-1.3-.2-1.8v-.5Z" transform="translate(0 -11.1)" fill="#1a2e35"/><path d="M272,300c-.1,0-.1-.1-.1-.2l-.2-.6-.7-2.4c-.6-2.2-1.5-5.2-2.6-9l-8.6-30h0c.2-1.4.4-2.8.7-4.3l5.1-33.7c.7-4.3,1.3-7.8,1.7-10.2s.3-2.1.4-2.8a2,2,0,0,0,.1-.7v0a1.5,1.5,0,0,0-.1.7c-.1.7-.2,1.6-.4,2.8s-.9,5.9-1.5,10.2c-1.3,8.7-3.1,20.6-5.1,33.7-.2,1.5-.5,3-.7,4.3h0c3.4,11.8,6.4,22.3,8.5,30,1,3.7,1.9,6.8,2.5,8.9s.5,1.9.6,2.4l.2.7Z" transform="translate(0 -11.1)" fill="#1a2e35"/><path d="M242.4,249.1l-.3.2-1,.3-3.4,1.2c-3,.9-7,2.1-11.6,3.3s-8.7,2.2-11.7,2.8l-3.5.7-1,.2h0l.9-.2,3.6-.8,11.6-2.9c4.6-1.2,8.7-2.4,11.6-3.3l3.5-1,.9-.3Z" transform="translate(0 -11.1)" fill="#1a2e35"/><path d="M248.6,245.9h-6.5c-4-.1-9.5-.5-15.6-1.2s-11.6-1.5-15.5-2.3l-4.7-.9-1.2-.3c-.3-.1-.5-.1-.4-.2h.4l1.3.2,4.6.9c4,.7,9.4,1.5,15.5,2.2s11.6,1.1,15.6,1.3l4.7.2h1.8Z" transform="translate(0 -11.1)" fill="#1a2e35"/><path d="M168.8,246.9l-.2-.3a7.6,7.6,0,0,0-.4-1.1l-1.5-4c-1.2-3.4-3-8.1-5-13.3L156.6,215c-.6-1.6-1.2-3-1.5-4l-.4-1.1-.2-.4c.1,0,.1.2.2.4l.5,1.1c.4,1,.9,2.3,1.6,3.9,1.4,3.4,3.2,8.1,5.2,13.2s3.7,9.9,4.9,13.3l1.4,4,.4,1.1A.6.6,0,0,0,168.8,246.9Z" transform="translate(0 -11.1)" fill="#1a2e35"/><path d="M171.4,243.6a4.8,4.8,0,0,1-.4-.8c-.2-.5-.5-1.2-.8-2.1s-1.9-4.1-3.3-6.6a60.5,60.5,0,0,0-4.1-6.2c-.5-.8-1-1.4-1.3-1.8l-.5-.7q.1,0,.6.6a19.4,19.4,0,0,1,1.4,1.8,50.2,50.2,0,0,1,4.2,6.2,63.2,63.2,0,0,1,3.2,6.6l.8,2.2Z" transform="translate(0 -11.1)" fill="#1a2e35"/><g opacity="0.3"><path d="M195,240.1l.3.9c1,1.3,2.5,1.5,4.1,2,14.3,4.1,33.4,5.3,48.2,2.9C228.4,245.5,210.7,242.3,195,240.1Z" transform="translate(0 -11.1)"/></g><g opacity="0.3"><path d="M181.1,210.5l3.9,33.1c-4.1-10-6.1-21.8-3.9-32.4" transform="translate(0 -11.1)"/></g><path d="M267.3,209.5s.9,28.1-1.3,39.6l-3.5,17.6-2.5-8.9Z" transform="translate(0 -11.1)" opacity="0.3"/><path d="M245,173.2v.6l-.3.7a1.6,1.6,0,0,1-.3.9,21,21,0,0,1-3.1,5.4,15.3,15.3,0,0,1-1.3,1.6l-1.6,1.5a19.5,19.5,0,0,1-4,2.9,22.1,22.1,0,0,1-10.8,3.2,22.8,22.8,0,0,1-10.9-2.7,24.2,24.2,0,0,1-4.1-2.7l-1.7-1.5-1.4-1.5a26.5,26.5,0,0,1-3.3-5.2,9.2,9.2,0,0,1-.3-.9l-.3-.7v-.4a.3.3,0,0,1-.1-.2v.2l.2.4c.1.1.1.4.2.6l.4.9a24.8,24.8,0,0,0,3.4,5.1,10,10,0,0,0,1.4,1.5l1.7,1.5a26.5,26.5,0,0,0,4.1,2.7,22,22,0,0,0,10.7,2.5,23,23,0,0,0,10.7-3,24.7,24.7,0,0,0,3.9-2.9l1.6-1.5a6.5,6.5,0,0,0,1.3-1.6,25.2,25.2,0,0,0,3.2-5.2,2.3,2.3,0,0,0,.3-.9l.3-.7v-.4A.3.3,0,0,0,245,173.2Z" transform="translate(0 -11.1)" fill="#1a2e35"/></svg>