<svg xmlns="http://www.w3.org/2000/svg" viewBox="0 0 284.2 278.5"><path d="M118.3,57.3l3.2.8,9.1-7.9,1.6-6.3s4.9.9,2.3,9-1.4,6.1-1.4,6.1,10.3,2.6,11,3.7-1.8,11.1-3,16.7a6.1,6.1,0,0,1-5.7,5h-1.2c-2.6-.6-15.2-5.9-15.2-5.9l-5.5-1.3Z" transform="translate(-15.8 -21.5)" fill="#ececec"/><polygon points="93.9 31.9 90.6 53.9 96 55.2 101.1 34.1 93.9 31.9" fill="#ececec"/><path d="M179.4,34.8l2-.7,2.4-7.7-1.4-4.1s3.1-1.3,4.6,4.2,1.4,4,1.4,4,6.7-2.3,7.5-1.9,3,6.9,4.3,10.5a4.1,4.1,0,0,1-1.4,4.9l-.7.4c-1.7.6-10.8,2.1-10.8,2.1l-3.5,1.2Z" transform="translate(-15.8 -21.5)" fill="#e1e1e1"/><polygon points="157.3 14.2 163.4 27.8 166.9 26.6 162.2 12.9 157.3 14.2" fill="#e1e1e1"/><polygon points="191.8 245.8 180.4 278.5 186.1 278.5 206.1 245.8 191.8 245.8" fill="#ececec"/><polygon points="257.1 245.8 268.5 278.5 262.8 278.5 242.9 245.8 257.1 245.8" fill="#ececec"/><rect x="193.2" y="155.7" width="90.9" height="90.95" fill="#ececec"/><rect x="164.7" y="155.7" width="90.9" height="90.95" fill="#f5f5f5"/><path d="M265.3,262.3H186.8V183.9h78.5Zm-77.8-.7h77.1v-77H187.5Z" transform="translate(-15.8 -21.5)" fill="#e1e1e1"/><path d="M187.6,208.6c12.9.4,25.8,0,38.7,0s25.7.2,38.6,0c.2,0,.2-.4,0-.4-12.9-.2-25.8,0-38.6,0s-25.8-.3-38.7.1a.1.1,0,0,0,0,.3Z" transform="translate(-15.8 -21.5)" fill="#e1e1e1"/><path d="M228.2,197a2.2,2.2,0,0,1-2.2,2.2,2.2,2.2,0,0,1,0-4.4A2.2,2.2,0,0,1,228.2,197Z" transform="translate(-15.8 -21.5)" fill="#ececec"/><path d="M196.4,232.5a2.2,2.2,0,0,1-2.3,2.2,2.2,2.2,0,0,1,0-4.4A2.2,2.2,0,0,1,196.4,232.5Z" transform="translate(-15.8 -21.5)" fill="#ececec"/><polygon points="251.8 130.9 261.3 155.2 255.4 155.2 250.7 140.2 251.8 130.9" fill="#e1e1e1"/><polygon points="219.4 108.4 216.1 155 249.8 155.7 253.6 108.4 219.4 108.4" fill="#ececec"/><polygon points="222.7 112.2 220 151 245.1 152.1 248.6 111.9 222.7 112.2" fill="#fafafa"/><polygon points="228.2 117.7 226.2 144.9 240 144.9 242.5 117.7 228.2 117.7" fill="#e1e1e1"/><rect x="4" width="59.6" height="62.09" fill="#e1e1e1"/><rect width="59.6" height="62.09" fill="#ececec"/><rect x="8" y="8.3" width="43.6" height="45.4" fill="#fafafa"/><path d="M23.8,75.6l-1.1,1.2L20,79.6l-2.9,2.7-1.2,1.1c-.1,0,.4-.5,1-1.2l2.8-2.8,2.9-2.8C23.3,75.9,23.8,75.5,23.8,75.6Z" transform="translate(-15.8 -21.5)" fill="#e1e1e1"/><path d="M67.4,75.4l1.2,1.1,2.8,2.8,2.7,2.9,1.1,1.2L74,82.3l-2.8-2.8-2.8-2.8C67.7,75.9,67.3,75.5,67.4,75.4Z" transform="translate(-15.8 -21.5)" fill="#e1e1e1"/><path d="M67.2,30a9.6,9.6,0,0,1,1.1-1.3l2.8-2.8,2.8-2.7,1.3-1-1.1,1.2-2.8,2.8-2.8,2.7Z" transform="translate(-15.8 -21.5)" fill="#e1e1e1"/><path d="M23.7,30.1,22.5,29a36.7,36.7,0,0,1-2.8-2.8l-2.8-2.8c-.7-.7-1.1-1.2-1-1.3l1.2,1.1L19.9,26l2.7,2.9Z" transform="translate(-15.8 -21.5)" fill="#e1e1e1"/><path d="M67.2,75.3V62.7c0-7.9-.1-19.3-.1-32.8H24V75.3l-.2-.2h-.1c0-13.2,0-28.8-.1-45.4v-.2H67.4v.2c0,13.6-.1,24.9-.1,32.9V75.1A.3.3,0,0,1,67.2,75.3Z" transform="translate(-15.8 -21.5)" fill="#e1e1e1"/><path d="M35.3,48.8s-.9,11.3,11.2,11.3C46.5,54.1,41.6,49.3,35.3,48.8Z" transform="translate(-15.8 -21.5)" fill="#ececec"/><path d="M57.6,48.8s-11.3-.9-11.3,11.3C52.3,60.1,57.1,55.1,57.6,48.8Z" transform="translate(-15.8 -21.5)" fill="#ececec"/><path d="M46,42.7s-9.2,8.2.5,17.4C51,55.3,50.6,47.8,46,42.7Z" transform="translate(-15.8 -21.5)" fill="#e1e1e1"/><path d="M275,299.9H25c0-.1,56-.2,125-.2S275,299.8,275,299.9Z" transform="translate(-15.8 -21.5)" fill="#1a2e35"/><path d="M76.1,174.7c-8.6-13.2-7.4-32.1,2.9-44,3.2-3.7,7.7-6.9,12.6-6.5s9,4.7,10.5,9.5,1,9.9.1,14.9c-1.2,6.9-3.3,13.9-8.1,19.1s-11.9,10.4-18,7" transform="translate(-15.8 -21.5)" fill="#ff4f5b"/><path d="M80.9,238.2a19.6,19.6,0,0,1,5.5-22.4c1.9-1.6,4.5-2.8,7-2.2s4.2,3.3,4.6,5.9a16.5,16.5,0,0,1-1.3,7.6c-1.3,3.5-3,6.9-5.9,9.1s-7.1,4.3-9.9,2" transform="translate(-15.8 -21.5)" fill="#ff4f5b"/><path d="M60,233.7c2.4-11.7-3.7-24.6-14.3-30.1-3.3-1.7-7.4-2.8-10.7-1.1s-5,5.8-4.7,9.6,2,7.3,4.1,10.5,6.2,8.9,11,11.2,11.3,4,14.6-.1" transform="translate(-15.8 -21.5)" fill="#ff4f5b"/><path d="M61.5,202.1c4.2-13.4-2.8-29.5-14.5-37.2-3.6-2.4-8.2-4-12.3-2.5s-6.5,6.2-6.6,10.7,1.6,8.7,3.5,12.6c2.8,5.6,6.3,11.1,11.6,14.3s13.9,6.4,18.3,2.1" transform="translate(-15.8 -21.5)" fill="#ff4f5b"/><path d="M69.8,267.2a2.8,2.8,0,0,0-.1-.6c-.1-.5-.2-1.1-.3-1.9a6.9,6.9,0,0,0-.2-1.3l-.3-1.6c-.2-1.1-.4-2.4-.8-3.9a22.5,22.5,0,0,0-.5-2.2c-.2-.7-.5-1.5-.7-2.4l-1.7-5.2A111.1,111.1,0,0,0,60,236.7a114.2,114.2,0,0,0-6.6-10.6L50,221.8c-.6-.6-1.1-1.3-1.6-1.9l-1.6-1.6a36.9,36.9,0,0,0-2.7-2.8l-1.2-1.2-1-.9-1.4-1.2-.5-.5.6.4,1.4,1.2,1.1.8,1.2,1.1,2.8,2.8,1.6,1.6c.5.7,1.1,1.3,1.6,1.9s2.3,2.8,3.5,4.3a89.4,89.4,0,0,1,6.7,10.7A95.6,95.6,0,0,1,65.7,248c.6,1.8,1.2,3.5,1.6,5.2a21.7,21.7,0,0,1,.7,2.4,18.9,18.9,0,0,1,.5,2.3,20.6,20.6,0,0,1,.7,3.8l.3,1.6a7.1,7.1,0,0,1,.1,1.4,17.6,17.6,0,0,1,.2,1.9Q70,267.2,69.8,267.2Z" transform="translate(-15.8 -21.5)" fill="#1a2e35"/><path d="M69.5,269.6v-.2a2.2,2.2,0,0,0,.1-.8q.2-1.1.3-3a18.3,18.3,0,0,1,.2-2.1c0-.8.1-1.7.1-2.6a59.2,59.2,0,0,0,.2-6.2v-3.6c0-1.3-.2-2.6-.2-3.9s-.5-5.6-.8-8.7a126.2,126.2,0,0,0-4.1-19.3,127.6,127.6,0,0,0-7.1-18.5c-1.4-2.8-2.7-5.4-4.1-7.7l-2-3.4-1.9-3c-1.2-2-2.5-3.6-3.6-5.1a19.1,19.1,0,0,0-1.5-2.1l-1.3-1.7L42,175.4l-.5-.6-.2-.3.2.2.5.6,2,2.3,1.4,1.6,1.5,2.1c1.1,1.5,2.4,3.1,3.6,5.1s1.3,1.9,2,3,1.3,2.2,2,3.4,2.7,4.9,4.1,7.6A122.2,122.2,0,0,1,65.8,219a128.5,128.5,0,0,1,4.1,19.5c.3,3,.7,5.9.7,8.6s.2,2.7.2,4v3.6c0,2.3-.2,4.4-.3,6.2a19.7,19.7,0,0,1-.2,2.6,12.5,12.5,0,0,1-.2,2.1c-.2,1.3-.3,2.3-.4,3s-.1.6-.1.8A.3.3,0,0,1,69.5,269.6Z" transform="translate(-15.8 -21.5)" fill="#1a2e35"/><path d="M92,140.1v.3l-.4.7c-.3.6-.8,1.5-1.5,2.6l-1,1.9-1.2,2.3c-.4.9-.8,1.8-1.3,2.7s-.9,2-1.4,3-.9,2.2-1.4,3.4-1,2.5-1.4,3.7l-.8,2c-.2.7-.5,1.4-.7,2s-.9,2.9-1.4,4.3c-1.9,5.9-3.6,12.5-5.1,19.5s-2.4,13.8-3.1,19.9-1.1,11.8-1.2,16.4c-.2,2.4-.2,4.5-.2,6.4v4.7c0,1.3.1,2.3.1,3v.8c0,.2,0,.3-.1.3v-1c-.1-.8-.1-1.8-.2-3.1s-.1-2.9-.1-4.7,0-4,.1-6.4c0-4.7.5-10.2,1.1-16.4s1.7-13,3.1-20a177.6,177.6,0,0,1,5.1-19.5c.5-1.5,1-2.9,1.4-4.3a17.2,17.2,0,0,0,.7-2.1,15.4,15.4,0,0,0,.8-1.9c.5-1.3,1-2.6,1.5-3.7l1.5-3.4c.5-1.1.9-2.1,1.4-3.1l1.3-2.6a17.1,17.1,0,0,0,1.2-2.3l1.2-1.9,1.5-2.6.4-.7Z" transform="translate(-15.8 -21.5)" fill="#1a2e35"/><path d="M89.1,221.1l-.9,1.6c-.7,1-1.5,2.5-2.6,4.4s-2.1,4.1-3.2,6.7-2.2,5.5-3.2,8.6-1.7,6.1-2.2,8.8-.9,5.3-1.1,7.4-.3,3.9-.4,5a14.9,14.9,0,0,1-.1,1.9,5.8,5.8,0,0,1-.1-1.9,50,50,0,0,1,.2-5c.2-2.1.5-4.7,1-7.5a71.9,71.9,0,0,1,2.2-8.9,77.6,77.6,0,0,1,3.2-8.6c1.2-2.6,2.3-4.8,3.4-6.7s2-3.3,2.7-4.3A5,5,0,0,1,89.1,221.1Z" transform="translate(-15.8 -21.5)" fill="#1a2e35"/><polygon points="37.1 239.8 75 239.8 70.4 278.5 41.8 278.5 37.1 239.8" fill="#375a64"/><polygon points="38.5 274.3 41.7 278.5 70.4 278.5 73.7 274.4 38.5 274.3" fill="#1a2e35"/><path d="M89.3,272.7c0,.1-7.8.3-17.5.3s-17.6-.2-17.6-.3,7.9-.3,17.6-.3S89.3,272.5,89.3,272.7Z" transform="translate(-15.8 -21.5)" fill="#fafafa"/><path d="M89.3,275.2c0,.2-7.8.3-17.5.3s-17.6-.1-17.6-.3,7.9-.2,17.6-.2S89.3,275.1,89.3,275.2Z" transform="translate(-15.8 -21.5)" fill="#fafafa"/><path d="M88.9,277.7c0,.2-7.6.3-17,.3s-17-.1-17-.3,7.6-.2,17-.2S88.9,277.6,88.9,277.7Z" transform="translate(-15.8 -21.5)" fill="#fafafa"/><path d="M181.4,143.3c-1.4,3.6-1.4,11,1,14s2.9,2.8,3.8,4.6a7.5,7.5,0,0,1-.8,7.5,13.8,13.8,0,0,1-6.1,4.8c-2.7,1.2-5.9,1.9-8.4.3s-2.9-3.4-3.5-5.5c-1.7-6-1.1-12.5.7-18.5s4.6-11.7,7.5-17.2" transform="translate(-15.8 -21.5)" fill="#1a2e35"/><path d="M189.4,193.3l12.7-7.8s-9.7-18.6-11.1-19.3-21-3.6-21-3.6c-6,9.4-13.4,7.1-20.9.8-.7.2-12.5,2.9-15.6,3.3s-11.9,14.5-11.9,14.5l10.1,17.6.7,18.3s.6,13-1.6,19.7l53.5,1.7a76.6,76.6,0,0,1-1.3-8.4c-.2-2.3-.8-4.6-.3-7.5C184.1,213.4,189.4,193.3,189.4,193.3Z" transform="translate(-15.8 -21.5)" fill="#ff4f5b"/><path d="M127.8,172.2c.8,2.7,7.6,6.6,10,5.2a7.9,7.9,0,0,1,2.3-1.4c1.1-.2,2.1.5,3.2.8s5.7-.1,7.5,1.8,1.4,2.6,2.7,2.6l1.4-.4c1.4-.4,2.8.7,4.3.8a4.7,4.7,0,0,0,2.3-.4l10.6-3.1c.8-.2,1.7-.5,2-1.3a5.8,5.8,0,0,1-3.9-.1,13.3,13.3,0,0,0-2.1-.9c-1.9-.4-3.6,1.1-5.5,1.6s-4-.3-5.8-1l-9.7-3.8c-2.7-1-5.4-2-7.5-4s-3.2.7-4,.3a31.3,31.3,0,0,1-2.6-2.1c-.2-.1-1.7,1.2-2.3,1.9Z" transform="translate(-15.8 -21.5)" fill="#fafafa"/><path d="M132.4,217.1a59.9,59.9,0,0,1,9-3.1,18.2,18.2,0,0,1,5.7-.2,8.8,8.8,0,0,0,2.8.1,17.6,17.6,0,0,0,2.3-1.4c2.3-1.1,5.1.3,7.7,0a2.5,2.5,0,0,0,1.6-.8,1.1,1.1,0,0,0,0-1.7,1.8,1.8,0,0,0-1-.4,22.9,22.9,0,0,0-3.7.1h-1.9a7,7,0,0,1-2.5-.1,14.7,14.7,0,0,1-2.2-1c-2.6-1.1-5.6-.6-8.5-.2a11.9,11.9,0,0,1-4.2,0,3.9,3.9,0,0,0-1.5-.2c-.8,0-1.5.6-2.3.8s-.9-1.5-1.7-1.6Z" transform="translate(-15.8 -21.5)" fill="#fafafa"/><path d="M184.4,192.6a1.8,1.8,0,0,1-.9.4c-1.6.2-2.5-2.5-4-2s-.9.9-1.5.9-1.2-.6-1.8-.8-2.3.4-3.5.5-3-.8-4,.1-.6,1-1.1,1.1a4,4,0,0,1-1.5-.3c-1.4-.5-2.8.9-4.3,1.2s-3.8-.9-5.1.3-.8,1.1-1.4,1.2-1.1-.2-1.7-.2-2.5,1.8-3.7,1.1a1.8,1.8,0,0,0,1.5,1.1,6.2,6.2,0,0,0,1.9-.2c3.7-.4,7.6,2,11.2,1a17.1,17.1,0,0,1,3-.9c1.9-.2,3.7,1.4,5.7,1.3s2.9-1.1,4.4-.9,2.7,1.5,4.1,2.2a9.4,9.4,0,0,0,5.5.3h.5a32.2,32.2,0,0,0,1.9-7.4A5.9,5.9,0,0,0,184.4,192.6Z" transform="translate(-15.8 -21.5)" fill="#fafafa"/><path d="M180.1,225.2a4.2,4.2,0,0,0-2.1.8,3.1,3.1,0,0,1-2,.7c-1.4-.1-2.6-1.8-3.7-1.1a7.1,7.1,0,0,0-.9.7c-.8.7-2.1.5-2.8,1.2s-.7,1-1.2,1.2-1.8-.6-2.7-1.1-3.1.4-4.8.4a6.5,6.5,0,0,0-2.4,0l-1.1.8c-1.2.8-2.8.4-4.2-.1s-2.8-1.3-4.3-1-.8.4-.8.8a.6.6,0,0,0,.1.4,6.7,6.7,0,0,0,4.1,2.6,18.9,18.9,0,0,1,5.2,1.8c1,.6,2,1.4,3.1,1.1s1.4-1.1,2.3-1.4,2.6.3,3.8-.2a6,6,0,0,0,1.1-.6c1-.4,2.2.4,3.3.2l1.2-.3c1,0,1.7,1.4,2.7,1.2s1.1-.7,1.7-.8,1.8.7,2.4.2l.5-.4c.3,0,.4.3.6.5s3,.4,4.1-.1l-.7-6.5C182.6,225.4,180.8,225.2,180.1,225.2Z" transform="translate(-15.8 -21.5)" fill="#fafafa"/><g opacity="0.3"><path d="M134.2,172.4a16.7,16.7,0,0,0-.4,9.9c.5,1.5,1.3,2.9,1.9,4.3a31.5,31.5,0,0,1,2.7,15.4,1.3,1.3,0,0,0,.1.6c.2.3.7.2,1.1,0l2.4-1.1c1.1.9,1.2,2.6,2.4,3.2s2.7,0,3.9-.9a20.8,20.8,0,0,0,6.4-6.8,25.7,25.7,0,0,0,2-6.1,54.1,54.1,0,0,0,1.2-5.5,31.5,31.5,0,0,0-4.5-21.4" transform="translate(-15.8 -21.5)"/></g><path d="M185.3,175.3a.4.4,0,0,1,.1.3l.3.8c.3.7.6,1.8,1,3.1l1.4,4.5a26.4,26.4,0,0,1,1.4,5.7,16.3,16.3,0,0,1-.3,5.9,32.7,32.7,0,0,1-1.3,4.6c-.5,1.3-1,2.3-1.3,3l-.3.8-.2.3a.4.4,0,0,0,.1-.3l.3-.8,1.2-3c.4-1.3.9-2.9,1.3-4.6a18.6,18.6,0,0,0,.2-5.8,29.9,29.9,0,0,0-1.3-5.7l-1.4-4.6c-.4-1.3-.7-2.3-.9-3.1a3.1,3.1,0,0,1-.2-.8Z" transform="translate(-15.8 -21.5)" fill="#1a2e35"/><g opacity="0.3"><path d="M190,191.4a12.2,12.2,0,0,0-.3-8,27.3,27.3,0,0,0-3.7-7.2c.7,5.1,3.1,10,3.5,15.1" transform="translate(-15.8 -21.5)"/></g><g opacity="0.3"><path d="M146.6,224.3a20.9,20.9,0,0,1,8.9-6.9,38.7,38.7,0,0,1,11.1-2.9,6.6,6.6,0,0,1,4.4.3c1.3.8,1.9,2.9.8,3.8a4.1,4.1,0,0,1-2.2.7c-5.2.4-10.7.4-15.3,3-1.7,1.1-3.3,2.5-5.3,3.2s-2.2.1-2.3-.8" transform="translate(-15.8 -21.5)"/></g><path d="M173.3,213.8h-4.6l-1.1.2-1.1.2-2.6.5a56.1,56.1,0,0,0-5.7,2,45.2,45.2,0,0,0-5.4,2.8l-2.2,1.4-1.9,1.3-1.5,1.1-1.1.9c-.3.3-.6.4-.7.6l-.3.2.2-.2.7-.7,1.1-.9,1.5-1.2,1.9-1.3,2.2-1.5a45.3,45.3,0,0,1,5.4-2.7,39.1,39.1,0,0,1,5.7-2l2.6-.6h1.2l1.1-.2h4.2C173.2,213.7,173.3,213.7,173.3,213.8Z" transform="translate(-15.8 -21.5)" fill="#1a2e35"/><g opacity="0.3"><path d="M129.1,184.8a8.5,8.5,0,0,0-.9,6.8,22,22,0,0,0,3,6.4,21,21,0,0,0-.5-6.1c-.6-2.4-1.6-4.7-1.6-7.1" transform="translate(-15.8 -21.5)"/></g><path d="M167.9,111.2c0-1.7,2-2.9,3.7-2.6a5.9,5.9,0,0,1,3.9,3.2c.8,1.5,1.1,3.2,1.8,4.9,1.6,4.4,4.8,8.1,6,12.6a19.9,19.9,0,0,1-.3,9.7,43,43,0,0,1-3.9,9.1,32.2,32.2,0,0,0-2.5,5.3,9.9,9.9,0,0,0-.2,5.9.8.8,0,0,1-1,1.1,5.6,5.6,0,0,1-3.7-4.6,10.4,10.4,0,0,1,.9-6c.7-1.9,1.6-3.8,2.2-5.8,1.2-4.3.3-8.9.1-13.4a47.7,47.7,0,0,0-.5-7.6,9.9,9.9,0,0,0-3.8-6.4,22,22,0,0,1-2.5-1.7,2.2,2.2,0,0,1-.4-2.7" transform="translate(-15.8 -21.5)" fill="#1a2e35"/><path d="M169.7,161.7v-2.6s7.8-1.5,9.2-11.7c.7-5.1.2-13.4-.4-20.2s-4.7-13.6-10.8-12.8l-19,5.3c-1.8.2-2.4,1.8-2.3,3.7l-.2.8,1.6,29.3.6,4.8c.2,5.6,5.1,11.4,11,11.6h0C165.1,170.2,169.8,167.8,169.7,161.7Z" transform="translate(-15.8 -21.5)" fill="#ffbf9d"/><path d="M174.9,133.8c.1.6-.5,1.2-1.2,1.3a1.3,1.3,0,0,1-1.4-1.1,1.5,1.5,0,0,1,1.3-1.4A1.2,1.2,0,0,1,174.9,133.8Z" transform="translate(-15.8 -21.5)" fill="#1a2e35"/><path d="M176.7,131.8c-.2.2-1.2-.5-2.6-.5s-2.4.8-2.6.6.1-.4.5-.7a3.3,3.3,0,0,1,2.1-.7,4,4,0,0,1,2.1.6C176.6,131.4,176.8,131.7,176.7,131.8Z" transform="translate(-15.8 -21.5)" fill="#1a2e35"/><path d="M163,134.4c-.2.2-1.2-.5-2.6-.5s-2.4.8-2.6.6.1-.3.5-.7a3.7,3.7,0,0,1,4.2-.1C162.9,134.1,163.1,134.4,163,134.4Z" transform="translate(-15.8 -21.5)" fill="#1a2e35"/><path d="M168.2,142.4l2.3-.4c.4-.1.7-.1.8-.4s-.1-.6-.3-1.1l-1.1-2.7a49.4,49.4,0,0,1-2.6-7.1c.2,0,1.6,3,3.2,6.9.3,1,.7,1.9,1,2.7a2.2,2.2,0,0,1,.3,1.4,1.2,1.2,0,0,1-.6.6h-3Z" transform="translate(-15.8 -21.5)" fill="#1a2e35"/><path d="M169.6,159.1a26,26,0,0,1-13.7-3.3s3.6,7.1,13.8,5.9Z" transform="translate(-15.8 -21.5)" fill="#ff9a6c"/><path d="M162.9,130.9c-.1.4-1.5.1-3.2.2s-3,.5-3.2.1.1-.5.7-.9a5.3,5.3,0,0,1,2.4-.6,4.7,4.7,0,0,1,2.5.4C162.7,130.4,163,130.7,162.9,130.9Z" transform="translate(-15.8 -21.5)" fill="#1a2e35"/><path d="M176.5,127.5c-.3.3-1.5,0-2.9,0s-2.5.3-2.8,0,.1-.5.6-.8a3.7,3.7,0,0,1,2.3-.6,4.4,4.4,0,0,1,2.2.6C176.4,127,176.6,127.3,176.5,127.5Z" transform="translate(-15.8 -21.5)" fill="#1a2e35"/><path d="M167.2,145.4a2.4,2.4,0,0,0-1.8-.9,3,3,0,0,0-2,1h-.1a2.1,2.1,0,0,0-.3.7,1.9,1.9,0,0,0,.8,1.7,2.6,2.6,0,0,0,2.9.1A2,2,0,0,0,167.2,145.4Z" transform="translate(-15.8 -21.5)" fill="#ff9a6c"/><path d="M163.5,144c.1,0,.2.4.4.8a3.1,3.1,0,0,0,3.2,1.9h.9a1.7,1.7,0,0,1-.9.4,3.2,3.2,0,0,1-2.2-.4,2.6,2.6,0,0,1-1.3-1.7A1.9,1.9,0,0,1,163.5,144Z" transform="translate(-15.8 -21.5)" fill="#1a2e35"/><path d="M169.9,114.6a3.2,3.2,0,0,0,1.1,2.7,15.1,15.1,0,0,0,2.6,1.8c2.7,1.7,4,5.4,5.3,8.3,2.3-4.2-1.2-9.8-4-13.1a6.9,6.9,0,0,0-1.8-1.6,3.1,3.1,0,0,0-2.3-.1" transform="translate(-15.8 -21.5)" fill="#1a2e35"/><path d="M178.9,148.6a.4.4,0,0,0,.1-.3c.1-.3.3-.7.4-1.1s.8-2.3,1.2-4a40.3,40.3,0,0,0,.8-13.5,35.4,35.4,0,0,0-1.8-7.3,12.9,12.9,0,0,0-3.4-5,9.5,9.5,0,0,0-3.6-2,5.3,5.3,0,0,0-1.5-.3h.4l1.1.2a8.7,8.7,0,0,1,3.7,1.9,11.6,11.6,0,0,1,3.5,5.1,26.9,26.9,0,0,1,1.8,7.3,36.6,36.6,0,0,1-.8,13.7,21.9,21.9,0,0,1-1.3,3.9,6.6,6.6,0,0,1-.4,1.1Z" transform="translate(-15.8 -21.5)" fill="#375a64"/><path d="M179.8,156h0v-.4a7.6,7.6,0,0,1,1-6.6c.9-2.1,2.7-4.2,4.4-6.6a17.6,17.6,0,0,0,2.1-4.1,13.2,13.2,0,0,0,.6-4.9,12.7,12.7,0,0,0-1.4-4.8,16.8,16.8,0,0,0-2.7-3.7c-2-2.2-4-4.1-5.3-5.9a12.6,12.6,0,0,1-2.2-4.9,5.5,5.5,0,0,1-.2-1.9c.1,0,0,.7.3,1.9a11.1,11.1,0,0,0,2.3,4.7,65.2,65.2,0,0,0,5.3,5.9,18.7,18.7,0,0,1,2.8,3.8,14.9,14.9,0,0,1,1.4,4.8,14.3,14.3,0,0,1-.6,5.1,22.7,22.7,0,0,1-2.2,4.1c-1.7,2.5-3.5,4.5-4.5,6.6a11.6,11.6,0,0,0-1.3,5.1C179.6,155.3,179.9,156,179.8,156Z" transform="translate(-15.8 -21.5)" fill="#1a2e35"/><path d="M168.3,109.2a10.2,10.2,0,0,0-6.2-1.4c-5.7,0-11.6,2.2-15.4,6.5s-8.1,10.6-9,15.4c-2.2,11.6,5.1,14.8-.9,32.9-1,3.3-2.4,6.5-3.1,9.9a21.9,21.9,0,0,0-.3,3.6,9.7,9.7,0,0,0,.6,6.7c1,2.5,2.6,4.7,3.5,7.2s3.2,6.6,1.7,8.9c2-.6,2.1-2.7,3.7-4a10.3,10.3,0,0,1,0,5.5,11.5,11.5,0,0,0,6.7-2.8c3.8-3.3,5-8.6,5.5-13.5a81,81,0,0,0-2.8-31.7h-.1c-2-6.7-6-12.9-2.4-14.4,6.1-2.6.5-5.3,2.8-11.8.8-2,1.6-4.1,3.3-5.4s4.9-1.5,7.4-1.6,5.5-.8,6.7-3.1l.2-1.4C171.1,112.9,170,110.5,168.3,109.2Z" transform="translate(-15.8 -21.5)" fill="#1a2e35"/><path d="M140.4,152.2c0-.1.3-.1.5-.5a2.9,2.9,0,0,0,.3-1.8,24,24,0,0,0-2-6.5,23.9,23.9,0,0,1-1.4-4.5,10.4,10.4,0,0,1,.4-5.5,10.5,10.5,0,0,1,3.7-4.7c1.7-1.3,4.1-1.5,5.6-3.2s2.1-3.7,2.8-5.7a13.6,13.6,0,0,1,1.1-2.8,11,11,0,0,1,1.5-2.6,12.7,12.7,0,0,1,4-3.7,7.6,7.6,0,0,1,2.2-1.1l2.3-.3a12.3,12.3,0,0,1,3.8,1l2.7,1.2a5.1,5.1,0,0,1,1.5,1.2l.3.6-.4-.6a4.5,4.5,0,0,0-1.4-1.1l-2.7-1.2a13.3,13.3,0,0,0-3.8-.9l-2.2.3a11.3,11.3,0,0,0-2.2,1.1,13.6,13.6,0,0,0-3.9,3.7,10.4,10.4,0,0,0-1.5,2.5c-.4.9-.7,1.8-1.1,2.8a14.2,14.2,0,0,1-2.8,5.8,7.1,7.1,0,0,1-2.8,1.8,12.2,12.2,0,0,0-2.8,1.4,9.4,9.4,0,0,0-3.6,4.6,9.8,9.8,0,0,0-.4,5.3,18.4,18.4,0,0,0,1.3,4.5,34.9,34.9,0,0,1,2,6.6,2.8,2.8,0,0,1-.5,1.8l-.3.4Z" transform="translate(-15.8 -21.5)" fill="#375a64"/><path d="M149.4,139a3,3,0,0,0-4.4-2.5c-1,.7-1.8,1.9-1.6,4.2.4,6.1,6.5,4.5,6.5,4.3S149.6,141.5,149.4,139Z" transform="translate(-15.8 -21.5)" fill="#ffbf9d"/><path d="M147.8,142.8l-.2.2h-.8a2.6,2.6,0,0,1-1.4-2.3,2.5,2.5,0,0,1,.2-1.5,1.1,1.1,0,0,1,.7-.9.6.6,0,0,1,.7.3c.1.1,0,.2.1.3a.5.5,0,0,0,0-.4.8.8,0,0,0-.2-.4h-.6a1.6,1.6,0,0,0-1.1,1,3.5,3.5,0,0,0-.2,1.8,2.7,2.7,0,0,0,1.7,2.5,1.1,1.1,0,0,0,.9-.2C147.8,142.9,147.9,142.8,147.8,142.8Z" transform="translate(-15.8 -21.5)" fill="#ff9a6c"/><path d="M150.2,147v.3a3.3,3.3,0,0,1-.6.8,1.7,1.7,0,0,1-1.4.1A1.8,1.8,0,0,1,147,147a3.2,3.2,0,0,1-.1-1.7,3.4,3.4,0,0,1,.6-1.2,1.7,1.7,0,0,1,1.1-.6c.1.1-.4.2-.9.7a3.3,3.3,0,0,0-.5,1.2,2.6,2.6,0,0,0,.1,1.5,2.2,2.2,0,0,0,1,1.1,1.2,1.2,0,0,0,1.2-.1l.6-.6C150.1,147.1,150.1,147,150.2,147Z" transform="translate(-15.8 -21.5)" fill="#fff"/><path d="M168.7,115.5a15.4,15.4,0,0,0-1.3-1.1,6.9,6.9,0,0,0-4.4-.9,9.1,9.1,0,0,0-3.1.9,11.7,11.7,0,0,0-2.9,2.2,19.9,19.9,0,0,0-2.4,3.3c-.8,1.2-1.4,2.5-2.1,3.8l-2.2,3.9a20.8,20.8,0,0,1-2.7,3.2l-2.6,2.5a15.1,15.1,0,0,0-2,2.6,7,7,0,0,0-.8,4.4,10.2,10.2,0,0,0,.7,1.6l-.3-.4-.5-1.1a6.8,6.8,0,0,1,.7-4.6,12.1,12.1,0,0,1,2-2.6,33.8,33.8,0,0,1,2.7-2.6,16.1,16.1,0,0,0,2.5-3.2c.8-1.2,1.5-2.5,2.2-3.8l2.1-3.9a20.9,20.9,0,0,1,2.5-3.2,12,12,0,0,1,3-2.3,9.8,9.8,0,0,1,3.1-.9,7.1,7.1,0,0,1,4.6,1l.9.9Z" transform="translate(-15.8 -21.5)" fill="#375a64"/><path d="M122.4,182l1.2-5.5-10.5-4.8-.3.9c-1.5,5-9,29.1-9.5,30.9-1.6,6.7-1.3,19.9,1.4,22.4a12.9,12.9,0,0,0,8.9,3.1c2.7-.3,10.2-9.9,10.2-9.9l6.9-21.9Z" transform="translate(-15.8 -21.5)" fill="#ffbf9d"/><path d="M122.9,178.7a1.8,1.8,0,0,1-.1.5,7.4,7.4,0,0,1-.2,1.2c-.2,1.1-.4,2.6-.8,4.4s-.7,4.2-1,6.7a50.9,50.9,0,0,0-.7,8.1,35.5,35.5,0,0,0,.9,8.2,23.9,23.9,0,0,1,1.1,6.6,8.6,8.6,0,0,1-1.1,4.4,4.1,4.1,0,0,1-1.1,1.2,4.7,4.7,0,0,0,1-1.3,9,9,0,0,0,1-4.3,25.2,25.2,0,0,0-1.1-6.6,34.1,34.1,0,0,1-1-8.2c.1-2.9.4-5.7.7-8.2l1.1-6.6.9-4.4.3-1.3A1,1,0,0,1,122.9,178.7Z" transform="translate(-15.8 -21.5)" fill="#ff9a6c"/><path d="M133.8,167.4l-2.1-2.3v-2.7l-2.1-3-4.2.7h-1.3l.9-6.2a27.3,27.3,0,0,1,1.9-4.5,3.2,3.2,0,0,0-1-4.4l-4.5,7.9-1.5,5.3-.6-4.3a31.6,31.6,0,0,0,.6-6.3,1.9,1.9,0,0,0-2.2-1.9l-1.7,9.5V160l-1.5-2.8s-.4-2.4-.6-4.5-1.9-1.5-1.9-1.5v7l1.9,6.4s-1.2,8.3-1.4,8.6l9.9,7a16.3,16.3,0,0,1,2.6-1.8c.4-.1,5.8-4.1,5.8-4.1l3.7-3.9s.6-.5.6-.9A9.6,9.6,0,0,0,133.8,167.4Zm-5.2,2.5-2.1-.9-1.2-2.9.9-1.6.3-.6.4-.2,1.4.2a12,12,0,0,1,.5,3c-.1,1,1.2,2,1.2,2Z" transform="translate(-15.8 -21.5)" fill="#ffbf9d"/><path d="M126.9,163.7h-.5a2,2,0,0,1-1-.7,1.6,1.6,0,0,1-.5-1c0-.4,0-.5.1-.5a7.1,7.1,0,0,0,.6,1.4C126.1,163.4,126.9,163.6,126.9,163.7Z" transform="translate(-15.8 -21.5)" fill="#ff9a6c"/><path d="M132.4,169.2a3.2,3.2,0,0,1,0-1.5,4.6,4.6,0,0,1,.1-1.6,3.5,3.5,0,0,1,.2,1.6A4.3,4.3,0,0,1,132.4,169.2Z" transform="translate(-15.8 -21.5)" fill="#ff9a6c"/><path d="M129.1,173.3l-.6-.6a2.7,2.7,0,0,1-.6-1.9l.3-.6.4-.4.7-.5.7-.4-.6.5-.6.6a.8.8,0,0,0-.4.4.5.5,0,0,0-.2.4,3.4,3.4,0,0,0,.1,1,2,2,0,0,0,.4.8A7.8,7.8,0,0,1,129.1,173.3Z" transform="translate(-15.8 -21.5)" fill="#ff9a6c"/><path d="M131.7,164.9a3,3,0,0,1-.7,2.2c-.2.2-.4.5-.7.6a1.1,1.1,0,0,1-.8,0c-.5-.1-.6-.4-.6-.4s.2.2.6.2a.9.9,0,0,0,.7-.1l.6-.5A13.7,13.7,0,0,0,131.7,164.9Z" transform="translate(-15.8 -21.5)" fill="#ff9a6c"/><path d="M128.8,166.8l-.5-2.1-.3-1.5c0-.4,0-.7.1-.7a2.1,2.1,0,0,0,.1.6,11.3,11.3,0,0,1,.4,1.5A4.7,4.7,0,0,1,128.8,166.8Z" transform="translate(-15.8 -21.5)" fill="#ff9a6c"/><path d="M132.4,169.9a5.6,5.6,0,0,1-2.4-.9,1.9,1.9,0,0,1-.8-.7,1.3,1.3,0,0,1-.4-.7,1.7,1.7,0,0,1,0-.8c.1,0,.1.3.2.7a2.6,2.6,0,0,0,1.1,1.3C131.3,169.5,132.4,169.8,132.4,169.9Z" transform="translate(-15.8 -21.5)" fill="#ff9a6c"/><path d="M123.5,172.2a11.5,11.5,0,0,0-2.3-2.9,12.4,12.4,0,0,0-3.3-1.9,2.7,2.7,0,0,1,1.1.3,7.7,7.7,0,0,1,2.4,1.4,7.4,7.4,0,0,1,1.7,2.1C123.4,171.8,123.6,172.2,123.5,172.2Z" transform="translate(-15.8 -21.5)" fill="#ff9a6c"/><path d="M120,162.2a14.3,14.3,0,0,1-1.7.5c-.9.3-1.6.8-1.7.7a3.7,3.7,0,0,1,1.6-1A4.7,4.7,0,0,1,120,162.2Z" transform="translate(-15.8 -21.5)" fill="#ff9a6c"/><path d="M137.2,281.7l-33.1,9.2c-1.9.7-1.6,7.7,1.4,7.6,1.4,0,24.4.9,27.3.7s10.7-3.3,10.7-3.3Z" transform="translate(-15.8 -21.5)" fill="#375a64"/><path d="M123.9,293.8a15.6,15.6,0,0,0-1.4-3.4,24.2,24.2,0,0,0-2.2-2.9,6.5,6.5,0,0,1,2.7,2.6C124.1,292,124.1,293.8,123.9,293.8Z" transform="translate(-15.8 -21.5)" fill="#1a2e35"/><path d="M127.2,292.3c-.1.1-.4-1.5-1.3-3.1s-1.8-2.8-1.7-2.9a5.9,5.9,0,0,1,2.2,2.6C127.3,290.7,127.4,292.3,127.2,292.3Z" transform="translate(-15.8 -21.5)" fill="#1a2e35"/><path d="M130.4,291.5c-.2,0-.1-1.6-.8-3.4a26.7,26.7,0,0,0-1.7-2.9c0-.2,1.5.8,2.2,2.7A5.1,5.1,0,0,1,130.4,291.5Z" transform="translate(-15.8 -21.5)" fill="#1a2e35"/><path d="M129.8,287.4a6.4,6.4,0,0,1-.4-2.4,15.1,15.1,0,0,1,.4-2.6,10.3,10.3,0,0,1,.4-1.4,1.6,1.6,0,0,1,.6-.8.8.8,0,0,1,1,0,2,2,0,0,1,.5.9v.9a7.7,7.7,0,0,1-.2,1.5,8.2,8.2,0,0,1-1,2.5,6.7,6.7,0,0,1-1.4,1.9c-.1-.1.5-.8,1.1-2.1a13.5,13.5,0,0,0,.8-2.4,5.9,5.9,0,0,0,.2-1.4,2.1,2.1,0,0,0-.3-1.4c-.2-.1-.3-.1-.4,0a.9.9,0,0,0-.4.6c-.2.4-.3.9-.5,1.4s-.3,1.7-.4,2.4S129.9,287.4,129.8,287.4Z" transform="translate(-15.8 -21.5)" fill="#1a2e35"/><path d="M129.8,287.1a3.7,3.7,0,0,1,2.1-.4l2.2.3a3.5,3.5,0,0,1,1.3.5,1.3,1.3,0,0,1,.8,1.4,2,2,0,0,1-1.2,1.2h-1.4a6.9,6.9,0,0,1-2.1-1,8.5,8.5,0,0,1-1.5-1.5c.1-.1.7.5,1.7,1.1a6.1,6.1,0,0,0,2,.9h1.2a1.1,1.1,0,0,0,.7-.8.9.9,0,0,0-.4-.9l-1.2-.4-2.1-.4A11.6,11.6,0,0,0,129.8,287.1Z" transform="translate(-15.8 -21.5)" fill="#1a2e35"/><path d="M119.1,294.2c-.2-.1-.1-1.4-.7-2.9a19.8,19.8,0,0,0-1.5-2.5,4,4,0,0,1,2,2.3A4,4,0,0,1,119.1,294.2Z" transform="translate(-15.8 -21.5)" fill="#1a2e35"/><path d="M141.2,295.6l-1.2.6a21,21,0,0,1-3.5,1.1,51.7,51.7,0,0,1-12.2,1.2l-12.1-.4-3.7-.2c-.9-.1-1.4-.1-1.4-.2h5.1l12.1.2a52.1,52.1,0,0,0,12.1-1C139.4,296.3,141.2,295.5,141.2,295.6Z" transform="translate(-15.8 -21.5)" fill="#1a2e35"/><path d="M142.2,296.4l-2.4-1.1a11,11,0,0,0-6-1c-2.4.3-4.1,2-5.2,3.1s-1.8,1.9-1.9,1.8a20.5,20.5,0,0,1,1.6-2.1,13.7,13.7,0,0,1,2.1-2,7,7,0,0,1,3.3-1.3,10.5,10.5,0,0,1,6.2,1.1A8.7,8.7,0,0,1,142.2,296.4Z" transform="translate(-15.8 -21.5)" fill="#1a2e35"/><path d="M110.3,297.7c-.1,0,.2-.4.4-1.2a5.6,5.6,0,0,0,.3-3,6.2,6.2,0,0,0-1.3-2.7,6.1,6.1,0,0,0-.9-.9c.1-.1.5.1,1.1.7a5.3,5.3,0,0,1,1.5,2.9,5,5,0,0,1-.4,3.1C110.7,297.4,110.3,297.8,110.3,297.7Z" transform="translate(-15.8 -21.5)" fill="#1a2e35"/><path d="M134.1,236.8l-5.7,14.1s-28.4-10.4-45-7.4c-6.3,1.2-13.1,15.5-3.9,24.7s25,21.7,55.2,25.8c.7.1,13.1,2.7,12.3,2.7l17.3,2.7,4.2-16,33.7,5.3c19.8-1.4,29.5-22.6,17.6-29.4s-32.1-6.9-32.1-6.9l-5.1-14Z" transform="translate(-15.8 -21.5)" fill="#1a2e35"/><path d="M165,300c.1-.5.3-2,.8-5s.6-3.5,1-5.8.5-2.3.7-3.6.3-1.2.5-1.9l.3-1,.6-1v.3c-7.2-2.6-16.1-5.9-25.7-10-5.8-2.5-11.4-5-16.2-7.6a47.7,47.7,0,0,1-6.7-4.1l-5.4-4.2a28.3,28.3,0,0,0-8.5-5l-1.5-.4-1.1-.3h-.9c0-.1.1,0,.3,0h.7l1.1.2,1.5.4a20.1,20.1,0,0,1,3.9,1.7,43.9,43.9,0,0,1,4.7,3.2c1.6,1.2,3.4,2.7,5.4,4.1a46.4,46.4,0,0,0,6.6,4.1c4.9,2.6,10.4,5.1,16.3,7.6,9.5,4,18.5,7.4,25.6,10h0l-.4.9-.3,1c-.2.6-.3,1.3-.5,1.9s-.5,2.4-.8,3.6-.8,4.1-1,5.7-.6,2.8-.7,3.7a5.8,5.8,0,0,0-.2,1A.8.8,0,0,0,165,300Z" transform="translate(-15.8 -21.5)" fill="#375a64"/><path d="M213.3,261.2h-.7l-2.1-.3a39.4,39.4,0,0,0-7.4-.3,61.6,61.6,0,0,0-10.9,1.8c-2.1.6-4.2,1.2-6.3,2s-4.4,1.6-6.6,2.5a58.2,58.2,0,0,1-6.7,2.2,57.1,57.1,0,0,1-6.4,1.4c-4.1.9-7.9,1.3-11,1.7l-7.5.9-2,.2h0l2-.3,7.4-.9c3.2-.4,6.9-1,11-1.8l6.4-1.5a65.3,65.3,0,0,0,6.7-2.2l6.6-2.5c2.1-.7,4.2-1.4,6.3-1.9a53.8,53.8,0,0,1,11-1.7,32.7,32.7,0,0,1,7.5.4l2,.3.5.2Z" transform="translate(-15.8 -21.5)" fill="#375a64"/><path d="M161.4,255.4c0,.3-1.5.7-4,.9a55.3,55.3,0,0,1-9.9-.1,48.1,48.1,0,0,1-9.7-2c-2.4-.8-3.8-1.5-3.7-1.7s6.1,1.1,13.6,1.9S161.4,254.9,161.4,255.4Z" transform="translate(-15.8 -21.5)" fill="#1a2e35"/><path d="M188,252.6l-1.1.3-1.3.4-1.7.5a42.1,42.1,0,0,0-4.3,1.7,35.4,35.4,0,0,0-5,2.7,69.5,69.5,0,0,0-8.4,5.9l-2.4,2-.9.7c-.1-.1.2-.3.8-.8a16.9,16.9,0,0,1,2.3-2.1,81,81,0,0,1,8.4-6.1c1.8-1,3.5-1.9,5.1-2.6l4.3-1.7,1.8-.4,1.3-.3Z" transform="translate(-15.8 -21.5)" fill="#375a64"/><path d="M156.5,266.8l-2-.6a41,41,0,0,1-4.6-2.1l-4.4-2.3-1.8-1,1.9.8,4.5,2.2,4.5,2.2A20,20,0,0,1,156.5,266.8Z" transform="translate(-15.8 -21.5)" fill="#375a64"/><path d="M159.5,237.6a21.9,21.9,0,0,1-.1,3.4c-.1,2.1-.2,5-.2,8.2s.3,6,.4,8.1a25.4,25.4,0,0,1,.3,3.4l-.2-.9c-.1-.6-.2-1.4-.3-2.5s-.5-4.9-.5-8.1.1-6.1.2-8.2.2-1.9.3-2.5A6.2,6.2,0,0,0,159.5,237.6Z" transform="translate(-15.8 -21.5)" fill="#375a64"/><path d="M162.7,243.2l-.3.3a1.3,1.3,0,0,0-.4,1,1.7,1.7,0,0,0,.4,1.5,1.7,1.7,0,0,0,1.8.4,1.8,1.8,0,0,0,1.2-1.5,2.1,2.1,0,0,0-.7-1.4,1.9,1.9,0,0,0-1-.5h0a2.8,2.8,0,0,1,1.2.5,2.1,2.1,0,0,1,.8,1.6,2.1,2.1,0,0,1-3.6,1.3,2.2,2.2,0,0,1-.4-1.7,1.9,1.9,0,0,1,.6-1.1C162.5,243.2,162.7,243.1,162.7,243.2Z" transform="translate(-15.8 -21.5)" fill="#375a64"/><path d="M168.7,282.9l33.6,5.2c2,.5,2.5,7.4-.5,7.6-1.4.2-23.9,3.8-26.7,3.9s-11.9-2.2-11.9-2.2Z" transform="translate(-15.8 -21.5)" fill="#375a64"/><path d="M183.2,293.3a16,16,0,0,1,.9-3.5c.8-1.9,2-3,1.9-3.2a5.6,5.6,0,0,0-2.3,3C182.8,291.5,183,293.3,183.2,293.3Z" transform="translate(-15.8 -21.5)" fill="#1a2e35"/><path d="M179.7,292.2c.2,0,.3-1.5,1-3.2s1.5-3,1.3-3.1a5.7,5.7,0,0,0-1.8,2.9A6.3,6.3,0,0,0,179.7,292.2Z" transform="translate(-15.8 -21.5)" fill="#1a2e35"/><path d="M176.6,291.8a13.4,13.4,0,0,1,.3-3.4,21.3,21.3,0,0,1,1.4-3.1c-.1-.2-1.4,1-1.9,2.9A5.3,5.3,0,0,0,176.6,291.8Z" transform="translate(-15.8 -21.5)" fill="#1a2e35"/><path d="M176.7,287.7a7.5,7.5,0,0,0,0-2.4,14.9,14.9,0,0,0-.6-2.5l-.6-1.4c-.2-.2-.3-.5-.6-.7a.9.9,0,0,0-1.1.2,1.1,1.1,0,0,0-.3.9v.8a15.5,15.5,0,0,0,.4,1.5,8.2,8.2,0,0,0,1.3,2.3c.8,1.2,1.6,1.8,1.6,1.7a20.7,20.7,0,0,0-1.3-1.9,9,9,0,0,1-1.1-2.2,3.5,3.5,0,0,1-.3-1.4c-.1-.5-.2-1.1.1-1.4h.4a1.5,1.5,0,0,1,.4.6,3.1,3.1,0,0,1,.6,1.3,8,8,0,0,1,.7,2.4C176.6,286.8,176.6,287.7,176.7,287.7Z" transform="translate(-15.8 -21.5)" fill="#1a2e35"/><path d="M176.6,287.4c0-.1-.8-.3-2.1-.1a6.8,6.8,0,0,0-2.2.5l-1.2.6a1.2,1.2,0,0,0-.5,1.5,1.5,1.5,0,0,0,1.3,1,2.3,2.3,0,0,0,1.4-.2,6.9,6.9,0,0,0,1.9-1.2c.9-.9,1.3-1.6,1.2-1.6l-1.5,1.3a7.8,7.8,0,0,1-1.8,1.1,2.5,2.5,0,0,1-1.2.1,1,1,0,0,1-.8-.6,1,1,0,0,1,.3-1l1.1-.5a12.8,12.8,0,0,1,2.1-.7Z" transform="translate(-15.8 -21.5)" fill="#1a2e35"/><path d="M188,293.1c.2-.1-.2-1.4.3-2.9s1.3-2.5,1.2-2.7a3.8,3.8,0,0,0-1.7,2.5A4,4,0,0,0,188,293.1Z" transform="translate(-15.8 -21.5)" fill="#1a2e35"/><path d="M166.4,297.1l1.3.4a28.6,28.6,0,0,0,3.6.7,49.6,49.6,0,0,0,12-.3c4.7-.6,8.9-1.3,11.9-1.8l3.6-.6,1.3-.3h-1.3l-3.6.4-11.9,1.7a56.4,56.4,0,0,1-12,.4C168.3,297.6,166.4,297,166.4,297.1Z" transform="translate(-15.8 -21.5)" fill="#1a2e35"/><path d="M165.6,297.9c0,.1.8-.5,2.2-1.3a10.5,10.5,0,0,1,5.8-1.7,9.7,9.7,0,0,1,5.4,2.4,22.4,22.4,0,0,1,2,1.7c.1-.1-.5-.9-1.7-2a15.2,15.2,0,0,0-2.3-1.6,6.5,6.5,0,0,0-3.4-1,9.9,9.9,0,0,0-6,1.9A7,7,0,0,0,165.6,297.9Z" transform="translate(-15.8 -21.5)" fill="#1a2e35"/><path d="M187.2,201.9c-.1.8-.5,22.3.8,24.3s8.5,8.6,12.5,7.1c6.6-2.4,8.1-16.3,8-13.7l-5.2-43.9h-10l-.9,15.7-2.9,1.8a34.5,34.5,0,0,1-1.1,5.4Z" transform="translate(-15.8 -21.5)" fill="#ffbf9d"/><path d="M193.3,175.7s-4-4-4-4.8-1.6-1.4-1.6-1.4l-2.5-1.3s-1.7-1.5-1.3-2.4a2.4,2.4,0,0,1,1.1-1.2s.1-2.1,1.7-2.7c0,0-1.5-1.7,0-2.8s1.9-.7,1.9-.7-.2-1.3.7-1.4l7.1-1.6a11.2,11.2,0,0,1,2.5,1.6l1.2,1.3a11.1,11.1,0,0,0,1.5-2.9c.4-1.5,1-5.9,5.4-5.7v1.1a11.1,11.1,0,0,0-1.8,4.3l-1.6,8.7-.3,11.9Z" transform="translate(-15.8 -21.5)" fill="#ffbf9d"/><path d="M189.4,219.5a1.8,1.8,0,0,0-.1-.5c0-.3-.1-.7-.1-1.3a22.7,22.7,0,0,1-.1-4.7,51.7,51.7,0,0,1,.9-7c.5-2.6,1.1-5.4,1.6-8.4a108.8,108.8,0,0,0,1.2-15.6c.1-1.9.2-3.5.2-4.7a4.9,4.9,0,0,1,.1-1.3v1.3c0,1.2,0,2.8-.1,4.7a122.9,122.9,0,0,1-1.1,15.6c-.5,3.1-1.1,5.9-1.6,8.5a52.1,52.1,0,0,0-1,6.9,24.1,24.1,0,0,0,0,4.7c0,.6.1,1,.1,1.3Z" transform="translate(-15.8 -21.5)" fill="#ff9a6c"/><path d="M196.4,157.7c0,.1-.4.1-1.1.2l-2.8.3-3.9.2,3.9-.5,2.7-.2Z" transform="translate(-15.8 -21.5)" fill="#ff9a6c"/><path d="M194.5,162.4h-3.8l-2.7-.2-1.1-.3h3.8l2.7.2Z" transform="translate(-15.8 -21.5)" fill="#ff9a6c"/><path d="M193.1,166.2H192l-2.8-.6-2.7-.6-1.1-.3h1.1l2.8.6,2.7.6Z" transform="translate(-15.8 -21.5)" fill="#ff9a6c"/></svg>