<svg xmlns="http://www.w3.org/2000/svg" xmlns:xlink="http://www.w3.org/1999/xlink" viewBox="0 0 1920 2514"><defs><radialGradient id="a" cx="809.55" cy="390.67" r="1" gradientTransform="matrix(-960, 817.77, -1831.18, -2149.65, 1494485.56, 177687.87)" gradientUnits="userSpaceOnUse"><stop offset="0" stop-color="#14191d"/><stop offset="0.59" stop-color="#1a2126"/><stop offset="0.67" stop-color="#181c25"/><stop offset="1"/></radialGradient></defs><path d="M0,100S1010,0,1360,0s560,100,560,100V2514H0Z" fill="url(#a)"/><circle cx="143" cy="222" r="1" fill="#d9d9d9"/><circle cx="270" cy="969" r="1" fill="#d9d9d9"/><circle cx="301.5" cy="1451" r="1" fill="#d9d9d9"/><circle cx="769.4" cy="1372.9" r="1" fill="#d9d9d9"/><circle cx="1433.8" cy="2205.1" r="1" fill="#d9d9d9"/><circle cx="187" cy="792" r="1" fill="#d9d9d9"/><circle cx="64" cy="543" r="1" fill="#d9d9d9"/><circle cx="761" cy="876" r="1" fill="#d9d9d9"/><circle cx="209.2" cy="1858.5" r="1" fill="#d9d9d9"/><circle cx="546.5" cy="817.5" r="2.5" fill="#d9d9d9"/><circle cx="960" cy="993" r="2.5" fill="#d9d9d9"/><circle cx="1618.4" cy="1274.2" r="2.5" fill="#d9d9d9"/><circle cx="634.9" cy="1259.5" r="2.5" fill="#d9d9d9"/><circle cx="1187.9" cy="1145.5" r="2.5" fill="#d9d9d9"/><circle cx="1110.6" cy="1618.8" r="2.5" fill="#d9d9d9"/><circle cx="471.4" cy="2004.5" r="2.5" fill="#d9d9d9"/><circle cx="729.5" cy="650.5" r="2.5" fill="#d9d9d9"/><circle cx="190.5" cy="500.5" r="2.5" fill="#d9d9d9"/><circle cx="679.5" cy="417.5" r="2.5" fill="#d9d9d9"/><circle cx="340.1" cy="2341.9" r="2.5" fill="#d9d9d9"/><circle cx="734.5" cy="333.5" r="2.5" fill="#d9d9d9"/><circle cx="84.5" cy="350.5" r="2.5" fill="#d9d9d9"/><circle cx="409.5" cy="197.5" r="2.5" fill="#d9d9d9"/><circle cx="518.5" cy="995.5" r="2.5" fill="#d9d9d9"/><circle cx="604.9" cy="1691.1" r="2.5" fill="#d9d9d9"/><circle cx="805" cy="754" r="5" fill="#d9d9d9"/><circle cx="59" cy="904" r="5" fill="#d9d9d9"/><circle cx="587" cy="134" r="5" fill="#d9d9d9"/><circle cx="374" cy="759" r="5" fill="#d9d9d9"/><circle cx="922.1" cy="1333.1" r="5" fill="#d9d9d9"/><circle cx="866.8" cy="2297.4" r="5" fill="#d9d9d9"/><circle cx="1108.1" cy="1964.9" r="5" fill="#d9d9d9"/><circle cx="423.4" cy="1168" r="5" fill="#d9d9d9"/><circle cx="1060" cy="717" r="5" fill="#d9d9d9"/><circle cx="1623.4" cy="1767.9" r="5" fill="#d9d9d9"/></svg>