<svg width="103" height="30" viewBox="0 0 103 30" fill="none" xmlns="http://www.w3.org/2000/svg">
<path d="M101.556 26.4583C101.556 26.8359 101.481 27.2098 101.337 27.5586C101.192 27.9074 100.98 28.2243 100.713 28.4911C100.446 28.7579 100.128 28.9695 99.7794 29.1138C99.4304 29.258 99.0563 29.332 98.6786 29.3316H4.52607C3.76296 29.3324 3.03077 29.0302 2.49054 28.4913C1.95031 27.9525 1.64626 27.2212 1.64526 26.4583V3.54477C1.64626 2.78151 1.95019 2.04985 2.49031 1.51043C3.03044 0.971007 3.76261 0.667923 4.52607 0.667725H98.6779C99.0558 0.667725 99.43 0.742147 99.7791 0.886741C100.128 1.03134 100.445 1.24327 100.713 1.51044C100.98 1.7776 101.192 2.09477 101.336 2.44383C101.481 2.79288 101.555 3.16698 101.555 3.54477L101.556 26.4583Z" fill="white"/>
<path d="M98.6787 30H4.52608C3.58602 29.9998 2.68442 29.6268 2.01914 28.9628C1.35385 28.2988 0.979206 27.3981 0.977417 26.4583L0.977417 3.54548C0.978808 2.60519 1.3532 1.70386 2.01847 1.03919C2.68374 0.374517 3.58555 0.000793633 4.52608 0L98.6779 0C99.6183 0.00118964 100.52 0.37504 101.185 1.03962C101.85 1.70421 102.225 2.60532 102.227 3.54548V26.4583C102.228 28.4118 100.633 30 98.6787 30Z" fill="#A6A6A6"/>
<path d="M101.556 26.4583C101.556 26.8359 101.481 27.2098 101.337 27.5586C101.192 27.9074 100.98 28.2243 100.713 28.4911C100.446 28.7579 100.128 28.9695 99.7794 29.1138C99.4304 29.258 99.0563 29.332 98.6786 29.3316H4.52607C3.76296 29.3324 3.03077 29.0302 2.49054 28.4913C1.95031 27.9525 1.64626 27.2212 1.64526 26.4583V3.54477C1.64626 2.78151 1.95019 2.04985 2.49031 1.51043C3.03044 0.971007 3.76261 0.667923 4.52607 0.667725H98.6779C99.0558 0.667725 99.43 0.742147 99.7791 0.886741C100.128 1.03134 100.445 1.24327 100.713 1.51044C100.98 1.7776 101.192 2.09477 101.336 2.44383C101.481 2.79288 101.555 3.16698 101.555 3.54477L101.556 26.4583Z" fill="black"/>
<path d="M23.5856 14.8421C23.5639 12.4242 25.566 11.2479 25.6575 11.1931C24.5236 9.5404 22.7662 9.31459 22.1486 9.29659C20.6726 9.14129 19.2408 10.1796 18.4889 10.1796C17.722 10.1796 16.5641 9.31159 15.3162 9.3371C13.7103 9.36185 12.208 10.2914 11.384 11.7348C9.68363 14.6778 10.9518 19.0028 12.5809 21.3817C13.3959 22.5475 14.3481 23.8476 15.5946 23.8018C16.814 23.7523 17.2695 23.0254 18.741 23.0254C20.1991 23.0254 20.6268 23.8018 21.898 23.7726C23.2067 23.7523 24.0306 22.6022 24.817 21.4267C25.7588 20.0921 26.137 18.7762 26.152 18.7087C26.122 18.6982 23.6111 17.7394 23.5856 14.8421ZM21.1843 7.73166C21.8402 6.91168 22.2889 5.79612 22.1644 4.66406C21.2151 4.70607 20.028 5.32049 19.3443 6.12246C18.7395 6.82916 18.1992 7.98748 18.3388 9.07678C19.4051 9.1563 20.5 8.53888 21.1843 7.73166Z" fill="white"/>
<path d="M98.6786 0H48.2477L68.0006 30H98.6786C99.6189 29.9992 100.521 29.6257 101.186 28.9613C101.851 28.297 102.226 27.396 102.227 26.456V3.54548C102.226 2.60525 101.851 1.70403 101.186 1.0394C100.521 0.374779 99.6191 0.000991711 98.6786 0Z" fill="url(#paint0_linear_55_33)"/>
<path d="M41.2479 23.6345H39.5438L38.6103 20.7019H35.3655L34.4763 23.6345H32.8171L36.0326 13.6507H38.0182L41.2479 23.6345ZM38.3289 19.4716L37.4847 16.8646C37.3954 16.5983 37.2273 15.9711 36.9811 14.9838H36.9511C36.8521 15.4085 36.6937 16.0356 36.4769 16.8646L35.6469 19.4716H38.3289ZM49.5009 19.9465C49.5009 21.1708 49.1685 22.1386 48.5029 22.849C47.907 23.4814 47.1664 23.7973 46.2832 23.7973C45.3294 23.7973 44.6435 23.4574 44.227 22.7762V26.5535H42.6272V18.8016C42.6272 18.0327 42.6069 17.2442 42.5679 16.4355H43.9749L44.0642 17.5766H44.0942C44.6278 16.7168 45.4375 16.2869 46.524 16.2869C47.3735 16.2869 48.0826 16.6223 48.6499 17.2937C49.2165 17.9667 49.5009 18.8504 49.5009 19.9465ZM47.871 20.005C47.871 19.3043 47.7134 18.7266 47.3968 18.2712C47.0508 17.7979 46.5863 17.5608 46.004 17.5608C45.6093 17.5608 45.2506 17.6928 44.9302 17.9532C44.609 18.2157 44.3989 18.5586 44.3006 18.9832C44.2567 19.142 44.2318 19.3054 44.2263 19.4701V20.6712C44.2263 21.194 44.3869 21.6359 44.7081 21.9975C45.0292 22.3576 45.4465 22.5384 45.9597 22.5384C46.5623 22.5384 47.0313 22.3051 47.3667 21.8422C47.7029 21.3778 47.871 20.7657 47.871 20.005ZM57.7831 19.9465C57.7831 21.1708 57.4507 22.1386 56.7851 22.849C56.1885 23.4814 55.4486 23.7973 54.5646 23.7973C53.6109 23.7973 52.925 23.4574 52.5085 22.7762V26.5535H50.9087V18.8016C50.9087 18.0327 50.8884 17.2442 50.8494 16.4355H52.2564L52.3457 17.5766H52.3757C52.9085 16.7168 53.7182 16.2869 54.8055 16.2869C55.6542 16.2869 56.3633 16.6223 56.9322 17.2937C57.498 17.9667 57.7831 18.8504 57.7831 19.9465ZM56.1525 20.005C56.1525 19.3043 55.9941 18.7266 55.6775 18.2712C55.3315 17.7979 54.8685 17.5608 54.2862 17.5608C53.8915 17.5608 53.5328 17.6928 53.2109 17.9532C52.8897 18.2157 52.6804 18.5586 52.5821 18.9832C52.5333 19.1812 52.507 19.3425 52.507 19.4701V20.6712C52.507 21.194 52.6684 21.6359 52.988 21.9975C53.3092 22.3569 53.7264 22.5384 54.2412 22.5384C54.8445 22.5384 55.3135 22.3051 55.6482 21.8422C55.9844 21.3778 56.1525 20.7657 56.1525 20.005ZM67.0431 20.8339C67.0431 21.6839 66.746 22.3749 66.1554 22.9083C65.5055 23.4904 64.5983 23.7823 63.4352 23.7823C62.3606 23.7823 61.4991 23.5752 60.8493 23.1603L61.2192 21.8272C61.9208 22.2428 62.6915 22.4499 63.5305 22.4499C64.1338 22.4499 64.6028 22.3134 64.9375 22.0425C65.2729 21.771 65.4425 21.4079 65.4425 20.9547C65.4425 20.5489 65.3022 20.209 65.0268 19.9322C64.7499 19.6561 64.2921 19.3988 63.649 19.1625C61.9006 18.5106 61.0256 17.557 61.0256 16.3027C61.0256 15.4835 61.3348 14.8128 61.9516 14.2884C62.5684 13.7648 63.3864 13.5029 64.4039 13.5029C65.3127 13.5029 66.0698 13.6612 66.6709 13.9771L66.2694 15.2809C65.7036 14.9748 65.065 14.8218 64.3507 14.8218C63.7864 14.8218 63.3436 14.9606 63.0269 15.2367C62.7606 15.4835 62.6255 15.7843 62.6255 16.1414C62.6255 16.5353 62.7793 16.8624 63.0855 17.1189C63.3511 17.3552 63.8359 17.6126 64.5368 17.8886C65.3967 18.2352 66.0286 18.6388 66.433 19.1025C66.8405 19.5661 67.0431 20.1445 67.0431 20.8339ZM72.3462 17.6358H70.5828V21.131C70.5828 22.02 70.8934 22.4634 71.5163 22.4634C71.8022 22.4634 72.0393 22.4394 72.2269 22.3891L72.2712 23.6037C71.956 23.7215 71.541 23.7808 71.027 23.7808C70.3952 23.7808 69.9014 23.588 69.545 23.2023C69.19 22.8167 69.0114 22.1708 69.0114 21.2616V17.6328H67.9609V16.4325H69.0114V15.1144L70.5828 14.6402V16.4325H72.3462V17.6358ZM80.287 19.9757C80.287 21.0823 79.9703 21.9908 79.3385 22.7012C78.6774 23.4327 77.7979 23.7973 76.7016 23.7973C75.6435 23.7973 74.8023 23.4469 74.175 22.747C73.5476 22.0455 73.234 21.1618 73.234 20.0957C73.234 18.9802 73.5581 18.0664 74.2042 17.356C74.8518 16.6448 75.7238 16.2892 76.8201 16.2892C77.8767 16.2892 78.7254 16.6403 79.3678 17.341C79.9816 18.0207 80.287 18.8984 80.287 19.9757ZM78.6286 20.0125C78.6286 19.353 78.486 18.7874 78.2001 18.314C77.8647 17.7423 77.3844 17.4565 76.7624 17.4565C76.1215 17.4565 75.63 17.7423 75.2953 18.314C75.0087 18.7874 74.8661 19.3628 74.8661 20.0425C74.8661 20.7027 75.0087 21.2698 75.2953 21.7417C75.6413 22.3134 76.1238 22.5992 76.7489 22.5992C77.3604 22.5992 77.8399 22.3074 78.1866 21.7274C78.4808 21.2428 78.6286 20.6734 78.6286 20.0125ZM85.4896 17.8421C85.3232 17.8121 85.1544 17.7973 84.9853 17.7979C84.4225 17.7979 83.9873 18.0094 83.6811 18.4355C83.4155 18.8106 83.2819 19.2848 83.2819 19.8572V23.6345H81.682V18.7026C81.6834 17.9469 81.6679 17.1913 81.6355 16.4362H83.029L83.0875 17.8136H83.1318C83.3014 17.3402 83.567 16.9584 83.9317 16.6726C84.2655 16.4228 84.6712 16.2875 85.0881 16.2869C85.2359 16.2869 85.3695 16.2974 85.4881 16.3162L85.4896 17.8421ZM92.6447 19.6944C92.6487 19.9375 92.6291 20.1805 92.5862 20.4198H87.7866C87.8046 21.131 88.0372 21.6757 88.4829 22.0508C88.8874 22.3854 89.4104 22.5534 90.0528 22.5534C90.7634 22.5534 91.4118 22.4409 91.9948 22.2136L92.2455 23.3231C91.5641 23.6202 90.7597 23.768 89.8314 23.768C88.7148 23.768 87.8383 23.4394 87.2005 22.7837C86.5642 22.1273 86.2452 21.2451 86.2452 20.14C86.2452 19.0552 86.5416 18.1512 87.1352 17.4303C87.7565 16.6605 88.5962 16.2757 89.6528 16.2757C90.6906 16.2757 91.4763 16.6605 92.0098 17.4303C92.4323 18.0402 92.6447 18.7964 92.6447 19.6944ZM91.1191 19.2795C91.1304 18.8046 91.0253 18.3958 90.8084 18.0499C90.5315 17.6043 90.1053 17.3822 89.5343 17.3822C89.0112 17.3822 88.585 17.5991 88.2608 18.0342C87.9944 18.38 87.8361 18.7956 87.7873 19.278L91.1191 19.2795Z" fill="white"/>
<path d="M34.904 10.1212C34.459 10.1212 34.0741 10.0994 33.7537 10.0627V5.23585C34.2018 5.16664 34.6547 5.13252 35.1081 5.13382C36.9429 5.13382 37.7878 6.03632 37.7878 7.50747C37.7878 9.20444 36.7898 10.1212 34.904 10.1212ZM35.1727 5.75274C34.925 5.75274 34.7142 5.76774 34.5393 5.80375V9.47301C34.6339 9.48802 34.8155 9.49477 35.0706 9.49477C36.2728 9.49477 36.9571 8.81058 36.9571 7.52923C36.9571 6.38666 36.3381 5.75274 35.1727 5.75274ZM40.421 10.158C39.387 10.158 38.7168 9.38599 38.7168 8.33795C38.7168 7.24565 39.4012 6.46694 40.4795 6.46694C41.4986 6.46694 42.1837 7.20214 42.1837 8.28019C42.1837 9.38599 41.4776 10.158 40.421 10.158ZM40.451 7.04159C39.883 7.04159 39.519 7.57274 39.519 8.31544C39.519 9.0439 39.8905 9.57504 40.4435 9.57504C40.9966 9.57504 41.368 9.00714 41.368 8.30044C41.368 7.58024 41.0041 7.04159 40.451 7.04159ZM48.0804 6.53971L46.9735 10.0777H46.2524L45.7939 8.54126C45.6799 8.16544 45.585 7.7841 45.5095 7.39869H45.4945C45.4367 7.7843 45.3272 8.17066 45.2108 8.54126L44.7231 10.0777H43.9944L42.9529 6.53971H43.7611L44.1618 8.22167C44.2563 8.62228 44.3359 9.00038 44.4019 9.35748H44.4169C44.4747 9.05965 44.5692 8.68755 44.7081 8.22917L45.2108 6.54046H45.8517L46.3327 8.19316C46.449 8.59377 46.5436 8.98688 46.6171 9.35823H46.6381C46.6891 8.99438 46.7694 8.60803 46.8782 8.19316L47.3082 6.54046L48.0804 6.53971ZM52.1551 10.0777H51.3687V8.04612C51.3687 7.42045 51.1285 7.10686 50.655 7.10686C50.189 7.10686 49.8686 7.50747 49.8686 7.97335V10.0777H49.0822V7.55098C49.0822 7.23815 49.0747 6.90281 49.0529 6.53896H49.7448L49.7816 7.08511H49.8033C50.0149 6.707 50.4442 6.46694 50.9252 6.46694C51.6681 6.46694 52.1558 7.03484 52.1558 7.9591L52.1551 10.0777ZM54.3238 10.0777H53.5366V4.91626H54.3238V10.0777ZM57.1911 10.158C56.1578 10.158 55.4869 9.38599 55.4869 8.33795C55.4869 7.24565 56.1713 6.46694 57.2488 6.46694C58.2686 6.46694 58.953 7.20214 58.953 8.28019C58.9538 9.38599 58.2469 10.158 57.1911 10.158ZM57.2203 7.04159C56.6523 7.04159 56.2883 7.57274 56.2883 8.31544C56.2883 9.0439 56.6605 9.57504 57.2121 9.57504C57.7659 9.57504 58.1366 9.00714 58.1366 8.30044C58.1373 7.58024 57.7741 7.04159 57.2203 7.04159ZM62.0537 10.0777L61.9967 9.67032H61.9756C61.7355 9.99816 61.3851 10.158 60.9408 10.158C60.3067 10.158 59.8565 9.71383 59.8565 9.11667C59.8565 8.24343 60.6137 7.7918 61.9246 7.7918V7.72653C61.9246 7.26065 61.6777 7.02734 61.19 7.02734C60.841 7.02734 60.5349 7.11511 60.2655 7.28991L60.1056 6.77302C60.4328 6.56896 60.841 6.46694 61.3205 6.46694C62.245 6.46694 62.7118 6.95457 62.7118 7.93059V9.2337C62.7118 9.5908 62.7275 9.86762 62.7628 10.0784L62.0537 10.0777ZM61.9456 8.31544C61.0722 8.31544 60.6339 8.527 60.6339 9.02889C60.6339 9.40024 60.8598 9.58179 61.1735 9.58179C61.5734 9.58179 61.9456 9.27646 61.9456 8.8616V8.31544ZM66.5306 10.0777L66.4938 9.50977H66.4721C66.2462 9.93889 65.8665 10.158 65.336 10.158C64.4827 10.158 63.8509 9.40775 63.8509 8.35221C63.8509 7.24565 64.506 6.46619 65.4005 6.46619C65.874 6.46619 66.2094 6.62598 66.3985 6.94707H66.4143V4.91626H67.2015V9.12417C67.2015 9.46626 67.2097 9.7866 67.2307 10.0777H66.5306ZM66.4143 7.99586C66.4143 7.50072 66.0864 7.07836 65.5858 7.07836C65.0028 7.07836 64.6463 7.59525 64.6463 8.32295C64.6463 9.03639 65.0163 9.52478 65.5701 9.52478C66.0646 9.52478 66.4143 9.09491 66.4143 8.58552V7.99586ZM72.1924 10.158C71.1591 10.158 70.489 9.38599 70.489 8.33795C70.489 7.24565 71.1734 6.46694 72.2509 6.46694C73.2707 6.46694 73.9551 7.20214 73.9551 8.28019C73.9559 9.38599 73.2497 10.158 72.1924 10.158ZM72.2217 7.04159C71.6544 7.04159 71.2904 7.57274 71.2904 8.31544C71.2904 9.0439 71.6619 9.57504 72.2142 9.57504C72.768 9.57504 73.1387 9.00714 73.1387 8.30044C73.1402 7.58024 72.7762 7.04159 72.2217 7.04159ZM78.1844 10.0777H77.3972V8.04612C77.3972 7.42045 77.1571 7.10686 76.6836 7.10686C76.2176 7.10686 75.8979 7.50747 75.8979 7.97335V10.0777H75.1107V7.55098C75.1107 7.23815 75.1032 6.90281 75.0815 6.53896H75.7733L75.8101 7.08511H75.8319C76.0427 6.707 76.4727 6.46619 76.953 6.46619C77.6959 6.46619 78.1844 7.03409 78.1844 7.95835V10.0777ZM83.4755 7.12937H82.6103V8.84734C82.6103 9.28471 82.7619 9.50302 83.068 9.50302C83.2068 9.50302 83.3232 9.48802 83.417 9.46626L83.4387 10.0634C83.2864 10.1219 83.0823 10.1512 82.8286 10.1512C82.2088 10.1512 81.8381 9.80911 81.8381 8.91336V7.12937H81.3218V6.53971H81.8381V5.89153L82.6103 5.65821V6.53896H83.4755V7.12937ZM87.6387 10.0777H86.8531V8.06113C86.8531 7.42795 86.6137 7.10761 86.1394 7.10761C85.732 7.10761 85.3523 7.38444 85.3523 7.94484V10.0777H84.5666V4.91626H85.3523V7.04159H85.368C85.6157 6.65599 85.9743 6.46619 86.4321 6.46619C87.181 6.46619 87.6387 7.04835 87.6387 7.97335V10.0777ZM91.904 8.49775H89.544C89.559 9.16768 90.0025 9.54578 90.6591 9.54578C91.0081 9.54578 91.3292 9.48727 91.6129 9.37849L91.7352 9.92464C91.4005 10.0702 91.0066 10.1429 90.5481 10.1429C89.4412 10.1429 88.7861 9.44376 88.7861 8.35971C88.7861 7.27491 89.457 6.45943 90.4595 6.45943C91.3638 6.45943 91.9311 7.12937 91.9311 8.1414C91.9361 8.26083 91.9271 8.38044 91.904 8.49775ZM91.1829 7.93734C91.1829 7.39119 90.9075 7.00558 90.4047 7.00558C89.953 7.00558 89.5958 7.39869 89.5448 7.93734H91.1829Z" fill="white"/>
<defs>
<linearGradient id="paint0_linear_55_33" x1="75.2367" y1="30.0797" x2="75.2367" y2="-78.1148" gradientUnits="userSpaceOnUse">
<stop stop-color="#1A1A1A" stop-opacity="0.1"/>
<stop offset="0.123" stop-color="#212121" stop-opacity="0.151"/>
<stop offset="0.308" stop-color="#353535" stop-opacity="0.227"/>
<stop offset="0.532" stop-color="#575757" stop-opacity="0.318"/>
<stop offset="0.783" stop-color="#858585" stop-opacity="0.421"/>
<stop offset="1" stop-color="#B3B3B3" stop-opacity="0.51"/>
</linearGradient>
</defs>
</svg>
