<svg width="30" height="30" viewBox="0 0 30 30" fill="none" xmlns="http://www.w3.org/2000/svg">
<path d="M15 2.5C8.09625 2.5 2.5 8.09625 2.5 15C2.5 21.9037 8.09625 27.5 15 27.5C21.9037 27.5 27.5 21.9037 27.5 15C27.5 8.09625 21.9037 2.5 15 2.5Z" fill="url(#paint0_linear_54_44)"/>
<path d="M16.6919 18.3132H19.9269L20.435 15.0269H16.6919V13.2307C16.6919 11.8657 17.1381 10.6551 18.415 10.6551H20.4669V7.78757C20.1062 7.73882 19.3437 7.63257 17.9031 7.63257C14.8944 7.63257 13.1306 9.22132 13.1306 12.8413V15.0276H10.0375V18.3138H13.13V27.3463C13.7425 27.4376 14.3631 27.5001 15 27.5001C15.5756 27.5001 16.1375 27.4476 16.6919 27.3726V18.3132Z" fill="white"/>
<defs>
<linearGradient id="paint0_linear_54_44" x1="6.24562" y1="6.24562" x2="25.3844" y2="25.3844" gradientUnits="userSpaceOnUse">
<stop stop-color="#2AA4F4"/>
<stop offset="1" stop-color="#007AD9"/>
</linearGradient>
</defs>
</svg>
