<svg width="30" height="30" viewBox="0 0 30 30" fill="none" xmlns="http://www.w3.org/2000/svg">
<path d="M26.0437 8.425C25.7937 8.5875 25.4375 8.7375 25.2875 8.90625C25.2312 8.9625 25.2 9.025 25.2125 9.0875V9.73125L25.025 10.3625L24.8375 10.9875L24.6313 11.675L24.2062 13.0813L23.7938 14.4688L23.4813 15.5125C23.4813 15.675 23.475 15.8375 23.4625 15.9938C23.4188 16.5938 23.2938 17.1688 23.0938 17.7063C22.975 18.0375 22.8313 18.3563 22.6562 18.6563C22.5938 18.775 22.5188 18.8938 22.4438 19.0063C22.1938 19.4 21.8938 19.7625 21.5625 20.0813C21.3063 20.3375 21.025 20.575 20.7188 20.775C20.7188 20.775 20.7188 20.775 20.7125 20.775C20.6625 20.8188 20.6062 20.8563 20.5437 20.8875C20.35 21.0188 20.1438 21.1313 19.9312 21.2313C19.7875 21.3063 19.6438 21.3688 19.4938 21.425C19.4625 21.4438 19.425 21.4563 19.3938 21.4688C19.0375 21.6375 18.625 21.75 18.2125 21.8063C18.1875 21.8125 18.1688 21.8125 18.1438 21.8188C17.8938 21.8625 17.65 21.9 17.4 21.9188C17.2875 21.9313 17.1688 21.9375 17.0563 21.9375L16.6125 21.9125L14.475 21.8C14.475 21.7938 14.4688 21.8 14.4688 21.8L13.3938 21.7438C13.3125 21.7438 13.225 21.7438 13.1438 21.7375C12.8063 21.725 12.4813 21.6875 12.1563 21.6188C12.15 21.6188 12.15 21.6188 12.15 21.6188C11.5563 21.5063 10.9875 21.3063 10.4562 21.0375C10.1625 20.8875 9.875 20.7188 9.60625 20.525C9.49375 20.4438 9.3875 20.3563 9.28125 20.2625C8.98125 20.0125 8.7125 19.7438 8.4625 19.4688C8.425 19.4313 8.39375 19.3938 8.3625 19.3563C8.325 19.3188 8.2875 19.275 8.25625 19.2375C8.01875 18.9375 7.81875 18.6313 7.65625 18.3063C7.50625 18.0188 7.3875 17.7125 7.29375 17.375C7.25625 17.2563 7.225 17.1438 7.2 17.0188C7.19375 17.0125 7.1875 17 7.1875 16.9875C7.125 16.7313 7.06875 16.4625 7.0375 16.1938C7 15.9875 6.98125 15.7813 6.98125 15.5688C6.96875 15.4875 6.96875 15.4 6.96875 15.3188L8.1625 13.475L9.33125 11.675L9.8625 10.8563L10.3437 10.1188L10.5062 9.8625V9.21875C10.5187 9.075 10.525 8.925 10.5188 8.7875C10.5125 8.35 10.425 7.925 10.2813 7.51875C10.1438 7.0875 9.95 6.68125 9.75 6.30625C9.5125 5.875 9.2625 5.4875 9.05625 5.1375C8.75 4.625 8.5375 4.20625 8.59375 3.9125C9.04375 3.80625 9.51875 3.75 10 3.75H20C22.6125 3.75 24.8625 5.375 25.7938 7.6625C25.8938 7.90625 25.9812 8.1625 26.0437 8.425Z" fill="#304FFE"/>
<path d="M26.25 10V10.1688L25.3875 10.6687L24.8375 10.9875L24.2312 11.3375L23.0187 12.0438L21.8312 12.7313L20.6187 13.4312L20.1375 13.7125C20.1375 14.0125 20.0625 14.2875 19.9249 14.5375C19.7312 14.9 19.4062 15.2 18.9937 15.4562C18.575 15.7125 18.0625 15.9187 17.4875 16.0687C17.4875 16.0687 17.4875 16.0625 17.4812 16.0687C15.2562 16.6437 12.2187 16.3813 10.7437 15.2812C10.3312 14.975 10.0437 14.6 9.9187 14.1687C9.8812 14.025 9.86245 13.8688 9.86245 13.7125V9.21875C9.8687 9.125 9.8062 9.03125 9.6937 8.9375C9.3562 8.66875 8.56245 8.4125 7.67495 8.15625C6.9812 7.9625 6.23745 7.76875 5.61245 7.58125C5.1187 7.43125 4.69995 7.28125 4.44995 7.1375C4.56245 6.91875 4.6937 6.7 4.8312 6.49375C5.7062 5.2125 7.0437 4.26875 8.5937 3.9125C9.0437 3.80625 9.5187 3.75 9.99995 3.75H16.75C20.1062 4.3375 23.2 5.70625 25.7937 7.6625C25.8937 7.90625 25.9812 8.1625 26.0437 8.425C26.1562 8.8375 26.225 9.2625 26.2437 9.70625C26.25 9.8 26.25 9.9 26.25 10Z" fill="#4928F4"/>
<path d="M26.25 10.0001V12.7563L26.1125 13.1813L25.6437 14.6376L25.1562 16.1376L24.9 16.9376L24.6625 17.6813L24.4312 18.3876L24.2062 19.0876L24.0875 19.4563L23.9312 19.9438C23.9312 20.4188 23.9187 20.8376 23.8875 21.1938C23.8812 21.2313 23.875 21.2688 23.875 21.3063C23.8375 21.6376 23.7875 21.9188 23.7062 22.1563C23.7 22.1938 23.6875 22.2313 23.675 22.2626C23.5125 22.7126 23.2687 23.0001 22.9062 23.1876C22.8187 23.2376 22.7187 23.2751 22.6125 23.3126C22.2812 23.4251 21.8625 23.4813 21.35 23.5126C20.975 23.5376 20.5437 23.5438 20.0562 23.5438H19.625L18.8812 23.5126L18.75 23.5063L17.3937 23.4501L16.0187 23.3938L11.4875 23.2063L10.3125 23.1563H10.15C9.66245 23.1501 9.2437 23.1188 8.8812 23.0688C8.3562 22.9876 7.94995 22.8501 7.6437 22.6438C7.2062 22.3626 6.94995 21.9501 6.79995 21.3751C6.76245 21.2376 6.7312 21.0938 6.71245 20.9376C6.64995 20.5751 6.6187 20.1563 6.59995 19.6876C6.59995 19.5938 6.59995 19.5001 6.5937 19.4001C6.58745 19.3938 6.5937 19.3938 6.5937 19.3938V19.0313C6.58745 18.8501 6.58745 18.6626 6.58745 18.4688L6.6187 17.4626L6.63745 16.7438L6.66245 15.9063V15.7876L6.7062 14.2501L6.74995 12.7126L6.7937 11.2688L6.8312 9.8501L6.8437 9.4751C6.8437 9.28135 6.18745 9.16885 5.4562 9.0751C4.87495 9.0001 4.23745 8.93135 3.8562 8.84385C3.88745 8.7001 3.9187 8.55635 3.9562 8.41885C4.0687 7.96885 4.23745 7.54385 4.44995 7.1376C4.56245 6.91885 4.6937 6.7001 4.8312 6.49385C6.1812 5.9001 7.58745 5.4376 9.0562 5.1376C10.3437 4.86885 11.6875 4.7251 13.075 4.7251C17.675 4.7251 21.925 6.28135 25.2875 8.90635C25.6125 9.15635 25.9312 9.4251 26.2437 9.70635C26.25 9.8001 26.25 9.9001 26.25 10.0001Z" fill="#6200EA"/>
<path d="M26.25 11.4813V14.3188L25.9062 14.9813L25.25 16.2626L24.9 16.9376L24.5813 17.5563L24.4438 17.8251C24.4438 18.0188 24.4438 18.2063 24.4312 18.3876C24.4312 18.6563 24.4188 18.9126 24.4 19.1501C24.375 19.4313 24.3375 19.6876 24.3 19.9251C24.2063 20.4188 24.075 20.8438 23.8875 21.1938C23.8625 21.2376 23.8375 21.2813 23.8125 21.3188C23.7437 21.4313 23.6625 21.5376 23.575 21.6376C23.4625 21.7751 23.3375 21.8938 23.1938 21.9938C22.9813 22.1563 22.7313 22.2876 22.4438 22.3876C22.0875 22.5188 21.675 22.6063 21.1875 22.6563C20.8688 22.6876 20.5188 22.7063 20.1375 22.7063L19.875 22.7188L18.575 22.7938H18.5687L17.1875 22.8751L15.7812 22.9563L13.8438 23.0688L11.4875 23.2063L11.1438 23.2251C10.825 23.2251 10.525 23.2063 10.2375 23.1688C10.2062 23.1626 10.1813 23.1563 10.15 23.1563C9.725 23.0876 9.3375 22.9751 8.9875 22.8188C8.5625 22.6313 8.19375 22.3813 7.88125 22.0813C7.60625 21.8126 7.36875 21.5063 7.175 21.1626C7.13125 21.0813 7.0875 21.0063 7.05 20.9188C6.8625 20.5501 6.7125 20.1376 6.6 19.6876C6.58125 19.6126 6.5625 19.5313 6.55 19.4501C6.5125 19.3063 6.48125 19.1563 6.4625 19.0001C6.39375 18.6001 6.35625 18.1751 6.3375 17.7313V17.7251C6.33125 17.5438 6.325 17.3688 6.325 17.1813L6.01875 16.4501L5.975 16.3376L5.9375 16.2438L5.46875 15.1251L5.39375 14.9438L4.94375 13.8626L4.44375 12.6563C4.44375 12.6563 4.44375 12.6563 4.4375 12.6563L3.93125 11.4376L3.75 10.9938V10.0001C3.75 9.60635 3.7875 9.21885 3.85625 8.84385C3.8875 8.7001 3.91875 8.55635 3.95625 8.41885C4.4875 8.1126 5.04375 7.83135 5.6125 7.58135C6.9125 7.0001 8.30625 6.56885 9.75 6.30635C10.825 6.1126 11.9438 6.00635 13.075 6.00635C17.6438 6.00635 21.7875 7.6626 25.025 10.3626C25.15 10.4626 25.2687 10.5626 25.3875 10.6688C25.6812 10.9251 25.9688 11.1938 26.25 11.4813Z" fill="#673AB7"/>
<path d="M26.25 13.3437V16.5562L25.8937 17.3L25.2188 18.7062L25.2125 18.725C25.2125 18.9937 25.2 19.2375 25.1813 19.4562C25.1187 20.175 24.9438 20.6312 24.6562 20.9125C24.45 21.125 24.1938 21.2437 23.875 21.3062C23.8563 21.3125 23.8312 21.3125 23.8125 21.3187C23.7125 21.3375 23.6063 21.35 23.4937 21.35C23.1063 21.3875 22.65 21.3625 22.125 21.325C22.0688 21.325 22.0063 21.3187 21.9438 21.3125C21.5625 21.2874 21.1562 21.2625 20.7063 21.2437C20.4625 21.2375 20.2062 21.2312 19.9438 21.2312H19.9312L19.3 21.2812H19.2938L17.875 21.3812L16.2563 21.5062L16.0187 21.525L14.125 21.6625L13.1438 21.7375L12.175 21.8062C12.0062 21.8062 11.8438 21.8062 11.6813 21.8C11.6813 21.8 11.675 21.7937 11.675 21.8C10.9688 21.7875 10.3375 21.7437 9.775 21.6375C9.25625 21.55 8.8 21.4125 8.4125 21.2062C8.0125 21.0125 7.68125 20.7375 7.4125 20.3875C7.15625 20.0437 6.96875 19.6125 6.85 19.0937C6.85 19.0875 6.85 19.0875 6.85 19.0875C6.7625 18.6687 6.7125 18.1812 6.7125 17.6312L6.61875 17.4625L6.0625 16.4687L5.98125 16.3312L5.9375 16.2437L5.35625 15.2125L5.06875 14.6937L4.70625 14.05L4.08125 12.9312L3.75 12.3437V10.0437C4.3 9.6812 4.86875 9.36245 5.45625 9.07495C6.16875 8.71245 6.90625 8.4062 7.675 8.1562C8.5125 7.8812 9.3875 7.66245 10.2813 7.5187C11.1875 7.3687 12.1187 7.2937 13.075 7.2937C17.325 7.2937 21.225 8.81245 24.2313 11.3375C24.3687 11.4437 24.5 11.5625 24.6313 11.675C25.1562 12.1437 25.6562 12.65 26.1125 13.1812C26.1625 13.2375 26.2125 13.2875 26.25 13.3437Z" fill="#8E24AA"/>
<path d="M26.25 15.4437V19.9625C26.1 19.875 25.8938 19.7687 25.6375 19.6562C25.5 19.5875 25.3438 19.5187 25.1813 19.4562C24.9438 19.35 24.6875 19.25 24.4 19.15C24.3375 19.125 24.275 19.1062 24.2062 19.0875C24.0938 19.0437 23.975 19.0062 23.8562 18.9687C23.4875 18.8562 23.0812 18.75 22.6562 18.6562C22.4937 18.625 22.325 18.5937 22.1562 18.5687C21.6125 18.475 21.0312 18.4187 20.425 18.4125C20.375 18.4062 20.3188 18.4062 20.2687 18.4062L18.6625 18.4187L16.475 18.4312H16.4688L11.7875 18.4687C10.3 18.4687 9.3875 18.825 8.8375 18.9687C8.8375 18.9687 8.83125 18.9687 8.83125 18.975C8.25 19.125 8.06875 19.0312 8.01875 18.0125C8.00625 17.7312 8 17.3687 8 16.925L7.65 16.6562L7.0375 16.1937L6.6625 15.9062L6.5875 15.85L5.55 15.0625L5.39375 14.9437L5.06875 14.6937L4.46875 14.2437L3.75 13.6937V11.5687C3.8125 11.5187 3.86875 11.475 3.93125 11.4375C4.8375 10.8125 5.80625 10.2812 6.83125 9.84995C7.74375 9.46245 8.70625 9.1562 9.69375 8.93745C9.9625 8.8812 10.2375 8.82495 10.5188 8.78745C11.35 8.6437 12.2063 8.57495 13.075 8.57495C16.8313 8.57495 20.2813 9.8812 23.0188 12.0437C23.4313 12.3687 23.8312 12.7125 24.2062 13.0812C24.7188 13.5687 25.2 14.0875 25.6437 14.6375C25.7312 14.75 25.8188 14.8625 25.9062 14.9812C26.025 15.1312 26.1375 15.2875 26.25 15.4437Z" fill="#C2185B"/>
<path d="M26.25 17.95V20C26.25 20.4063 26.2125 20.8063 26.1375 21.1938C26.025 21.7688 25.8312 22.3188 25.5688 22.8313C25.4312 22.8625 25.275 22.8625 25.1 22.8376C24.7062 22.7688 24.2438 22.5625 23.7438 22.2938C23.7188 22.2875 23.6938 22.275 23.675 22.2625C23.5188 22.1813 23.3563 22.0938 23.1938 21.9938C22.8625 21.8125 22.5125 21.6125 22.1625 21.425C22.0875 21.3875 22.0125 21.35 21.9438 21.3125C21.5438 21.1063 21.1313 20.9188 20.7188 20.7751C20.7188 20.7751 20.7188 20.7751 20.7125 20.7751C20.625 20.7438 20.5312 20.7125 20.4375 20.6875C20.0813 20.5875 19.7188 20.525 19.3687 20.525L18.6812 20.3251L15.6375 19.4438C15.6375 19.4438 15.6375 19.4438 15.6313 19.4438L13.7625 18.9H13.7563L12.9437 18.6625C10.5937 18.6625 9.15 19.6625 8.45 19.2813C8.175 19.1375 8.0125 18.775 7.95625 18.0625C7.9375 17.8625 7.93125 17.6375 7.93125 17.375L7.2 17.0188L7.16875 17.0063H7.1625L6.6375 16.7438L6.0625 16.4688L6.01875 16.45L5.9125 16.3938L4.6875 15.8L3.75 15.3438V13.2C3.85625 13.1063 3.96875 13.0188 4.08125 12.9313C4.2 12.8375 4.31875 12.75 4.4375 12.6563C4.44375 12.6563 4.44375 12.6563 4.44375 12.6563C5.18125 12.125 5.9625 11.6563 6.79375 11.2688C7.7625 10.8063 8.79375 10.45 9.8625 10.2188C10.0187 10.1813 10.1812 10.1438 10.3437 10.1188C11.2312 9.95005 12.1438 9.86255 13.075 9.86255C16.3687 9.86255 19.3938 10.9313 21.8312 12.7313C22.5375 13.2563 23.1938 13.8375 23.7938 14.4688C24.2875 14.9875 24.7437 15.55 25.1562 16.1375C25.1875 16.1813 25.2188 16.225 25.25 16.2625C25.4813 16.6 25.6938 16.9438 25.8937 17.3C26.025 17.5125 26.1375 17.7313 26.25 17.95Z" fill="#D81B60"/>
<path d="M26.1375 21.1938C26.025 21.7688 25.8312 22.3188 25.5688 22.8313C25.45 23.0625 25.3187 23.2813 25.175 23.4938C25.0875 23.625 24.9937 23.75 24.9 23.8688C24.675 23.7813 24.3438 23.6563 23.9375 23.5188C23.9375 23.5188 23.9375 23.5188 23.9375 23.5125C23.6313 23.4063 23.2813 23.2938 22.9062 23.1875C22.8 23.1563 22.6938 23.125 22.5813 23.0938C22.1375 22.975 21.675 22.8688 21.225 22.8063C20.85 22.7438 20.4813 22.7063 20.1375 22.7063L19.85 22.625H19.8438L18.3313 22.1875L17.4 21.9188L16.3625 21.6188H16.3562L16.0187 21.525L11.9375 20.35L10.7625 20.0125L9.8875 19.8063L8.4625 19.4688L8.2875 19.425C8.2875 19.425 8.2875 19.425 8.28125 19.425L6.85 19.0938C6.85 19.0875 6.85 19.0875 6.85 19.0875L6.59375 19.0313L6.4625 19L5.41875 18.7563L5.3 18.725L4.4125 17.9938L3.75 17.4375V14.8875C3.98125 14.6625 4.21875 14.45 4.46875 14.2438C4.54375 14.175 4.625 14.1125 4.70625 14.05C4.78125 13.9875 4.8625 13.925 4.94375 13.8625C5.5125 13.4313 6.1125 13.0438 6.75 12.7125C7.5625 12.275 8.425 11.925 9.33125 11.675C9.50625 11.6188 9.68125 11.5688 9.8625 11.5313C10.8875 11.275 11.9625 11.1438 13.075 11.1438C15.8687 11.1438 18.4688 11.9875 20.6188 13.4313C21.6875 14.15 22.65 15.0125 23.4625 15.9938C23.875 16.4875 24.25 17.0063 24.5813 17.5563C24.6125 17.6 24.6375 17.6375 24.6625 17.6813C24.8625 18.0125 25.05 18.3563 25.2188 18.7063C25.375 19.0188 25.5125 19.3313 25.6375 19.6563C25.8375 20.1563 26 20.6688 26.1375 21.1938Z" fill="#F50057"/>
<path d="M25.175 23.4937C25.0875 23.6249 24.9937 23.7499 24.9 23.8687C24.625 24.2124 24.325 24.5249 23.9875 24.7999C23.6938 25.0437 23.3813 25.2624 23.05 25.4499C22.925 25.4187 22.8 25.3812 22.6688 25.3312C22.2563 25.1874 21.825 24.9499 21.425 24.6999C20.825 24.3187 20.3062 23.9062 20.075 23.7187C19.9875 23.6437 19.9438 23.6062 19.9438 23.6062L18.8812 23.5124L18.75 23.4999L17.375 23.3812L15.95 23.2562L13.8438 23.0687L10.5062 22.7749L10.4938 22.7687L9.31875 22.1999L8.13125 21.6249L7.175 21.1624L6.96875 21.0624L6.7125 20.9374L5.825 20.5062L4.64375 19.9374L4.275 19.7562L3.75 19.5937V16.7999C4.04375 16.4499 4.35625 16.1187 4.6875 15.7999C4.9 15.5999 5.125 15.3999 5.35625 15.2124C5.39375 15.1812 5.43125 15.1499 5.46875 15.1249C5.49375 15.0937 5.525 15.0749 5.55 15.0624C5.91875 14.7624 6.30625 14.4937 6.70625 14.2499C7.16875 13.9562 7.65625 13.6937 8.1625 13.4749C8.70625 13.2312 9.275 13.0249 9.8625 12.8687C10.8812 12.5812 11.9625 12.4312 13.075 12.4312C15.625 12.4312 17.9812 13.2062 19.925 14.5374C21.1687 15.3874 22.2437 16.4624 23.0938 17.7062C23.375 18.1062 23.625 18.5312 23.8562 18.9687C23.9375 19.1312 24.0188 19.2937 24.0875 19.4562C24.1625 19.6124 24.2313 19.7687 24.3 19.9249C24.4313 20.2499 24.55 20.5749 24.6562 20.9124C24.8563 21.5374 25.0063 22.1749 25.1 22.8374C25.1313 23.0562 25.1562 23.2749 25.175 23.4937Z" fill="#FF1744"/>
<path d="M23.9937 24.6374C23.9937 24.6874 23.9938 24.7437 23.9875 24.7999C23.6938 25.0437 23.3813 25.2624 23.05 25.4499C22.9125 25.5249 22.775 25.5999 22.6312 25.6624C22.4875 25.7312 22.3437 25.7937 22.1937 25.8499C21.9812 25.7374 21.6938 25.5999 21.3875 25.4687C20.9563 25.2749 20.4875 25.0999 20.125 25.0437C20.0375 25.0249 19.9562 25.0187 19.8813 25.0187L18.8562 24.8874H18.8438L17.5688 24.7187L16.2812 24.5499L15.6812 24.4749L10.9563 23.8624C10.65 23.8624 10.325 23.8437 9.9875 23.7999C9.575 23.7624 9.14375 23.6999 8.7125 23.6124C8.2875 23.5374 7.85625 23.4374 7.44375 23.3312C7.0125 23.2312 6.5875 23.1124 6.19375 22.9999C5.7375 22.8624 5.3125 22.7312 4.95625 22.6124C4.6625 22.5187 4.4125 22.4312 4.21875 22.3624C4.10625 22.0937 4.0125 21.8124 3.94375 21.5249C3.8125 21.0374 3.75 20.5249 3.75 19.9999V18.9562C3.95 18.6249 4.16875 18.2999 4.4125 17.9937C4.85625 17.4062 5.3625 16.8687 5.9125 16.3937C5.93125 16.3687 5.95625 16.3499 5.975 16.3374L5.98125 16.3312C6.175 16.1562 6.375 15.9999 6.5875 15.8499C6.6125 15.8249 6.6375 15.8062 6.6625 15.7874C6.7625 15.7124 6.86875 15.6374 6.98125 15.5687C7.875 14.9624 8.8625 14.4874 9.91875 14.1687C10.9187 13.8687 11.975 13.7124 13.075 13.7124C15.2563 13.7124 17.2937 14.3562 18.9937 15.4562C20.25 16.2624 21.3313 17.3249 22.1562 18.5687C22.2563 18.7124 22.35 18.8562 22.4438 19.0062C22.875 19.7374 23.2313 20.5249 23.4937 21.3499C23.525 21.4437 23.55 21.5374 23.575 21.6374C23.625 21.8062 23.6688 21.9812 23.7062 22.1562C23.7188 22.1999 23.7313 22.2437 23.7438 22.2937C23.8313 22.6874 23.8937 23.0999 23.9375 23.5124C23.9375 23.5187 23.9375 23.5187 23.9375 23.5187C23.975 23.8874 23.9937 24.2624 23.9937 24.6374Z" fill="#FF5722"/>
<path d="M22.7062 24.6375C22.7062 24.8562 22.6937 25.0937 22.6687 25.3312C22.6562 25.4437 22.6437 25.5563 22.6312 25.6625C22.4875 25.7313 22.3437 25.7938 22.1937 25.85C21.9125 25.9563 21.625 26.0437 21.3312 26.1063C21.1312 26.15 20.925 26.1875 20.7187 26.2063H20.7125C20.5187 26.0875 20.2937 25.9438 20.0625 25.7812C19.6437 25.4875 19.2062 25.1562 18.8562 24.8875C18.85 24.8812 18.85 24.8812 18.8437 24.875C18.475 24.5938 18.2125 24.3812 18.2125 24.3812L17.55 24.4062L16.275 24.45L15.6812 24.475L13.2937 24.5625L11.275 24.6375C11.1437 24.6437 10.9875 24.6437 10.7937 24.6375H10.7875C10.525 24.6312 10.2125 24.6125 9.86873 24.5813C9.46873 24.55 9.03123 24.5125 8.58748 24.4688C8.15623 24.4188 7.71873 24.3687 7.29998 24.3188C6.83748 24.2688 6.39998 24.2125 6.02498 24.1625C5.73123 24.125 5.47498 24.0937 5.26873 24.0687C5.09373 23.8687 4.93748 23.6625 4.78748 23.4375C4.56248 23.1 4.36873 22.7437 4.21873 22.3625C4.10623 22.0937 4.01248 21.8125 3.94373 21.525C4.12498 20.9687 4.36248 20.4437 4.64373 19.9375C4.86873 19.525 5.13123 19.1313 5.41873 18.7563C5.69998 18.3875 6.00623 18.0438 6.33748 17.7313V17.725C6.43123 17.6313 6.52498 17.5438 6.61873 17.4625C6.79373 17.3 6.97498 17.15 7.16248 17.0062H7.16873C7.17498 16.9937 7.18123 16.9938 7.18748 16.9875C7.33748 16.8688 7.49373 16.7625 7.64998 16.6562C8.57498 16.025 9.61873 15.5563 10.7437 15.2813C11.4875 15.1 12.2687 15 13.075 15C14.6625 15 16.1625 15.3812 17.4812 16.0687H17.4875C18.6187 16.65 19.6187 17.45 20.425 18.4125C20.8687 18.925 21.25 19.4875 21.5625 20.0813C21.7812 20.4813 21.9687 20.9 22.125 21.325C22.1375 21.3625 22.15 21.3937 22.1625 21.425C22.2687 21.7375 22.3625 22.0625 22.4437 22.3875C22.5 22.6187 22.5437 22.8563 22.5812 23.0938C22.5937 23.1688 22.6062 23.2375 22.6125 23.3125C22.675 23.7437 22.7062 24.1875 22.7062 24.6375Z" fill="#FF6F00"/>
<path d="M21.425 24.6376V24.7001C21.425 24.9126 21.4062 25.1813 21.3875 25.4688C21.3687 25.6813 21.35 25.9001 21.3312 26.1063C21.1312 26.1501 20.925 26.1876 20.7187 26.2063H20.7125C20.475 26.2376 20.2437 26.2501 20 26.2501H18.9062L18.6687 26.1813L17.4375 25.8063L16.1875 25.4313L13.2937 24.5626L12.0437 24.1876C12.0437 24.1876 11.525 24.3938 10.7937 24.6376H10.7875C10.5062 24.7313 10.2 24.8313 9.87498 24.9313C9.46873 25.0501 9.03748 25.1688 8.61248 25.2626C8.17498 25.3626 7.74373 25.4376 7.35623 25.4688C7.23748 25.4813 7.11873 25.4876 7.01248 25.4876C6.66248 25.2938 6.32498 25.0626 6.01873 24.8063C5.74998 24.5813 5.49998 24.3376 5.26873 24.0688C5.09373 23.8688 4.93748 23.6626 4.78748 23.4376C4.83123 23.1563 4.88123 22.8813 4.95623 22.6126C5.14373 21.8688 5.43748 21.1563 5.82498 20.5063C6.03748 20.1376 6.27498 19.7813 6.54998 19.4501C6.55623 19.4313 6.57498 19.4126 6.59373 19.4001C6.58748 19.3938 6.59373 19.3938 6.59373 19.3938C6.67498 19.2876 6.76248 19.1876 6.84998 19.0938C6.84998 19.0876 6.84998 19.0876 6.84998 19.0876C7.10623 18.8126 7.36873 18.5501 7.65623 18.3063C7.75623 18.2251 7.84998 18.1438 7.95623 18.0626C7.97498 18.0438 7.99373 18.0313 8.01873 18.0126C9.42498 16.9376 11.1812 16.2876 13.075 16.2876C15.225 16.2876 17.1812 17.0938 18.6625 18.4188C19.375 19.0626 19.9812 19.8313 20.4375 20.6876C20.475 20.7501 20.5125 20.8188 20.5437 20.8876C20.6 21.0001 20.6562 21.1188 20.7062 21.2438C20.9125 21.6938 21.075 22.1688 21.1875 22.6563C21.2 22.7063 21.2125 22.7563 21.225 22.8063C21.275 23.0376 21.3187 23.2751 21.35 23.5126C21.4 23.8813 21.425 24.2563 21.425 24.6376Z" fill="#FF9800"/>
<path d="M20.1375 24.6376C20.1375 24.7626 20.1312 24.9001 20.125 25.0438C20.1125 25.2751 20.0937 25.5251 20.0625 25.7813C20.05 25.9376 20.025 26.0938 20 26.2501H16.575L15.9125 26.1438L13.325 25.7313L12.9562 25.6751L12.1125 25.5376C11.7437 25.5376 10.9437 25.7001 10.1 25.8563C9.65623 25.9376 9.20623 26.0251 8.79998 26.0813C8.74998 26.0876 8.69998 26.0938 8.65623 26.1001H8.64998C8.21248 26.0063 7.78748 25.8626 7.38748 25.6751C7.26248 25.6188 7.13748 25.5563 7.01248 25.4876C6.66248 25.2938 6.32498 25.0626 6.01873 24.8063C6.01248 24.7313 6.00623 24.6688 6.00623 24.6376C6.00623 24.4751 6.01248 24.3188 6.02498 24.1626C6.04998 23.7626 6.10623 23.3751 6.19373 23.0001C6.33123 22.4313 6.53123 21.8813 6.79998 21.3751C6.84998 21.2688 6.90623 21.1626 6.96873 21.0626C6.99373 21.0126 7.02498 20.9688 7.04998 20.9188C7.16248 20.7376 7.28748 20.5626 7.41248 20.3876C7.67498 20.0438 7.96873 19.7188 8.28123 19.4251C8.28748 19.4251 8.28748 19.4251 8.28748 19.4251C8.31248 19.4001 8.33748 19.3751 8.36248 19.3563C8.39373 19.3313 8.41873 19.3001 8.44998 19.2813C8.57498 19.1688 8.69998 19.0688 8.83123 18.9751C8.83123 18.9688 8.83748 18.9688 8.83748 18.9688C10.0187 18.0876 11.4812 17.5688 13.075 17.5688C14.3125 17.5688 15.4625 17.8813 16.4687 18.4313H16.475C17.3375 18.9063 18.0875 19.5501 18.6812 20.3251C18.9125 20.6251 19.1187 20.9438 19.2937 21.2813H19.3C19.3312 21.3438 19.3625 21.4063 19.3937 21.4688C19.5812 21.8376 19.7312 22.2251 19.8437 22.6251H19.85C19.8562 22.6563 19.8687 22.6876 19.875 22.7188C19.95 22.9876 20.0125 23.2626 20.0562 23.5438C20.0625 23.6001 20.0687 23.6626 20.075 23.7188C20.1187 24.0188 20.1375 24.3251 20.1375 24.6376Z" fill="#FFC107"/>
<path d="M18.8562 24.5687C18.8562 24.6687 18.8562 24.775 18.8437 24.875V24.8812C18.8437 24.8875 18.8437 24.8875 18.8437 24.8875C18.8312 25.3375 18.7687 25.7812 18.6687 26.1812C18.6687 26.2062 18.6625 26.225 18.65 26.25H15.7312L13.325 25.7312L13.0062 25.6625L12.9562 25.675L10.2875 26.225L10.1687 26.25H9.99995C9.59995 26.25 9.2062 26.2125 8.82495 26.1375C8.7687 26.125 8.71245 26.1125 8.6562 26.0999H8.64995C8.21245 26.0062 7.78745 25.8625 7.38745 25.675C7.37495 25.6062 7.36245 25.5375 7.3562 25.4687C7.31245 25.2 7.2937 24.9187 7.2937 24.6375C7.2937 24.5312 7.2937 24.425 7.29995 24.3187C7.3187 23.9812 7.3687 23.65 7.4437 23.3312C7.4937 23.0937 7.56245 22.8625 7.6437 22.6437C7.71245 22.45 7.7937 22.2625 7.8812 22.0812C7.9562 21.925 8.0437 21.775 8.1312 21.625C8.2187 21.4812 8.31245 21.3437 8.41245 21.2062C8.66245 20.8625 8.9562 20.5437 9.2812 20.2624C9.4687 20.0999 9.67495 19.9437 9.88745 19.8062C10.8 19.2062 11.8937 18.8562 13.075 18.8562C13.3062 18.8562 13.5312 18.8687 13.75 18.9H13.7625C14.4312 18.975 15.0562 19.1625 15.6312 19.4437C15.6375 19.4437 15.6375 19.4437 15.6375 19.4437C16.5437 19.8875 17.3125 20.5562 17.875 21.3812C17.9687 21.5187 18.0625 21.6687 18.1437 21.8187C18.2125 21.9375 18.275 22.0625 18.3312 22.1875C18.4187 22.3812 18.5 22.5875 18.5687 22.7937H18.575C18.6437 23.025 18.7062 23.2562 18.75 23.5V23.5062C18.8187 23.85 18.8562 24.2062 18.8562 24.5687Z" fill="#FFD54F"/>
<path d="M17.5687 24.7V24.7187C17.5687 25.0875 17.525 25.45 17.4375 25.8062C17.4062 25.9562 17.3625 26.1062 17.3062 26.25H14.5062L13.075 25.8562L11.6437 26.25H9.99995C9.59995 26.25 9.2062 26.2125 8.82495 26.1375C8.81245 26.1187 8.8062 26.1 8.79995 26.0812C8.71245 25.8125 8.6437 25.5437 8.61245 25.2625C8.58745 25.0812 8.57495 24.8937 8.57495 24.7C8.57495 24.625 8.57495 24.5437 8.58745 24.4687C8.5937 24.175 8.63745 23.8875 8.71245 23.6125C8.74995 23.425 8.8062 23.2437 8.8812 23.0687C8.9062 22.9812 8.9437 22.9 8.98745 22.8187C9.0812 22.6062 9.1937 22.4 9.3187 22.2C9.4562 22 9.6062 21.8125 9.77495 21.6375C9.97495 21.4125 10.2 21.2062 10.4562 21.0375C10.8937 20.7187 11.3937 20.4812 11.9375 20.35C12.3 20.25 12.6812 20.2 13.075 20.2C14.325 20.2 15.4437 20.7 16.2562 21.5062C16.2875 21.5375 16.325 21.575 16.3562 21.6187H16.3625C16.45 21.7125 16.5312 21.8062 16.6125 21.9125C16.8437 22.2062 17.0375 22.525 17.1875 22.875C17.2625 23.0375 17.325 23.2062 17.375 23.3812C17.3812 23.4062 17.3875 23.425 17.3937 23.45C17.4812 23.7562 17.5375 24.075 17.55 24.4062C17.5625 24.5 17.5687 24.6 17.5687 24.7Z" fill="#FFE082"/>
<path d="M16.2875 24.7C16.2875 24.9563 16.2563 25.2 16.1875 25.4313C16.125 25.6813 16.0313 25.9188 15.9125 26.1438C15.8938 26.1813 15.85 26.25 15.85 26.25H10.3C10.2938 26.2438 10.2875 26.2313 10.2875 26.225C10.2125 26.1063 10.15 25.9875 10.1 25.8563C9.97505 25.5688 9.90005 25.2563 9.87505 24.9313C9.86255 24.8563 9.86255 24.775 9.86255 24.7C9.86255 24.6625 9.86255 24.6188 9.8688 24.5813C9.87505 24.3063 9.91255 24.0438 9.98755 23.8C10.05 23.575 10.1313 23.3688 10.2375 23.1688C10.2375 23.1688 10.2438 23.1625 10.2438 23.1563C10.3188 23.025 10.4 22.8938 10.4938 22.7688C10.8 22.3563 11.2063 22.0188 11.675 21.8C11.6813 21.8 11.6813 21.8 11.6813 21.8C11.8313 21.725 11.9875 21.6625 12.15 21.6188C12.15 21.6188 12.15 21.6188 12.1563 21.6188C12.4438 21.5313 12.7563 21.4875 13.075 21.4875C13.4438 21.4875 13.8 21.5438 14.125 21.6625C14.2438 21.6938 14.3563 21.7438 14.4688 21.8C14.4688 21.8 14.4688 21.8 14.475 21.8C15.0125 22.0563 15.4688 22.4563 15.7813 22.9563C15.8438 23.05 15.9 23.15 15.95 23.2563C15.975 23.3 16 23.35 16.0188 23.3938C16.1625 23.7188 16.25 24.075 16.275 24.45C16.2813 24.4813 16.2813 24.5125 16.2813 24.55C16.2875 24.6 16.2875 24.65 16.2875 24.7Z" fill="#FFECB3"/>
<path d="M18.75 6.875H11.25C8.8125 6.875 6.875 8.8125 6.875 11.25V18.75C6.875 21.1875 8.8125 23.125 11.25 23.125H18.75C21.1875 23.125 23.125 21.1875 23.125 18.75V11.25C23.125 8.8125 21.1875 6.875 18.75 6.875Z" stroke="white" stroke-width="2" stroke-miterlimit="10" stroke-linecap="round" stroke-linejoin="round"/>
<path d="M19.375 10.625C19.7202 10.625 20 10.3452 20 10C20 9.65482 19.7202 9.375 19.375 9.375C19.0298 9.375 18.75 9.65482 18.75 10C18.75 10.3452 19.0298 10.625 19.375 10.625Z" fill="white"/>
<path d="M15 18.75C17.0711 18.75 18.75 17.0711 18.75 15C18.75 12.9289 17.0711 11.25 15 11.25C12.9289 11.25 11.25 12.9289 11.25 15C11.25 17.0711 12.9289 18.75 15 18.75Z" stroke="white" stroke-width="2" stroke-miterlimit="10" stroke-linecap="round" stroke-linejoin="round"/>
</svg>
