<svg width="101" height="30" viewBox="0 0 101 30" fill="none" xmlns="http://www.w3.org/2000/svg">
<path d="M97.2376 30H3.73991C1.68298 30 0 28.3125 0 26.25V3.75002C0 1.6875 1.68295 0 3.73991 0H97.2375C99.2945 0 100.977 1.6875 100.977 3.75002V26.25C100.977 28.3125 99.2945 30 97.2376 30Z" fill="black"/>
<path d="M97.2376 0H3.73991C1.68298 0 0 1.6875 0 3.75002V26.25C0 28.3125 1.68295 30 3.73991 30H97.2375C99.2945 30 100.977 28.3125 100.977 26.25V3.75002C100.977 1.6875 99.2946 0 97.2376 0ZM97.2375 0.599981C98.9699 0.599981 100.379 2.01331 100.379 3.75002V26.25C100.379 27.987 98.9698 29.4003 97.2375 29.4003H3.73991C2.0079 29.4003 0.598391 27.987 0.598391 26.25V3.75002C0.598391 2.01331 2.00787 0.600015 3.73991 0.600015H97.2375" fill="#A6A6A6"/>
<path d="M35.4681 7.68254C35.4681 8.3109 35.2825 8.81128 34.9109 9.18455C34.4887 9.6284 33.9385 9.85049 33.2621 9.85049C32.6143 9.85049 32.0636 9.6255 31.6107 9.17487C31.157 8.72458 30.9305 8.1662 30.9305 7.49998C30.9305 6.83346 31.157 6.27542 31.6107 5.82476C32.0636 5.3745 32.6143 5.14917 33.2621 5.14917C33.5835 5.14917 33.8912 5.2122 34.1834 5.33789C34.4755 5.46389 34.7099 5.63114 34.8852 5.8406L34.4907 6.23638C34.1936 5.88044 33.7845 5.7026 33.2621 5.7026C32.7897 5.7026 32.3812 5.86905 32.0364 6.20214C31.6916 6.53556 31.5193 6.96795 31.5193 7.49998C31.5193 8.03204 31.6916 8.4644 32.0364 8.79786C32.3812 9.13095 32.7897 9.29736 33.2621 9.29736C33.7632 9.29736 34.1811 9.13004 34.5156 8.79493C34.7327 8.57661 34.8583 8.27315 34.8919 7.88347H33.2621V7.34294H35.4368C35.4578 7.46048 35.4681 7.57326 35.4681 7.68254" fill="white"/>
<path d="M35.4681 7.68259H35.3932C35.3926 8.29662 35.2138 8.77354 34.8579 9.13158L34.8571 9.13218L34.8568 9.13279C34.448 9.56134 33.9226 9.77463 33.262 9.77554C32.6315 9.77463 32.1038 9.55901 31.6632 9.1219C31.2235 8.68391 31.0061 8.14922 31.0052 7.50003C31.0061 6.85053 31.2235 6.31615 31.6632 5.87846C32.1038 5.44105 32.6315 5.22513 33.262 5.22421C33.5738 5.22421 33.8706 5.28522 34.1537 5.40677C34.4371 5.52926 34.661 5.68977 34.8278 5.88905L34.8851 5.84064L34.8322 5.78762L34.4377 6.18368L34.4906 6.23643L34.5482 6.18843C34.2373 5.81486 33.8008 5.62654 33.262 5.62765C32.7721 5.62704 32.3411 5.80259 31.9846 6.14832C31.6246 6.49516 31.4438 6.95189 31.4444 7.50003C31.4438 8.0482 31.6246 8.5049 31.9846 8.85177C32.3411 9.1975 32.7721 9.37302 33.262 9.37241C33.7797 9.37332 34.221 9.1972 34.5683 8.848C34.8003 8.61475 34.9319 8.29167 34.9663 7.88995L34.9733 7.80852H33.3368V7.41799H35.4367V7.34299L35.3631 7.35617C35.3835 7.4699 35.3932 7.57796 35.3932 7.68259H35.5428C35.5428 7.56859 35.5323 7.45143 35.5103 7.32958L35.4993 7.26799H33.1872V7.95851H34.8918V7.88351L34.8173 7.87707C34.7843 8.25446 34.6645 8.53864 34.4626 8.74199C34.1412 9.06305 33.7468 9.2215 33.262 9.22241C32.8071 9.22181 32.4212 9.06477 32.0884 8.74398C31.7588 8.42434 31.5948 8.01625 31.594 7.50003C31.5948 6.98381 31.7588 6.57572 32.0884 6.25608C32.4212 5.93529 32.8071 5.77825 33.262 5.77765C33.7678 5.77886 34.1497 5.94642 34.4334 6.2848L34.486 6.34749L34.938 5.8937L34.9865 5.84509L34.9424 5.79258C34.7586 5.57291 34.5137 5.39855 34.2128 5.26911C33.9113 5.13927 33.5931 5.07422 33.262 5.07422C32.597 5.07365 32.0232 5.30801 31.5577 5.77182C31.0906 6.23471 30.8551 6.81656 30.8557 7.50003C30.8551 8.1832 31.0906 8.76538 31.558 9.22855C32.0232 9.69205 32.597 9.92615 33.262 9.92554C33.9545 9.92615 34.529 9.69552 34.9649 9.23644L34.9108 9.1846L34.9637 9.23765C35.3511 8.84945 35.5433 8.32504 35.5428 7.68259H35.4681ZM38.9157 5.80286H36.8719V7.22967H38.715V7.77039H36.8719V9.1972H38.9157V9.75003H36.2957V5.25003H38.9157V5.80286Z" fill="white"/>
<path d="M38.9157 5.80287V5.72787H36.7971V7.30468H38.6402V7.69521L36.7971 7.69541V9.27221H38.8409V9.67504H36.3705V5.32504H38.8409V5.80287H38.9157H38.9905V5.17505H36.2209V9.82504H38.9905V9.12222H36.9467V7.8454H38.7898V7.15468H36.9467V5.87787H38.9905V5.80287H38.9157ZM41.3475 9.75007H40.7705V5.80284H39.517V5.25001H42.601V5.80284H41.3475V9.75001" fill="white"/>
<path d="M41.3474 9.75007V9.67504H40.8452V5.72787H39.5917V5.32508H42.5261V5.72787H41.2727V9.75004H41.3474H41.4223V5.87787H42.6757V5.17505H39.4421V5.87784H40.6956V9.825H41.4223V9.75001H41.3474M44.8323 9.75007V5.25001H45.4088V9.75001H44.8323" fill="white"/>
<path d="M44.8323 9.75007H44.9072V5.32504H45.334V9.67504H44.8323V9.75004V9.82504H45.4836V5.17505H44.7576V9.82504H44.8323V9.75004M47.9668 9.75007H47.3898V5.80284H46.1364V5.25001H49.2203V5.80284H47.9668V9.75001" fill="white"/>
<path d="M47.9669 9.75001V9.67498H47.4646V5.72781H46.2112V5.32502H49.1456V5.72781H47.8921V9.74998H47.9669H48.0417V5.87781H49.2952V5.17499H46.0616V5.87778H47.315V9.82494H48.0417V9.74995H47.9669M52.1936 8.79173C52.5258 9.1289 52.9322 9.29733 53.4129 9.29733C53.8935 9.29733 54.3002 9.1289 54.6319 8.79173C54.9643 8.45453 55.1309 8.02348 55.1309 7.49998C55.1309 6.97652 54.9643 6.54547 54.6319 6.20827C54.3002 5.87107 53.8935 5.7026 53.4129 5.7026C52.9322 5.7026 52.5258 5.87107 52.1936 6.20827C51.8619 6.54547 51.6955 6.97648 51.6955 7.49998C51.6955 8.02348 51.8619 8.45453 52.1936 8.79173ZM55.0584 9.16844C54.6172 9.62338 54.0685 9.85049 53.4129 9.85049C52.7566 9.85049 52.2082 9.62338 51.7679 9.16844C51.3264 8.714 51.1067 8.15774 51.1067 7.49998C51.1067 6.84223 51.3264 6.28586 51.7679 5.83153C52.2082 5.37649 52.7566 5.14917 53.4129 5.14917C54.065 5.14917 54.6123 5.3777 55.0555 5.83446C55.4982 6.29119 55.7196 6.84634 55.7196 7.49998C55.7196 8.15774 55.4987 8.714 55.0584 9.16844Z" fill="white"/>
<path d="M52.1937 8.79178L52.1405 8.8445C52.485 9.19518 52.9148 9.37332 53.413 9.37241C53.9108 9.37332 54.3412 9.19518 54.6851 8.8445C55.0319 8.49347 55.2063 8.03937 55.2058 7.50003C55.2063 6.96072 55.0319 6.50659 54.6851 6.15557C54.3412 5.80488 53.9108 5.62678 53.413 5.62765C52.9148 5.62678 52.485 5.80488 52.1405 6.15557C51.7946 6.50659 51.6198 6.96072 51.6207 7.50003C51.6198 8.03934 51.7946 8.49347 52.1405 8.8445L52.1937 8.79178L52.2469 8.73903C51.9296 8.41527 51.7709 8.00803 51.7703 7.50003C51.7709 6.99207 51.9296 6.58482 52.2468 6.26104C52.5671 5.93735 52.9495 5.77856 53.413 5.77768C53.876 5.77856 54.2594 5.93735 54.5788 6.26104C54.8966 6.58482 55.0553 6.99207 55.0559 7.50003C55.0553 8.00799 54.8966 8.41527 54.5788 8.73903C54.2594 9.06275 53.8761 9.22151 53.413 9.22238C52.9495 9.22151 52.5671 9.06275 52.2469 8.73903L52.1937 8.79178ZM55.0585 9.16849L55.005 9.11637C54.5761 9.55699 54.0516 9.77467 53.413 9.77554C52.774 9.77463 52.2495 9.55699 51.8214 9.11637C51.3934 8.67424 51.1822 8.14107 51.1816 7.50003C51.1822 6.859 51.3934 6.32582 51.8214 5.88372C52.2495 5.44307 52.7739 5.22513 53.413 5.22425C54.0475 5.22513 54.5708 5.44398 55.0021 5.88693C55.4316 6.33108 55.644 6.86341 55.6449 7.50003C55.644 8.14107 55.4322 8.67424 55.005 9.11637L55.0585 9.16849L55.1123 9.2206C55.5657 8.75366 55.795 8.17444 55.7945 7.50003C55.7951 6.82947 55.5648 6.25143 55.1093 5.7824C54.6535 5.31152 54.0826 5.07341 53.413 5.07422C52.7398 5.07341 52.1671 5.3104 51.7142 5.77947V5.77913C51.2599 6.24641 51.0314 6.82563 51.032 7.50003C51.0314 8.17444 51.2599 8.75366 51.7142 9.2209L51.7162 9.22302L51.7142 9.2206C52.1671 9.68966 52.7398 9.92615 53.413 9.92554C54.0858 9.92615 54.6585 9.68966 55.1123 9.2206L55.0585 9.16849ZM56.529 9.75006V5.25H57.2309L59.412 8.75069H59.4368L59.412 7.88348V5.25H59.9891V9.74999H59.3871L57.1052 6.07966H57.0804L57.1052 6.94717V9.74999H56.5291" fill="white"/>
<path d="M56.529 9.75007H56.6038V5.32504H57.1893L59.3704 8.82573H59.5136L59.4867 7.88241V5.32508H59.9142V9.67504H59.4286L57.1467 6.00471H57.0035L57.0304 6.94843V9.67504H56.529V9.75004V9.82504H57.18V6.94604L57.1551 6.07768L57.0803 6.07971V6.1547H57.1052V6.07971L57.0417 6.11958L59.3456 9.82504H60.0638V5.17505H59.3372V7.8844L59.362 8.75276L59.4368 8.75073V8.67574H59.4119V8.75073L59.4754 8.71093L57.2722 5.17505H56.4542V9.82504H56.529V9.75004M79.9862 22.5H81.3819V13.1242H79.9861L79.9862 22.5ZM92.5575 16.5016L90.9575 20.5665H90.9097L89.2491 16.5015H87.7457L90.2357 22.183L88.8161 25.3433H90.2724L94.1095 16.5015L92.5575 16.5016ZM84.6423 21.4351C84.1846 21.4351 83.5473 21.206 83.5473 20.6389C83.5473 19.9152 84.3416 19.6378 85.0268 19.6378C85.6409 19.6378 85.9289 19.7704 86.3021 19.9516C86.1936 20.8199 85.4479 21.4351 84.6423 21.4351ZM84.8106 16.2964C83.8001 16.2964 82.7537 16.7429 82.3206 17.732L83.5592 18.2506C83.824 17.732 84.3169 17.5629 84.8346 17.5629C85.5564 17.5629 86.2901 17.9974 86.3021 18.7694V18.8658C86.0493 18.721 85.5085 18.504 84.8465 18.504C83.5114 18.504 82.1515 19.2396 82.1515 20.6148C82.1515 21.8693 83.2466 22.6776 84.4733 22.6776C85.412 22.6776 85.9289 22.2554 86.2542 21.7609H86.3021V22.4845H87.6492V18.8898C87.6492 17.2255 86.4105 16.2964 84.8106 16.2964ZM76.1849 17.6429H74.1998V14.4291H76.1849C77.2283 14.4291 77.8207 15.2953 77.8207 16.036C77.8207 16.7625 77.2283 17.6429 76.1849 17.6429ZM76.149 13.1242H72.8048V22.5H74.1997V18.9478H76.149C77.6958 18.9478 79.2164 17.8248 79.2164 16.036C79.2164 14.2471 77.6958 13.1242 76.149 13.1242ZM57.9125 21.4369C56.9482 21.4369 56.1409 20.6274 56.1409 19.5156C56.1409 18.3921 56.9482 17.5703 57.9125 17.5703C58.8644 17.5703 59.6115 18.3921 59.6115 19.5156C59.6115 20.6274 58.8644 21.4369 57.9125 21.4369ZM59.5151 17.0266H59.4669C59.1536 16.6521 58.5508 16.3138 57.7918 16.3138C56.2012 16.3138 54.7432 17.7153 54.7432 19.5156C54.7432 21.3039 56.2011 22.6934 57.7918 22.6934C58.5508 22.6934 59.1536 22.355 59.4669 21.9686H59.5151V22.4277C59.5151 23.6482 58.8644 24.3007 57.8161 24.3007C56.9605 24.3007 56.4302 23.6842 56.2131 23.1648L54.9963 23.6722C55.3457 24.518 56.2736 25.5572 57.8161 25.5572C59.4549 25.5572 60.8407 24.5904 60.8407 22.2343V16.5071H59.5151V17.0266ZM61.8046 22.5H63.2024V13.1238H61.8046V22.5ZM65.2631 19.4069C65.2269 18.1743 66.215 17.5462 66.9259 17.5462C67.4806 17.5462 67.9504 17.824 68.1067 18.2231L65.2631 19.4069ZM69.6012 18.3437C69.3364 17.6306 68.5285 16.3138 66.8777 16.3138C65.2389 16.3138 63.8773 17.6066 63.8773 19.5036C63.8773 21.2919 65.2269 22.6934 67.0343 22.6934C68.4927 22.6934 69.3364 21.7992 69.6857 21.2798L68.6011 20.5547C68.2398 21.0864 67.7454 21.4369 67.0343 21.4369C66.3234 21.4369 65.8174 21.1105 65.4919 20.4703L69.7455 18.7061L69.6012 18.3437ZM35.7115 17.2925V18.6457H38.9409C38.8445 19.4069 38.5914 19.9627 38.2057 20.3493C37.7359 20.8207 37.0009 21.3402 35.7114 21.3402C33.7231 21.3402 32.1687 19.7332 32.1687 17.7396C32.1687 15.7459 33.7231 14.1388 35.7115 14.1388C36.784 14.1388 37.5671 14.5618 38.1455 15.1055L39.0975 14.151C38.2902 13.3776 37.2176 12.7855 35.7115 12.7855C32.988 12.7855 30.6985 15.0088 30.6985 17.7396C30.6985 20.4703 32.988 22.6934 35.7115 22.6934C37.1817 22.6934 38.2902 22.2103 39.1577 21.3039C40.0495 20.4097 40.3267 19.1532 40.3267 18.1383C40.3267 17.824 40.3027 17.5342 40.2543 17.2925H35.7115ZM43.9983 21.4369C43.0341 21.4369 42.2025 20.6394 42.2025 19.5036C42.2025 18.3557 43.0341 17.5703 43.9983 17.5703C44.9621 17.5703 45.7937 18.3557 45.7937 19.5036C45.7937 20.6394 44.9621 21.4369 43.9983 21.4369ZM43.9983 16.3138C42.2387 16.3138 40.8047 17.6549 40.8047 19.5036C40.8047 21.3402 42.2387 22.6934 43.9983 22.6934C45.7575 22.6934 47.1915 21.3402 47.1915 19.5036C47.1915 17.6549 45.7575 16.3138 43.9983 16.3138ZM50.9644 21.4369C50.0005 21.4369 49.1689 20.6394 49.1689 19.5036C49.1689 18.3557 50.0005 17.5703 50.9644 17.5703C51.9283 17.5703 52.7598 18.3557 52.7598 19.5036C52.7598 20.6394 51.9283 21.4369 50.9644 21.4369ZM50.9644 16.3138C49.2049 16.3138 47.7712 17.6549 47.7712 19.5036C47.7712 21.3402 49.2049 22.6934 50.9644 22.6934C52.7236 22.6934 54.1577 21.3402 54.1577 19.5036C54.1577 17.6549 52.7236 16.3138 50.9644 16.3138Z" fill="white"/>
<path d="M7.8602 5.70831C7.60918 5.93539 7.45935 6.31415 7.45935 6.81692V6.70327V23.2941V23.1848C7.45935 23.6491 7.58787 24.0077 7.80552 24.2386L7.86107 24.2919V24.2922C8.03724 24.4516 8.26313 24.5362 8.52202 24.5359C8.77499 24.5359 9.05961 24.4551 9.35998 24.2843L20.2171 18.0989L23.9464 15.9739C24.4201 15.7042 24.686 15.3561 24.7304 15.0016V15.0001C24.686 14.6448 24.4201 14.297 23.9465 14.0272L20.2168 11.9025L9.36001 5.71707C9.059 5.54601 8.77418 5.46484 8.52054 5.46484C8.26195 5.46484 8.03636 5.54921 7.86026 5.70831H7.8602Z" fill="#00C1FF"/>
<path d="M7.86111 24.292L7.80552 24.2387C7.58787 24.0078 7.45935 23.6492 7.45935 23.1849V23.2941V6.70742V6.81697C7.45935 6.3142 7.60918 5.93544 7.8602 5.70835L17.1275 15.0005L7.86111 24.292Z" fill="url(#paint0_linear_55_10)"/>
<path d="M20.2171 18.0991L17.1276 15.0007L20.2168 11.9028L23.9465 14.0274C24.4201 14.2973 24.686 14.6451 24.7304 15.0004V15.0018C24.686 15.3564 24.4201 15.7045 23.9465 15.9742L20.2171 18.0991" fill="url(#paint1_linear_55_10)"/>
<path d="M8.52197 24.5364C8.26311 24.5366 8.03721 24.4519 7.86108 24.2926V24.2923L17.1275 15.0008L20.2171 18.0992L9.35992 24.2847C9.05955 24.4555 8.77493 24.5364 8.52197 24.5364Z" fill="url(#paint2_linear_55_10)"/>
<path d="M17.1276 15.0007L7.86023 5.70861C8.03639 5.54951 8.26199 5.46515 8.52054 5.46515C8.77418 5.46515 9.05903 5.54628 9.36001 5.71737L20.2168 11.9028L17.1276 15.0007" fill="url(#paint3_linear_55_10)"/>
<path d="M8.52228 24.6458C8.26343 24.6458 8.03723 24.5611 7.86106 24.4017L7.86076 24.402C7.86004 24.4013 7.85926 24.4006 7.85844 24.4L7.81026 24.3528C7.80874 24.3513 7.80733 24.3496 7.80554 24.3479L7.8611 24.2921C8.03726 24.4515 8.26312 24.5362 8.52205 24.5359C8.77498 24.5359 9.0596 24.455 9.35997 24.2842L20.2171 18.0988L20.2866 18.1686L20.2162 18.2087L9.35994 24.3938C9.0862 24.5494 8.82582 24.6305 8.59064 24.644C8.56787 24.6451 8.54508 24.6457 8.52228 24.6458Z" fill="url(#paint4_linear_55_10)"/>
<path d="M7.80552 24.3481C7.58787 24.1173 7.45935 23.7589 7.45935 23.2943V23.1851C7.45935 23.6494 7.58787 24.0079 7.80552 24.2389L7.86107 24.2922L7.80552 24.3481Z" fill="url(#paint5_linear_55_10)"/>
<path d="M20.2866 18.1687L20.217 18.0989L23.9464 15.974C24.42 15.7043 24.6859 15.3562 24.7304 15.0016C24.7304 15.1318 24.7014 15.2618 24.6439 15.3884C24.5279 15.6436 24.2953 15.8847 23.9464 16.0836L20.2866 18.1687" fill="url(#paint6_linear_55_10)"/>
<path d="M24.7303 15.0005C24.6859 14.6451 24.42 14.2974 23.9463 14.0275L20.2167 11.9029L20.2862 11.8331H20.2865L23.9463 13.9182C24.4685 14.2159 24.73 14.6081 24.7303 15.0005Z" fill="url(#paint7_linear_55_10)"/>
<path d="M7.45935 6.81714V6.70254C7.45935 6.66121 7.46046 6.6208 7.46258 6.58156V6.57978C7.46258 6.57924 7.46258 6.57866 7.46278 6.57806V6.57364C7.48531 6.17371 7.60918 5.86175 7.80552 5.65345L7.8602 5.70849C7.60918 5.9356 7.45935 6.31437 7.45935 6.81714Z" fill="url(#paint8_linear_55_10)"/>
<path d="M20.2168 11.9028L9.35997 5.7173C9.05899 5.54624 8.77417 5.4651 8.52053 5.4651C8.26194 5.4651 8.03635 5.54947 7.86022 5.70857L7.80554 5.65349C7.82262 5.63536 7.84036 5.61788 7.85874 5.60108C7.85931 5.60047 7.86022 5.59986 7.8608 5.59929C8.03554 5.44141 8.25875 5.35704 8.51501 5.35552H8.52053C8.77417 5.35552 9.05899 5.43669 9.35997 5.60782L20.2866 11.8328L20.2863 11.8331L20.2168 11.9028Z" fill="url(#paint9_linear_55_10)"/>
<defs>
<linearGradient id="paint0_linear_55_10" x1="13.3817" y1="6.53212" x2="5.38673" y2="14.5314" gradientUnits="userSpaceOnUse">
<stop stop-color="#00A0FF"/>
<stop offset="0.00657" stop-color="#00A1FF"/>
<stop offset="0.2601" stop-color="#00BEFF"/>
<stop offset="0.5122" stop-color="#00D2FF"/>
<stop offset="0.7604" stop-color="#00DFFF"/>
<stop offset="1" stop-color="#00E3FF"/>
</linearGradient>
<linearGradient id="paint1_linear_55_10" x1="25.3075" y1="14.9472" x2="7.20857" y2="14.9472" gradientUnits="userSpaceOnUse">
<stop stop-color="#FFE000"/>
<stop offset="0.4087" stop-color="#FFBD00"/>
<stop offset="0.7754" stop-color="#FFA500"/>
<stop offset="1" stop-color="#FF9C00"/>
</linearGradient>
<linearGradient id="paint2_linear_55_10" x1="18.5768" y1="17.9467" x2="5.02875" y2="31.4029" gradientUnits="userSpaceOnUse">
<stop stop-color="#FF3A44"/>
<stop offset="1" stop-color="#C31162"/>
</linearGradient>
<linearGradient id="paint3_linear_55_10" x1="5.47177" y1="4.33101" x2="11.5098" y2="10.3374" gradientUnits="userSpaceOnUse">
<stop stop-color="#32A071"/>
<stop offset="0.0685" stop-color="#2DA771"/>
<stop offset="0.4762" stop-color="#15CF74"/>
<stop offset="0.8009" stop-color="#06E775"/>
<stop offset="1" stop-color="#00F076"/>
</linearGradient>
<linearGradient id="paint4_linear_55_10" x1="18.5701" y1="20.0954" x2="7.72004" y2="30.9513" gradientUnits="userSpaceOnUse">
<stop stop-color="#CC2E36"/>
<stop offset="1" stop-color="#9C0E4E"/>
</linearGradient>
<linearGradient id="paint5_linear_55_10" x1="8.6939" y1="6.53229" x2="1.65041" y2="13.5796" gradientUnits="userSpaceOnUse">
<stop stop-color="#008DE0"/>
<stop offset="0.00657" stop-color="#008DE0"/>
<stop offset="0.2601" stop-color="#00A7E0"/>
<stop offset="0.5122" stop-color="#00B8E0"/>
<stop offset="0.7604" stop-color="#00C4E0"/>
<stop offset="1" stop-color="#00C7E0"/>
</linearGradient>
<linearGradient id="paint6_linear_55_10" x1="25.3074" y1="15.001" x2="7.2085" y2="15.001" gradientUnits="userSpaceOnUse">
<stop stop-color="#E0C500"/>
<stop offset="0.4087" stop-color="#E0A600"/>
<stop offset="0.7754" stop-color="#E09100"/>
<stop offset="1" stop-color="#E08900"/>
</linearGradient>
<linearGradient id="paint7_linear_55_10" x1="25.3074" y1="15.0012" x2="7.2085" y2="15.0012" gradientUnits="userSpaceOnUse">
<stop stop-color="#FFE840"/>
<stop offset="0.4087" stop-color="#FFCE40"/>
<stop offset="0.7754" stop-color="#FFBC40"/>
<stop offset="1" stop-color="#FFB540"/>
</linearGradient>
<linearGradient id="paint8_linear_55_10" x1="8.68626" y1="6.54503" x2="1.90246" y2="13.0384" gradientUnits="userSpaceOnUse">
<stop stop-color="#40B8FF"/>
<stop offset="0.00657" stop-color="#40B9FF"/>
<stop offset="0.2601" stop-color="#40CEFF"/>
<stop offset="0.5122" stop-color="#40DDFF"/>
<stop offset="0.7604" stop-color="#40E7FF"/>
<stop offset="1" stop-color="#40EAFF"/>
</linearGradient>
<linearGradient id="paint9_linear_55_10" x1="5.45822" y1="6.29607" x2="10.3032" y2="11.1437" gradientUnits="userSpaceOnUse">
<stop stop-color="#65B895"/>
<stop offset="0.0685" stop-color="#62BD95"/>
<stop offset="0.4762" stop-color="#50DB97"/>
<stop offset="0.8009" stop-color="#44ED98"/>
<stop offset="1" stop-color="#40F498"/>
</linearGradient>
</defs>
</svg>
