<svg width="30" height="30" viewBox="0 0 30 30" fill="none" xmlns="http://www.w3.org/2000/svg">
<path d="M26.25 7.76813C25.4232 8.13437 24.5338 8.37875 23.5957 8.49437C24.5494 7.92812 25.2832 7.025 25.6275 5.95812C24.735 6.48125 23.7463 6.86563 22.6944 7.06813C21.8544 6.1775 20.6563 5.625 19.3288 5.625C16.7788 5.625 14.7119 7.67375 14.7119 10.2C14.7119 10.5575 14.7538 10.9056 14.8325 11.2437C10.9963 11.0512 7.59379 9.2275 5.31754 6.46C4.91754 7.13625 4.69254 7.92813 4.69254 8.76375C4.69254 10.3519 5.50567 11.75 6.74567 12.5738C5.98879 12.5506 5.27629 12.34 4.65254 12.0025C4.65254 12.0163 4.65254 12.0369 4.65254 12.0563C4.65254 14.2756 6.24442 16.1238 8.35442 16.5444C7.96879 16.65 7.56129 16.7087 7.14129 16.7087C6.84317 16.7087 6.55254 16.675 6.27129 16.6244C6.85879 18.4381 8.56317 19.7638 10.5825 19.8031C9.00254 21.0281 7.01254 21.7619 4.84879 21.7619C4.47504 21.7619 4.10942 21.7406 3.74817 21.6969C5.79254 22.9913 8.22004 23.75 10.8257 23.75C19.3163 23.75 23.9613 16.7775 23.9613 10.7288C23.9613 10.5306 23.955 10.3331 23.9457 10.1381C24.8519 9.49813 25.6332 8.69062 26.25 7.76813Z" fill="#03A9F4"/>
</svg>
